%TF.GenerationSoftware,KiCad,Pcbnew,7.0.7*%
%TF.CreationDate,2023-10-03T14:25:23+02:00*%
%TF.ProjectId,emmc-adapter,656d6d63-2d61-4646-9170-7465722e6b69,rev?*%
%TF.SameCoordinates,Original*%
%TF.FileFunction,Copper,L2,Bot*%
%TF.FilePolarity,Positive*%
%FSLAX46Y46*%
G04 Gerber Fmt 4.6, Leading zero omitted, Abs format (unit mm)*
G04 Created by KiCad (PCBNEW 7.0.7) date 2023-10-03 14:25:23*
%MOMM*%
%LPD*%
G01*
G04 APERTURE LIST*
G04 Aperture macros list*
%AMRoundRect*
0 Rectangle with rounded corners*
0 $1 Rounding radius*
0 $2 $3 $4 $5 $6 $7 $8 $9 X,Y pos of 4 corners*
0 Add a 4 corners polygon primitive as box body*
4,1,4,$2,$3,$4,$5,$6,$7,$8,$9,$2,$3,0*
0 Add four circle primitives for the rounded corners*
1,1,$1+$1,$2,$3*
1,1,$1+$1,$4,$5*
1,1,$1+$1,$6,$7*
1,1,$1+$1,$8,$9*
0 Add four rect primitives between the rounded corners*
20,1,$1+$1,$2,$3,$4,$5,0*
20,1,$1+$1,$4,$5,$6,$7,0*
20,1,$1+$1,$6,$7,$8,$9,0*
20,1,$1+$1,$8,$9,$2,$3,0*%
G04 Aperture macros list end*
%TA.AperFunction,SMDPad,CuDef*%
%ADD10C,0.500000*%
%TD*%
%TA.AperFunction,SMDPad,CuDef*%
%ADD11R,0.800000X2.900000*%
%TD*%
%TA.AperFunction,SMDPad,CuDef*%
%ADD12R,0.800000X3.200000*%
%TD*%
%TA.AperFunction,ComponentPad*%
%ADD13R,1.700000X1.700000*%
%TD*%
%TA.AperFunction,ComponentPad*%
%ADD14O,1.700000X1.700000*%
%TD*%
%TA.AperFunction,SMDPad,CuDef*%
%ADD15RoundRect,0.225000X0.250000X-0.225000X0.250000X0.225000X-0.250000X0.225000X-0.250000X-0.225000X0*%
%TD*%
%TA.AperFunction,SMDPad,CuDef*%
%ADD16RoundRect,0.200000X0.200000X0.275000X-0.200000X0.275000X-0.200000X-0.275000X0.200000X-0.275000X0*%
%TD*%
%TA.AperFunction,SMDPad,CuDef*%
%ADD17RoundRect,0.225000X-0.225000X-0.250000X0.225000X-0.250000X0.225000X0.250000X-0.225000X0.250000X0*%
%TD*%
%TA.AperFunction,SMDPad,CuDef*%
%ADD18RoundRect,0.218750X0.218750X0.256250X-0.218750X0.256250X-0.218750X-0.256250X0.218750X-0.256250X0*%
%TD*%
%TA.AperFunction,SMDPad,CuDef*%
%ADD19RoundRect,0.150000X0.512500X0.150000X-0.512500X0.150000X-0.512500X-0.150000X0.512500X-0.150000X0*%
%TD*%
%TA.AperFunction,ViaPad*%
%ADD20C,0.700000*%
%TD*%
%TA.AperFunction,Conductor*%
%ADD21C,0.300000*%
%TD*%
%TA.AperFunction,Conductor*%
%ADD22C,0.500000*%
%TD*%
G04 APERTURE END LIST*
D10*
%TO.P,FID1,*%
%TO.N,*%
X134700000Y-81000000D03*
%TD*%
%TO.P,FID2,*%
%TO.N,*%
X103800000Y-81200000D03*
%TD*%
%TO.P,FID3,*%
%TO.N,*%
X122600000Y-62450000D03*
%TD*%
D11*
%TO.P,J1,1,DAT2*%
%TO.N,/DAT2*%
X122100000Y-53550000D03*
%TO.P,J1,2,DAT3/CD*%
%TO.N,/DAT3*%
X121000000Y-53550000D03*
%TO.P,J1,3,CMD*%
%TO.N,/CMD*%
X119900000Y-53550000D03*
D12*
%TO.P,J1,4,VDD*%
%TO.N,/VCC*%
X118800000Y-53400000D03*
D11*
%TO.P,J1,5,CLK*%
%TO.N,/CLK*%
X117700000Y-53550000D03*
D12*
%TO.P,J1,6,VSS*%
%TO.N,GND*%
X116600000Y-53400000D03*
D11*
%TO.P,J1,7,DAT0*%
%TO.N,/DAT0*%
X115500000Y-53550000D03*
%TO.P,J1,8,DAT1*%
%TO.N,/DAT1*%
X114400000Y-53550000D03*
%TD*%
D13*
%TO.P,J2,1,Pin_1*%
%TO.N,/DAT2*%
X132975000Y-77750000D03*
D14*
%TO.P,J2,2,Pin_2*%
%TO.N,/DAT3*%
X130435000Y-77750000D03*
%TO.P,J2,3,Pin_3*%
%TO.N,/CMD*%
X127895000Y-77750000D03*
%TO.P,J2,4,Pin_4*%
%TO.N,Net-(J2-Pin_4)*%
X125355000Y-77750000D03*
%TO.P,J2,5,Pin_5*%
%TO.N,/CLK*%
X122815000Y-77750000D03*
%TO.P,J2,6,Pin_6*%
%TO.N,GND*%
X120275000Y-77750000D03*
%TO.P,J2,7,Pin_7*%
%TO.N,/DAT0*%
X117735000Y-77750000D03*
%TO.P,J2,8,Pin_8*%
%TO.N,/DAT1*%
X115195000Y-77750000D03*
%TO.P,J2,9,Pin_9*%
%TO.N,/!RST*%
X112655000Y-77750000D03*
%TO.P,J2,10,Pin_10*%
%TO.N,/VCCQ*%
X110115000Y-77750000D03*
%TO.P,J2,11,Pin_11*%
%TO.N,GND*%
X107575000Y-77750000D03*
%TO.P,J2,12,Pin_12*%
%TO.N,/VDDI*%
X105035000Y-77750000D03*
%TD*%
D15*
%TO.P,C1,1*%
%TO.N,Net-(J2-Pin_4)*%
X125350000Y-74900000D03*
%TO.P,C1,2*%
%TO.N,/VCC*%
X125350000Y-73350000D03*
%TD*%
D16*
%TO.P,R1,1*%
%TO.N,/VCC*%
X114300000Y-74300000D03*
%TO.P,R1,2*%
%TO.N,/!RST*%
X112650000Y-74300000D03*
%TD*%
D17*
%TO.P,C2,1*%
%TO.N,/VCC*%
X114225000Y-70350000D03*
%TO.P,C2,2*%
%TO.N,GND*%
X115775000Y-70350000D03*
%TD*%
D18*
%TO.P,D1,1,K*%
%TO.N,GND*%
X132613500Y-72136000D03*
%TO.P,D1,2,A*%
%TO.N,/VCC*%
X131038500Y-72136000D03*
%TD*%
D15*
%TO.P,C3,1*%
%TO.N,/VCCQ*%
X106500000Y-71200000D03*
%TO.P,C3,2*%
%TO.N,GND*%
X106500000Y-69650000D03*
%TD*%
%TO.P,C4,1*%
%TO.N,/VDDI*%
X105050000Y-74350000D03*
%TO.P,C4,2*%
%TO.N,GND*%
X105050000Y-72800000D03*
%TD*%
D19*
%TO.P,U1,1,IN*%
%TO.N,/VCC*%
X111275000Y-70350000D03*
%TO.P,U1,2,GND*%
%TO.N,GND*%
X111275000Y-71300000D03*
%TO.P,U1,3,EN*%
%TO.N,/VCC*%
X111275000Y-72250000D03*
%TO.P,U1,4,NC*%
%TO.N,unconnected-(U1-NC-Pad4)*%
X109000000Y-72250000D03*
%TO.P,U1,5,OUT*%
%TO.N,/VCCQ*%
X109000000Y-70350000D03*
%TD*%
D20*
%TO.N,GND*%
X120280000Y-75300000D03*
%TO.N,/VCC*%
X118825000Y-58150000D03*
X123952000Y-74422000D03*
X114225000Y-68425000D03*
X127762000Y-70612000D03*
%TD*%
D21*
%TO.N,GND*%
X120275000Y-75305000D02*
X120280000Y-75300000D01*
X120275000Y-77750000D02*
X120275000Y-75305000D01*
D22*
%TO.N,/VDDI*%
X105050000Y-74350000D02*
X105050000Y-77735000D01*
X105050000Y-78185000D02*
X105035000Y-78200000D01*
%TO.N,/VCC*%
X112800000Y-72250000D02*
X113389950Y-72250000D01*
X118825000Y-53425000D02*
X118800000Y-53400000D01*
X114225000Y-70350000D02*
X114225000Y-68425000D01*
X114225000Y-70350000D02*
X111650000Y-70350000D01*
X129286000Y-72136000D02*
X127762000Y-70612000D01*
X114975000Y-73625000D02*
X114300000Y-74300000D01*
X125350000Y-73350000D02*
X123917000Y-71917000D01*
X123952000Y-71952000D02*
X123952000Y-74422000D01*
X114225000Y-68425000D02*
X114975000Y-69175000D01*
X118800000Y-66800000D02*
X118800000Y-53400000D01*
X114225000Y-71414950D02*
X113389950Y-72250000D01*
X123917000Y-71917000D02*
X123952000Y-71952000D01*
X123917000Y-71917000D02*
X118800000Y-66800000D01*
X114975000Y-69175000D02*
X114975000Y-73625000D01*
X114225000Y-70350000D02*
X114225000Y-71414950D01*
X111650000Y-72250000D02*
X112800000Y-72250000D01*
X131038500Y-72136000D02*
X129286000Y-72136000D01*
X118825000Y-58150000D02*
X118825000Y-53425000D01*
D21*
%TO.N,/CMD*%
X119477151Y-58080848D02*
X119477151Y-58258000D01*
X119900000Y-53550000D02*
X119900000Y-57658000D01*
X119611425Y-59758000D02*
X119611426Y-59758000D01*
X119900000Y-66753249D02*
X127895000Y-74748249D01*
X120200000Y-59908000D02*
X120200000Y-60208000D01*
X119345704Y-60635148D02*
X119345704Y-60680852D01*
X119900000Y-61235148D02*
X119900000Y-61258000D01*
X119900000Y-61258000D02*
X119900000Y-66753249D01*
X119611426Y-59758000D02*
X120050000Y-59758000D01*
X119688575Y-58469424D02*
X119688576Y-58469424D01*
X119611426Y-59146574D02*
X119611425Y-59146574D01*
X119322851Y-59435148D02*
X119322851Y-59469426D01*
X119900000Y-60358000D02*
X119622852Y-60358000D01*
X127895000Y-74748249D02*
X127895000Y-77750000D01*
X119688576Y-57869424D02*
X119688575Y-57869424D01*
X119900000Y-58680848D02*
X119900000Y-58858000D01*
X120050000Y-60358000D02*
X119900000Y-60358000D01*
X119345800Y-60680852D02*
G75*
G03*
X119622852Y-60958000I277100J-48D01*
G01*
X119900000Y-61235148D02*
G75*
G03*
X119622852Y-60958000I-277100J48D01*
G01*
X119688576Y-57869400D02*
G75*
G03*
X119900000Y-57658000I24J211400D01*
G01*
X119622852Y-60357904D02*
G75*
G03*
X119345704Y-60635148I48J-277196D01*
G01*
X120200000Y-59908000D02*
G75*
G03*
X120050000Y-59758000I-150000J0D01*
G01*
X119611425Y-59146551D02*
G75*
G03*
X119322851Y-59435148I-25J-288549D01*
G01*
X119477176Y-58258000D02*
G75*
G03*
X119688575Y-58469424I211424J0D01*
G01*
X119899976Y-58680848D02*
G75*
G03*
X119688576Y-58469424I-211376J48D01*
G01*
X119688575Y-57869351D02*
G75*
G03*
X119477151Y-58080848I25J-211449D01*
G01*
X119322800Y-59469426D02*
G75*
G03*
X119611425Y-59758000I288600J26D01*
G01*
X119611426Y-59146600D02*
G75*
G03*
X119900000Y-58858000I-26J288600D01*
G01*
X120050000Y-60358000D02*
G75*
G03*
X120200000Y-60208000I0J150000D01*
G01*
%TO.N,/DAT3*%
X121000000Y-57600092D02*
X121000000Y-57544000D01*
X121000000Y-59044000D02*
X121150000Y-59044000D01*
X120512184Y-58200092D02*
X120512184Y-58087908D01*
X121150000Y-58444000D02*
X121000000Y-58444000D01*
X121000000Y-57544000D02*
X121000000Y-53550000D01*
X121000000Y-66870000D02*
X121000000Y-59944000D01*
X121000000Y-58444000D02*
X120756092Y-58444000D01*
X130435000Y-76305000D02*
X121000000Y-66870000D01*
X120440260Y-59384260D02*
X120440260Y-59323870D01*
X130435000Y-77750000D02*
X130435000Y-76305000D01*
X120720130Y-59044000D02*
X121000000Y-59044000D01*
X121300000Y-58894000D02*
X121300000Y-58594000D01*
X121150000Y-59044000D02*
G75*
G03*
X121300000Y-58894000I0J150000D01*
G01*
X120756092Y-57844000D02*
G75*
G03*
X121000000Y-57600092I8J243900D01*
G01*
X120999970Y-59944000D02*
G75*
G03*
X120720130Y-59664130I-279870J0D01*
G01*
X120512200Y-58200092D02*
G75*
G03*
X120756092Y-58444000I243900J-8D01*
G01*
X120720130Y-59044060D02*
G75*
G03*
X120440260Y-59323870I-30J-279840D01*
G01*
X121300000Y-58594000D02*
G75*
G03*
X121150000Y-58444000I-150000J0D01*
G01*
X120440270Y-59384260D02*
G75*
G03*
X120720130Y-59664130I279830J-40D01*
G01*
X120756092Y-57843984D02*
G75*
G03*
X120512184Y-58087908I8J-243916D01*
G01*
%TO.N,/CLK*%
X117528976Y-59450512D02*
X117528976Y-59723488D01*
X117692488Y-61087000D02*
X117856000Y-61087000D01*
X117856000Y-59287000D02*
X117692488Y-59287000D01*
X118044512Y-59287000D02*
X117856000Y-59287000D01*
X117700000Y-53550000D02*
X117700000Y-55300000D01*
X117856000Y-61087000D02*
X118044525Y-61087000D01*
X117856000Y-61687000D02*
X117694306Y-61687000D01*
X117856000Y-55456000D02*
X117856000Y-57912000D01*
X117856000Y-62448694D02*
X117856000Y-62712000D01*
X118044525Y-60487000D02*
X117856000Y-60487000D01*
X117532612Y-61848694D02*
X117532612Y-62125306D01*
X117856000Y-62712000D02*
X117856000Y-66956000D01*
X117856000Y-66956000D02*
X122815000Y-71915000D01*
X117692488Y-59887000D02*
X117856000Y-59887000D01*
X117532612Y-58235388D02*
X117532612Y-58525306D01*
X117528976Y-60650512D02*
X117528976Y-60923488D01*
X118044525Y-61687000D02*
X117856000Y-61687000D01*
X118233024Y-58875512D02*
X118233024Y-59098488D01*
X118233049Y-61275524D02*
X118233049Y-61498476D01*
X117694306Y-58687000D02*
X117856000Y-58687000D01*
X117856000Y-59887000D02*
X118044525Y-59887000D01*
X118233049Y-60075524D02*
X118233049Y-60298476D01*
X117856000Y-58687000D02*
X118044512Y-58687000D01*
X117700000Y-55300000D02*
X117856000Y-55456000D01*
X122815000Y-71915000D02*
X122815000Y-77750000D01*
X117856000Y-60487000D02*
X117692488Y-60487000D01*
X117694306Y-58073712D02*
G75*
G03*
X117532612Y-58235388I-6J-161688D01*
G01*
X118044525Y-60487049D02*
G75*
G03*
X118233049Y-60298476I-25J188549D01*
G01*
X117532600Y-62125306D02*
G75*
G03*
X117694306Y-62287000I161700J6D01*
G01*
X118233000Y-60075524D02*
G75*
G03*
X118044525Y-59887000I-188500J24D01*
G01*
X117692488Y-60486976D02*
G75*
G03*
X117528976Y-60650512I12J-163524D01*
G01*
X117856000Y-62448694D02*
G75*
G03*
X117694306Y-62287000I-161700J-6D01*
G01*
X118044512Y-59287024D02*
G75*
G03*
X118233024Y-59098488I-12J188524D01*
G01*
X117529000Y-60923488D02*
G75*
G03*
X117692488Y-61087000I163500J-12D01*
G01*
X118233000Y-58875512D02*
G75*
G03*
X118044512Y-58687000I-188500J12D01*
G01*
X118044525Y-61687049D02*
G75*
G03*
X118233049Y-61498476I-25J188549D01*
G01*
X117692488Y-59286976D02*
G75*
G03*
X117528976Y-59450512I12J-163524D01*
G01*
X117532600Y-58525306D02*
G75*
G03*
X117694306Y-58687000I161700J6D01*
G01*
X118233000Y-61275524D02*
G75*
G03*
X118044525Y-61087000I-188500J24D01*
G01*
X117694306Y-61687012D02*
G75*
G03*
X117532612Y-61848694I-6J-161688D01*
G01*
X117694306Y-58073700D02*
G75*
G03*
X117856000Y-57912000I-6J161700D01*
G01*
X117529000Y-59723488D02*
G75*
G03*
X117692488Y-59887000I163500J-12D01*
G01*
%TO.N,/DAT0*%
X117256780Y-66487000D02*
X117094000Y-66487000D01*
X115500000Y-55244314D02*
X117094000Y-56838314D01*
X117094000Y-65287000D02*
X116931207Y-65287000D01*
X117419560Y-63649780D02*
X117419560Y-63924220D01*
X116768440Y-64249780D02*
X116768440Y-64524220D01*
X117094000Y-67512000D02*
X117094000Y-77109000D01*
X117094000Y-67247864D02*
X117094000Y-67512000D01*
X117094000Y-64087000D02*
X116931220Y-64087000D01*
X117256780Y-64087000D02*
X117094000Y-64087000D01*
X115500000Y-53550000D02*
X115500000Y-55244314D01*
X116931220Y-64687000D02*
X117094000Y-64687000D01*
X117094000Y-61228406D02*
X117094000Y-61512000D01*
X116772272Y-66647864D02*
X116772272Y-66926136D01*
X117094000Y-65887000D02*
X117256780Y-65887000D01*
X116768415Y-65449792D02*
X116768415Y-65724208D01*
X117419560Y-66049780D02*
X117419560Y-66324220D01*
X116777594Y-59428406D02*
X116777594Y-59712000D01*
X117094000Y-62428352D02*
X117094000Y-62712000D01*
X116777649Y-58228350D02*
X116777649Y-58512000D01*
X117094000Y-64687000D02*
X117256780Y-64687000D01*
X117094000Y-66487000D02*
X116933136Y-66487000D01*
X116933161Y-62872839D02*
X116933160Y-62872839D01*
X117094000Y-60028406D02*
X117094000Y-60312000D01*
X116772321Y-63033678D02*
X116772321Y-63326161D01*
X116933160Y-63487000D02*
X116933161Y-63487000D01*
X116777594Y-60628406D02*
X116777594Y-60912000D01*
X116935825Y-58070175D02*
X116935824Y-58070175D01*
X116935824Y-58670175D02*
X116935825Y-58670175D01*
X116777648Y-61828352D02*
X116777648Y-62112000D01*
X116931207Y-65887000D02*
X117094000Y-65887000D01*
X116933161Y-63487000D02*
X117256780Y-63487000D01*
X117094000Y-58828350D02*
X117094000Y-59112000D01*
X117094000Y-56838314D02*
X117094000Y-57912000D01*
X117256780Y-65287000D02*
X117094000Y-65287000D01*
X117094000Y-77109000D02*
X117735000Y-77750000D01*
X117419560Y-64849780D02*
X117419560Y-65124220D01*
X116772400Y-63326161D02*
G75*
G03*
X116933160Y-63487000I160800J-39D01*
G01*
X116935824Y-58070149D02*
G75*
G03*
X116777649Y-58228350I-24J-158151D01*
G01*
X116935825Y-58070200D02*
G75*
G03*
X117094000Y-57912000I-25J158200D01*
G01*
X116933136Y-66487072D02*
G75*
G03*
X116772272Y-66647864I-36J-160828D01*
G01*
X116935797Y-60470194D02*
G75*
G03*
X116777594Y-60628406I3J-158206D01*
G01*
X116935824Y-61670200D02*
G75*
G03*
X117094000Y-61512000I-24J158200D01*
G01*
X116777624Y-62112000D02*
G75*
G03*
X116935824Y-62270176I158176J0D01*
G01*
X116777597Y-59712000D02*
G75*
G03*
X116935797Y-59870203I158203J0D01*
G01*
X116777625Y-58512000D02*
G75*
G03*
X116935824Y-58670175I158175J0D01*
G01*
X116935797Y-59270200D02*
G75*
G03*
X117094000Y-59112000I3J158200D01*
G01*
X116772200Y-66926136D02*
G75*
G03*
X116933136Y-67087000I160900J36D01*
G01*
X117093997Y-60028406D02*
G75*
G03*
X116935797Y-59870203I-158197J6D01*
G01*
X117094000Y-67247864D02*
G75*
G03*
X116933136Y-67087000I-160900J-36D01*
G01*
X117256780Y-66486960D02*
G75*
G03*
X117419560Y-66324220I20J162760D01*
G01*
X116777597Y-60912000D02*
G75*
G03*
X116935797Y-61070203I158203J0D01*
G01*
X117256780Y-64086960D02*
G75*
G03*
X117419560Y-63924220I20J162760D01*
G01*
X117094024Y-62428352D02*
G75*
G03*
X116935824Y-62270176I-158224J-48D01*
G01*
X116933160Y-62872821D02*
G75*
G03*
X116772321Y-63033678I40J-160879D01*
G01*
X116935824Y-61670248D02*
G75*
G03*
X116777648Y-61828352I-24J-158152D01*
G01*
X117419600Y-66049780D02*
G75*
G03*
X117256780Y-65887000I-162800J-20D01*
G01*
X116935797Y-60470200D02*
G75*
G03*
X117094000Y-60312000I3J158200D01*
G01*
X116931207Y-65287015D02*
G75*
G03*
X116768415Y-65449792I-7J-162785D01*
G01*
X117419600Y-64849780D02*
G75*
G03*
X117256780Y-64687000I-162800J-20D01*
G01*
X116768400Y-64524220D02*
G75*
G03*
X116931220Y-64687000I162800J20D01*
G01*
X117256780Y-65286960D02*
G75*
G03*
X117419560Y-65124220I20J162760D01*
G01*
X116935797Y-59270194D02*
G75*
G03*
X116777594Y-59428406I3J-158206D01*
G01*
X116931220Y-64087040D02*
G75*
G03*
X116768440Y-64249780I-20J-162760D01*
G01*
X117093997Y-61228406D02*
G75*
G03*
X116935797Y-61070203I-158197J6D01*
G01*
X117419600Y-63649780D02*
G75*
G03*
X117256780Y-63487000I-162800J-20D01*
G01*
X116768400Y-65724208D02*
G75*
G03*
X116931207Y-65887000I162800J8D01*
G01*
X117093925Y-58828350D02*
G75*
G03*
X116935825Y-58670175I-158125J50D01*
G01*
X116933161Y-62872800D02*
G75*
G03*
X117094000Y-62712000I39J160800D01*
G01*
%TO.N,/DAT1*%
X116332000Y-62712000D02*
X116332000Y-62949209D01*
X116332000Y-69760249D02*
X116475000Y-69903249D01*
X115811750Y-62412000D02*
X116032000Y-62412000D01*
X116032000Y-58212000D02*
X115811755Y-58212000D01*
X114400000Y-53550000D02*
X114400000Y-54710000D01*
X114400000Y-54710000D02*
X116332000Y-56642000D01*
X116475000Y-76470000D02*
X115195000Y-77750000D01*
X116032000Y-61812000D02*
X115811750Y-61812000D01*
X116032000Y-60612000D02*
X115811755Y-60612000D01*
X115811755Y-61212000D02*
X116032000Y-61212000D01*
X115811755Y-60012000D02*
X116032000Y-60012000D01*
X116475000Y-69903249D02*
X116475000Y-76470000D01*
X115811755Y-58812000D02*
X116032000Y-58812000D01*
X116332000Y-62949209D02*
X116332000Y-69760249D01*
X116032000Y-59412000D02*
X115811755Y-59412000D01*
X116332000Y-56642000D02*
X116332000Y-57912000D01*
X116332000Y-59112000D02*
G75*
G03*
X116032000Y-58812000I-300000J0D01*
G01*
X115511800Y-62112000D02*
G75*
G03*
X115811750Y-62412000I300000J0D01*
G01*
X115811755Y-58211955D02*
G75*
G03*
X115511755Y-58512000I45J-300045D01*
G01*
X115511800Y-58512000D02*
G75*
G03*
X115811755Y-58812000I300000J0D01*
G01*
X115511800Y-60912000D02*
G75*
G03*
X115811755Y-61212000I300000J0D01*
G01*
X116032000Y-60612000D02*
G75*
G03*
X116332000Y-60312000I0J300000D01*
G01*
X116332000Y-60312000D02*
G75*
G03*
X116032000Y-60012000I-300000J0D01*
G01*
X116332000Y-61512000D02*
G75*
G03*
X116032000Y-61212000I-300000J0D01*
G01*
X115811755Y-59411955D02*
G75*
G03*
X115511755Y-59712000I45J-300045D01*
G01*
X116032000Y-58212000D02*
G75*
G03*
X116332000Y-57912000I0J300000D01*
G01*
X116032000Y-61812000D02*
G75*
G03*
X116332000Y-61512000I0J300000D01*
G01*
X115811750Y-61811950D02*
G75*
G03*
X115511750Y-62112000I50J-300050D01*
G01*
X116032000Y-59412000D02*
G75*
G03*
X116332000Y-59112000I0J300000D01*
G01*
X116332000Y-62712000D02*
G75*
G03*
X116032000Y-62412000I-300000J0D01*
G01*
X115811755Y-60611955D02*
G75*
G03*
X115511755Y-60912000I45J-300045D01*
G01*
X115511800Y-59712000D02*
G75*
G03*
X115811755Y-60012000I300000J0D01*
G01*
%TO.N,/DAT2*%
X122080000Y-58212000D02*
X122301516Y-58212000D01*
X121780000Y-59112000D02*
X121780000Y-59215900D01*
X122301516Y-58812000D02*
X122080000Y-58812000D01*
X121780000Y-53870000D02*
X121780000Y-57912000D01*
X121780000Y-66555000D02*
X132975000Y-77750000D01*
X122100000Y-53550000D02*
X121780000Y-53870000D01*
X121780000Y-59215900D02*
X121780000Y-66555000D01*
X122601500Y-58512000D02*
G75*
G03*
X122301516Y-58212000I-300000J0D01*
G01*
X122301516Y-58812016D02*
G75*
G03*
X122601516Y-58512000I-16J300016D01*
G01*
X121780000Y-57912000D02*
G75*
G03*
X122080000Y-58212000I300000J0D01*
G01*
X122080000Y-58812000D02*
G75*
G03*
X121780000Y-59112000I0J-300000D01*
G01*
D22*
%TO.N,/VCCQ*%
X106500000Y-71200000D02*
X107200000Y-71900000D01*
X107350000Y-70350000D02*
X106500000Y-71200000D01*
X107200000Y-74835000D02*
X110115000Y-77750000D01*
X108950000Y-70350000D02*
X107350000Y-70350000D01*
X107200000Y-71900000D02*
X107200000Y-74835000D01*
D21*
%TO.N,/!RST*%
X112650000Y-78195000D02*
X112655000Y-78200000D01*
X112650000Y-77745000D02*
X112655000Y-77750000D01*
X112650000Y-74300000D02*
X112650000Y-77745000D01*
D22*
%TO.N,Net-(J2-Pin_4)*%
X125350000Y-77745000D02*
X125355000Y-77750000D01*
X125375000Y-77730000D02*
X125355000Y-77750000D01*
X125350000Y-74900000D02*
X125350000Y-77745000D01*
%TD*%
%TA.AperFunction,Conductor*%
%TO.N,GND*%
G36*
X117713501Y-67450605D02*
G01*
X119979933Y-69717036D01*
X122335504Y-72072607D01*
X122363281Y-72127124D01*
X122364500Y-72142611D01*
X122364500Y-76622890D01*
X122345593Y-76681081D01*
X122303854Y-76713215D01*
X122304077Y-76713663D01*
X122301799Y-76714797D01*
X122301276Y-76715200D01*
X122299986Y-76715699D01*
X122299975Y-76715705D01*
X122118699Y-76827946D01*
X122118692Y-76827952D01*
X121961135Y-76971586D01*
X121961131Y-76971589D01*
X121961128Y-76971593D01*
X121961124Y-76971597D01*
X121961125Y-76971597D01*
X121832635Y-77141743D01*
X121832630Y-77141752D01*
X121745274Y-77317188D01*
X121702411Y-77360851D01*
X121642070Y-77370980D01*
X121587299Y-77343707D01*
X121566563Y-77310815D01*
X121565466Y-77311297D01*
X121473418Y-77101448D01*
X121473415Y-77101443D01*
X121350328Y-76913045D01*
X121197896Y-76747460D01*
X121020304Y-76609234D01*
X121020301Y-76609232D01*
X120822375Y-76502119D01*
X120609510Y-76429042D01*
X120529000Y-76415607D01*
X120529000Y-77167125D01*
X120510093Y-77225316D01*
X120460593Y-77261280D01*
X120415911Y-77265117D01*
X120310768Y-77250000D01*
X120310763Y-77250000D01*
X120239237Y-77250000D01*
X120239232Y-77250000D01*
X120134089Y-77265117D01*
X120073800Y-77254684D01*
X120031157Y-77210806D01*
X120021000Y-77167125D01*
X120021000Y-76415607D01*
X120020999Y-76415607D01*
X119940489Y-76429042D01*
X119727624Y-76502119D01*
X119529698Y-76609232D01*
X119529695Y-76609234D01*
X119352103Y-76747460D01*
X119199671Y-76913045D01*
X119076584Y-77101443D01*
X119076581Y-77101448D01*
X118984534Y-77311297D01*
X118982934Y-77310595D01*
X118950185Y-77354117D01*
X118891686Y-77372046D01*
X118833820Y-77352165D01*
X118804725Y-77317188D01*
X118800940Y-77309587D01*
X118717366Y-77141745D01*
X118588872Y-76971593D01*
X118507978Y-76897848D01*
X118431307Y-76827952D01*
X118431300Y-76827946D01*
X118250024Y-76715705D01*
X118250019Y-76715702D01*
X118165651Y-76683018D01*
X118051198Y-76638679D01*
X118051197Y-76638678D01*
X118051195Y-76638678D01*
X117841610Y-76599500D01*
X117643500Y-76599500D01*
X117585309Y-76580593D01*
X117549345Y-76531093D01*
X117544500Y-76500500D01*
X117544500Y-67520611D01*
X117563407Y-67462420D01*
X117612907Y-67426456D01*
X117674093Y-67426456D01*
X117713501Y-67450605D01*
G37*
%TD.AperFunction*%
%TA.AperFunction,Conductor*%
G36*
X122410318Y-51002522D02*
G01*
X122435668Y-51007727D01*
X122541727Y-51030997D01*
X122557963Y-51036056D01*
X122610661Y-51057596D01*
X122652326Y-51076590D01*
X122686882Y-51092344D01*
X122699511Y-51099253D01*
X122751337Y-51132728D01*
X122754021Y-51134590D01*
X122819398Y-51183240D01*
X122823903Y-51187030D01*
X122872406Y-51233036D01*
X122875587Y-51236346D01*
X122928525Y-51296817D01*
X122931386Y-51300408D01*
X122970573Y-51354570D01*
X122973736Y-51359539D01*
X123013308Y-51430770D01*
X123014804Y-51433688D01*
X123041122Y-51489469D01*
X123046307Y-51502918D01*
X123070671Y-51583064D01*
X123085044Y-51638126D01*
X123087912Y-51654912D01*
X123097094Y-51765128D01*
X123099348Y-51797340D01*
X123099457Y-51801888D01*
X123098807Y-51831400D01*
X123099500Y-51840869D01*
X123099500Y-55897639D01*
X123099414Y-55900027D01*
X123099543Y-55900373D01*
X123101187Y-55902135D01*
X124375313Y-57372278D01*
X124399136Y-57428634D01*
X124399500Y-57437115D01*
X124399500Y-58800500D01*
X124380593Y-58858691D01*
X124331093Y-58894655D01*
X124300500Y-58899500D01*
X123970022Y-58899500D01*
X123944384Y-58891170D01*
X123912071Y-58897598D01*
X123892757Y-58899500D01*
X123868241Y-58899500D01*
X123864483Y-58900095D01*
X123860728Y-58899500D01*
X123860452Y-58899500D01*
X123860452Y-58899456D01*
X123849625Y-58897740D01*
X123838264Y-58905333D01*
X123813855Y-58917172D01*
X123807845Y-58919124D01*
X123807840Y-58919126D01*
X123807840Y-58919127D01*
X123807839Y-58919128D01*
X123756461Y-58956455D01*
X123756455Y-58956461D01*
X123719128Y-59007839D01*
X123719124Y-59007845D01*
X123717172Y-59013855D01*
X123705333Y-59038264D01*
X123698116Y-59049064D01*
X123700095Y-59064483D01*
X123699500Y-59068241D01*
X123699500Y-59092761D01*
X123697598Y-59112074D01*
X123691618Y-59142136D01*
X123698566Y-59156459D01*
X123699500Y-59170025D01*
X123699499Y-60097740D01*
X123699424Y-60100050D01*
X123699545Y-60100373D01*
X123701203Y-60102134D01*
X124375005Y-60872193D01*
X124399095Y-60928436D01*
X124399500Y-60937384D01*
X124399500Y-65007710D01*
X124398869Y-65011593D01*
X124399436Y-65022768D01*
X124399472Y-65024190D01*
X124399529Y-65024317D01*
X124399684Y-65024464D01*
X124401225Y-65025051D01*
X124412854Y-65029896D01*
X124417005Y-65030571D01*
X136110082Y-69184397D01*
X136933640Y-69476956D01*
X136982144Y-69514252D01*
X136999500Y-69570245D01*
X136999500Y-80646486D01*
X136999013Y-80653417D01*
X136987775Y-80732984D01*
X136960988Y-80914813D01*
X136959706Y-80920866D01*
X136927672Y-81036071D01*
X136885236Y-81178764D01*
X136883340Y-81184029D01*
X136833774Y-81300582D01*
X136774184Y-81429880D01*
X136771860Y-81434316D01*
X136705980Y-81545984D01*
X136629890Y-81663487D01*
X136627325Y-81667085D01*
X136547283Y-81769391D01*
X136545594Y-81771434D01*
X136454989Y-81875268D01*
X136452362Y-81878053D01*
X136359310Y-81969371D01*
X136356924Y-81971563D01*
X136252719Y-82061229D01*
X136250195Y-82063260D01*
X136145991Y-82141673D01*
X136142844Y-82143855D01*
X136026639Y-82217969D01*
X136024367Y-82219334D01*
X135911317Y-82283193D01*
X135907377Y-82285192D01*
X135779813Y-82342917D01*
X135659572Y-82391402D01*
X135654839Y-82393038D01*
X135518109Y-82432672D01*
X135395468Y-82464300D01*
X135389977Y-82465390D01*
X135242527Y-82486070D01*
X135177166Y-82494050D01*
X135131422Y-82499635D01*
X135125425Y-82500000D01*
X134903121Y-82500000D01*
X134902480Y-82499993D01*
X134857621Y-82499571D01*
X134856770Y-82499499D01*
X134851860Y-82499499D01*
X134848187Y-82499363D01*
X134824573Y-82497606D01*
X134820736Y-82499195D01*
X134812984Y-82499499D01*
X103253511Y-82499499D01*
X103246581Y-82499012D01*
X103201758Y-82492681D01*
X103166870Y-82487754D01*
X102985191Y-82460990D01*
X102979138Y-82459708D01*
X102863867Y-82427655D01*
X102721248Y-82385241D01*
X102715982Y-82383345D01*
X102599367Y-82333752D01*
X102470124Y-82274186D01*
X102465688Y-82271863D01*
X102353996Y-82205969D01*
X102236516Y-82129893D01*
X102232918Y-82127329D01*
X102130599Y-82047276D01*
X102128555Y-82045587D01*
X102024754Y-81955012D01*
X102021968Y-81952385D01*
X102003073Y-81933131D01*
X101930596Y-81859277D01*
X101928412Y-81856900D01*
X101854871Y-81771434D01*
X101838754Y-81752702D01*
X101836759Y-81750224D01*
X101758317Y-81645981D01*
X101756140Y-81642841D01*
X101682048Y-81526671D01*
X101680695Y-81524420D01*
X101616788Y-81411284D01*
X101614806Y-81407381D01*
X101557096Y-81279847D01*
X101545804Y-81251844D01*
X101524900Y-81200002D01*
X103294353Y-81200002D01*
X103314834Y-81342456D01*
X103342814Y-81403722D01*
X103374623Y-81473373D01*
X103468872Y-81582143D01*
X103468873Y-81582144D01*
X103493930Y-81598247D01*
X103589947Y-81659953D01*
X103696403Y-81691211D01*
X103728035Y-81700499D01*
X103728036Y-81700499D01*
X103728039Y-81700500D01*
X103728041Y-81700500D01*
X103871959Y-81700500D01*
X103871961Y-81700500D01*
X104010053Y-81659953D01*
X104131128Y-81582143D01*
X104225377Y-81473373D01*
X104285165Y-81342457D01*
X104305647Y-81200000D01*
X104300235Y-81162361D01*
X104285165Y-81057543D01*
X104259818Y-81002041D01*
X104258887Y-81000002D01*
X134194353Y-81000002D01*
X134214834Y-81142456D01*
X134241113Y-81199997D01*
X134274623Y-81273373D01*
X134358246Y-81369880D01*
X134368873Y-81382144D01*
X134443152Y-81429880D01*
X134489947Y-81459953D01*
X134588138Y-81488784D01*
X134628035Y-81500499D01*
X134628036Y-81500499D01*
X134628039Y-81500500D01*
X134628041Y-81500500D01*
X134771959Y-81500500D01*
X134771961Y-81500500D01*
X134910053Y-81459953D01*
X135031128Y-81382143D01*
X135125377Y-81273373D01*
X135185165Y-81142457D01*
X135205647Y-81000000D01*
X135194269Y-80920866D01*
X135185165Y-80857543D01*
X135150280Y-80781156D01*
X135125377Y-80726627D01*
X135031128Y-80617857D01*
X135031127Y-80617856D01*
X135031126Y-80617855D01*
X134910057Y-80540049D01*
X134910054Y-80540047D01*
X134910053Y-80540047D01*
X134910050Y-80540046D01*
X134771964Y-80499500D01*
X134771961Y-80499500D01*
X134628039Y-80499500D01*
X134628035Y-80499500D01*
X134489949Y-80540046D01*
X134489942Y-80540049D01*
X134368873Y-80617855D01*
X134274622Y-80726628D01*
X134214834Y-80857543D01*
X134194353Y-80999997D01*
X134194353Y-81000002D01*
X104258887Y-81000002D01*
X104225377Y-80926627D01*
X104131128Y-80817857D01*
X104131127Y-80817856D01*
X104131126Y-80817855D01*
X104010057Y-80740049D01*
X104010054Y-80740047D01*
X104010053Y-80740047D01*
X104010050Y-80740046D01*
X103871964Y-80699500D01*
X103871961Y-80699500D01*
X103728039Y-80699500D01*
X103728035Y-80699500D01*
X103589949Y-80740046D01*
X103589942Y-80740049D01*
X103468873Y-80817855D01*
X103374622Y-80926628D01*
X103314834Y-81057543D01*
X103294353Y-81199997D01*
X103294353Y-81200002D01*
X101524900Y-81200002D01*
X101508589Y-81159551D01*
X101506958Y-81154833D01*
X101467343Y-81018169D01*
X101435692Y-80895439D01*
X101434609Y-80889986D01*
X101413933Y-80742560D01*
X101400364Y-80631423D01*
X101400000Y-80625425D01*
X101400000Y-80403033D01*
X101400364Y-80364285D01*
X101400500Y-80363403D01*
X101400500Y-80351860D01*
X101400636Y-80348187D01*
X101402392Y-80324573D01*
X101400804Y-80320736D01*
X101400500Y-80312984D01*
X101400500Y-77750000D01*
X103879571Y-77750000D01*
X103899244Y-77962310D01*
X103957595Y-78167389D01*
X104052634Y-78358255D01*
X104181128Y-78528407D01*
X104181135Y-78528413D01*
X104338692Y-78672047D01*
X104338699Y-78672053D01*
X104442389Y-78736255D01*
X104519981Y-78784298D01*
X104718802Y-78861321D01*
X104928390Y-78900500D01*
X105141610Y-78900500D01*
X105351198Y-78861321D01*
X105550019Y-78784298D01*
X105731302Y-78672052D01*
X105888872Y-78528407D01*
X106017366Y-78358255D01*
X106104726Y-78182809D01*
X106147587Y-78139149D01*
X106207928Y-78129019D01*
X106262699Y-78156291D01*
X106283443Y-78189181D01*
X106284534Y-78188703D01*
X106376581Y-78398551D01*
X106376584Y-78398556D01*
X106499671Y-78586954D01*
X106652103Y-78752539D01*
X106829695Y-78890765D01*
X106829698Y-78890767D01*
X107027624Y-78997880D01*
X107240491Y-79070957D01*
X107320999Y-79084392D01*
X107321000Y-79084392D01*
X107321000Y-78332874D01*
X107339907Y-78274683D01*
X107389407Y-78238719D01*
X107434090Y-78234882D01*
X107539233Y-78250000D01*
X107539237Y-78250000D01*
X107610767Y-78250000D01*
X107715910Y-78234882D01*
X107776199Y-78245315D01*
X107818842Y-78289192D01*
X107829000Y-78332874D01*
X107829000Y-79084392D01*
X107909508Y-79070957D01*
X108122375Y-78997880D01*
X108320301Y-78890767D01*
X108320304Y-78890765D01*
X108497896Y-78752539D01*
X108650328Y-78586954D01*
X108773415Y-78398556D01*
X108773418Y-78398551D01*
X108865466Y-78188703D01*
X108867081Y-78189411D01*
X108899750Y-78145926D01*
X108958236Y-78127952D01*
X109016117Y-78147787D01*
X109045274Y-78182811D01*
X109098245Y-78289192D01*
X109132634Y-78358255D01*
X109261128Y-78528407D01*
X109261135Y-78528413D01*
X109418692Y-78672047D01*
X109418699Y-78672053D01*
X109522389Y-78736255D01*
X109599981Y-78784298D01*
X109798802Y-78861321D01*
X110008390Y-78900500D01*
X110221610Y-78900500D01*
X110431198Y-78861321D01*
X110630019Y-78784298D01*
X110811302Y-78672052D01*
X110968872Y-78528407D01*
X111097366Y-78358255D01*
X111192405Y-78167389D01*
X111250756Y-77962310D01*
X111270429Y-77750000D01*
X111499571Y-77750000D01*
X111519244Y-77962310D01*
X111577595Y-78167389D01*
X111672634Y-78358255D01*
X111801128Y-78528407D01*
X111801135Y-78528413D01*
X111958692Y-78672047D01*
X111958699Y-78672053D01*
X112062389Y-78736255D01*
X112139981Y-78784298D01*
X112338802Y-78861321D01*
X112548390Y-78900500D01*
X112761610Y-78900500D01*
X112971198Y-78861321D01*
X113170019Y-78784298D01*
X113351302Y-78672052D01*
X113508872Y-78528407D01*
X113637366Y-78358255D01*
X113732405Y-78167389D01*
X113790756Y-77962310D01*
X113810429Y-77750000D01*
X113790756Y-77537690D01*
X113732405Y-77332611D01*
X113637366Y-77141745D01*
X113508872Y-76971593D01*
X113427978Y-76897848D01*
X113351307Y-76827952D01*
X113351300Y-76827946D01*
X113170024Y-76715705D01*
X113170022Y-76715704D01*
X113170019Y-76715702D01*
X113170017Y-76715701D01*
X113170013Y-76715699D01*
X113163730Y-76713265D01*
X113116302Y-76674610D01*
X113100500Y-76620953D01*
X113100500Y-76242389D01*
X113100500Y-75062231D01*
X113119406Y-75004044D01*
X113140165Y-74982986D01*
X113207546Y-74932546D01*
X113293796Y-74817331D01*
X113301716Y-74796098D01*
X113337337Y-74700591D01*
X113344091Y-74682483D01*
X113350500Y-74622873D01*
X113350499Y-73977128D01*
X113344091Y-73917517D01*
X113329600Y-73878664D01*
X113293797Y-73782670D01*
X113207549Y-73667458D01*
X113207548Y-73667457D01*
X113207546Y-73667454D01*
X113191929Y-73655763D01*
X113092329Y-73581202D01*
X112957488Y-73530910D01*
X112957483Y-73530909D01*
X112957481Y-73530908D01*
X112957477Y-73530908D01*
X112926249Y-73527550D01*
X112897873Y-73524500D01*
X112897870Y-73524500D01*
X112402133Y-73524500D01*
X112402129Y-73524500D01*
X112402128Y-73524501D01*
X112394949Y-73525272D01*
X112342519Y-73530908D01*
X112342514Y-73530909D01*
X112207670Y-73581202D01*
X112092458Y-73667450D01*
X112092450Y-73667458D01*
X112006202Y-73782670D01*
X111955910Y-73917511D01*
X111955908Y-73917522D01*
X111952408Y-73950077D01*
X111949656Y-73975681D01*
X111949500Y-73977129D01*
X111949500Y-74622866D01*
X111949501Y-74622870D01*
X111955908Y-74682480D01*
X111955909Y-74682485D01*
X112006202Y-74817329D01*
X112072474Y-74905856D01*
X112092454Y-74932546D01*
X112159829Y-74982982D01*
X112195082Y-75032990D01*
X112199500Y-75062235D01*
X112199500Y-76624827D01*
X112180593Y-76683018D01*
X112143179Y-76711860D01*
X112144077Y-76713663D01*
X112139975Y-76715705D01*
X111958699Y-76827946D01*
X111958692Y-76827952D01*
X111801135Y-76971586D01*
X111801131Y-76971589D01*
X111801128Y-76971593D01*
X111801124Y-76971597D01*
X111801125Y-76971597D01*
X111672635Y-77141743D01*
X111672630Y-77141752D01*
X111577596Y-77332608D01*
X111519244Y-77537688D01*
X111519243Y-77537690D01*
X111519244Y-77537690D01*
X111499571Y-77750000D01*
X111270429Y-77750000D01*
X111250756Y-77537690D01*
X111192405Y-77332611D01*
X111097366Y-77141745D01*
X110968872Y-76971593D01*
X110887978Y-76897848D01*
X110811307Y-76827952D01*
X110811300Y-76827946D01*
X110630024Y-76715705D01*
X110630019Y-76715702D01*
X110545651Y-76683018D01*
X110431198Y-76638679D01*
X110431197Y-76638678D01*
X110431195Y-76638678D01*
X110221610Y-76599500D01*
X110008390Y-76599500D01*
X109836113Y-76631703D01*
X109775438Y-76623810D01*
X109747918Y-76604393D01*
X107779496Y-74635971D01*
X107751719Y-74581454D01*
X107750500Y-74565967D01*
X107750500Y-72454274D01*
X108037000Y-72454274D01*
X108039853Y-72484694D01*
X108039855Y-72484703D01*
X108084707Y-72612883D01*
X108165345Y-72722144D01*
X108165347Y-72722146D01*
X108165350Y-72722150D01*
X108165353Y-72722152D01*
X108165355Y-72722154D01*
X108274616Y-72802792D01*
X108274617Y-72802792D01*
X108274618Y-72802793D01*
X108402801Y-72847646D01*
X108433225Y-72850499D01*
X108433227Y-72850500D01*
X108433234Y-72850500D01*
X109566773Y-72850500D01*
X109566773Y-72850499D01*
X109597199Y-72847646D01*
X109725382Y-72802793D01*
X109834650Y-72722150D01*
X109915293Y-72612882D01*
X109960146Y-72484699D01*
X109962999Y-72454273D01*
X109963000Y-72454273D01*
X109963000Y-72045726D01*
X109962999Y-72045725D01*
X109960146Y-72015305D01*
X109960146Y-72015301D01*
X109915293Y-71887118D01*
X109911514Y-71881998D01*
X109834654Y-71777855D01*
X109834652Y-71777853D01*
X109834650Y-71777850D01*
X109834646Y-71777847D01*
X109834644Y-71777845D01*
X109725383Y-71697207D01*
X109597203Y-71652355D01*
X109597194Y-71652353D01*
X109566774Y-71649500D01*
X109566766Y-71649500D01*
X108433234Y-71649500D01*
X108433225Y-71649500D01*
X108402805Y-71652353D01*
X108402796Y-71652355D01*
X108274616Y-71697207D01*
X108165355Y-71777845D01*
X108165345Y-71777855D01*
X108084707Y-71887116D01*
X108039855Y-72015296D01*
X108039853Y-72015305D01*
X108037000Y-72045725D01*
X108037000Y-72454274D01*
X107750500Y-72454274D01*
X107750500Y-71909396D01*
X107750611Y-71906153D01*
X107752762Y-71843174D01*
X107742127Y-71799537D01*
X107741185Y-71794578D01*
X107735070Y-71750080D01*
X107727066Y-71731654D01*
X107721687Y-71715660D01*
X107716933Y-71696148D01*
X107694923Y-71657004D01*
X107692676Y-71652480D01*
X107683386Y-71631093D01*
X107674783Y-71611285D01*
X107674777Y-71611276D01*
X107662109Y-71595706D01*
X107652606Y-71581744D01*
X107642766Y-71564243D01*
X107642765Y-71564241D01*
X107632524Y-71554000D01*
X110107507Y-71554000D01*
X110153818Y-71713399D01*
X110238446Y-71856499D01*
X110292225Y-71910279D01*
X110320002Y-71964796D01*
X110315992Y-72009384D01*
X110316139Y-72009417D01*
X110315884Y-72010581D01*
X110315670Y-72012968D01*
X110314853Y-72015302D01*
X110312000Y-72045725D01*
X110312000Y-72454274D01*
X110314853Y-72484694D01*
X110314855Y-72484703D01*
X110359707Y-72612883D01*
X110440345Y-72722144D01*
X110440347Y-72722146D01*
X110440350Y-72722150D01*
X110440353Y-72722152D01*
X110440355Y-72722154D01*
X110549616Y-72802792D01*
X110549617Y-72802792D01*
X110549618Y-72802793D01*
X110677801Y-72847646D01*
X110708225Y-72850499D01*
X110708227Y-72850500D01*
X110708234Y-72850500D01*
X111841773Y-72850500D01*
X111841773Y-72850499D01*
X111872199Y-72847646D01*
X111991056Y-72806056D01*
X112023755Y-72800500D01*
X112724335Y-72800500D01*
X113380553Y-72800500D01*
X113446776Y-72802762D01*
X113490400Y-72792130D01*
X113495366Y-72791185D01*
X113539870Y-72785070D01*
X113558289Y-72777068D01*
X113574287Y-72771687D01*
X113593802Y-72766933D01*
X113632954Y-72744918D01*
X113637461Y-72742679D01*
X113678670Y-72724780D01*
X113694248Y-72712105D01*
X113708207Y-72702606D01*
X113725705Y-72692768D01*
X113725704Y-72692768D01*
X113725709Y-72692766D01*
X113757479Y-72660994D01*
X113761225Y-72657615D01*
X113796058Y-72629278D01*
X113807637Y-72612872D01*
X113818514Y-72599960D01*
X114255497Y-72162978D01*
X114310013Y-72135201D01*
X114370445Y-72144772D01*
X114413710Y-72188037D01*
X114424500Y-72232982D01*
X114424500Y-73355966D01*
X114405593Y-73414157D01*
X114395504Y-73425970D01*
X114325970Y-73495504D01*
X114271453Y-73523281D01*
X114255966Y-73524500D01*
X114052131Y-73524500D01*
X114052129Y-73524500D01*
X114052128Y-73524501D01*
X114044949Y-73525272D01*
X113992519Y-73530908D01*
X113992514Y-73530909D01*
X113857670Y-73581202D01*
X113742458Y-73667450D01*
X113742450Y-73667458D01*
X113656202Y-73782670D01*
X113605910Y-73917511D01*
X113605908Y-73917522D01*
X113602408Y-73950077D01*
X113599656Y-73975681D01*
X113599500Y-73977129D01*
X113599500Y-74622866D01*
X113599501Y-74622870D01*
X113605908Y-74682480D01*
X113605909Y-74682485D01*
X113656202Y-74817329D01*
X113722474Y-74905856D01*
X113742454Y-74932546D01*
X113742457Y-74932548D01*
X113742458Y-74932549D01*
X113857670Y-75018797D01*
X113992511Y-75069089D01*
X113992512Y-75069089D01*
X113992517Y-75069091D01*
X114052127Y-75075500D01*
X114547872Y-75075499D01*
X114607483Y-75069091D01*
X114704275Y-75032990D01*
X114742329Y-75018797D01*
X114742329Y-75018796D01*
X114742331Y-75018796D01*
X114857546Y-74932546D01*
X114943796Y-74817331D01*
X114951716Y-74796098D01*
X114987337Y-74700591D01*
X114994091Y-74682483D01*
X115000500Y-74622873D01*
X115000499Y-74419030D01*
X115019406Y-74360841D01*
X115029489Y-74349033D01*
X115357603Y-74020920D01*
X115406044Y-73975680D01*
X115429383Y-73937298D01*
X115432229Y-73933118D01*
X115459361Y-73897342D01*
X115466727Y-73878660D01*
X115474239Y-73863537D01*
X115484672Y-73846382D01*
X115496790Y-73803130D01*
X115498397Y-73798348D01*
X115514876Y-73756564D01*
X115516929Y-73736585D01*
X115520082Y-73720004D01*
X115525499Y-73700668D01*
X115525500Y-73700666D01*
X115525500Y-73655763D01*
X115525760Y-73650698D01*
X115527006Y-73638568D01*
X115530352Y-73606028D01*
X115526939Y-73586231D01*
X115525500Y-73569412D01*
X115525500Y-69184397D01*
X115525500Y-69184396D01*
X115527762Y-69118174D01*
X115517127Y-69074537D01*
X115516185Y-69069578D01*
X115510070Y-69025080D01*
X115502066Y-69006654D01*
X115496687Y-68990660D01*
X115491933Y-68971148D01*
X115469923Y-68932004D01*
X115467676Y-68927480D01*
X115459752Y-68909238D01*
X115449783Y-68886285D01*
X115449777Y-68886276D01*
X115437109Y-68870706D01*
X115427606Y-68856744D01*
X115417766Y-68839243D01*
X115417765Y-68839241D01*
X115386011Y-68807487D01*
X115382614Y-68803722D01*
X115354277Y-68768891D01*
X115337866Y-68757307D01*
X115324954Y-68746430D01*
X114885140Y-68306615D01*
X114862577Y-68271718D01*
X114861237Y-68268185D01*
X114861237Y-68268182D01*
X114805220Y-68120477D01*
X114715483Y-67990470D01*
X114597240Y-67885717D01*
X114527302Y-67849010D01*
X114457364Y-67812303D01*
X114303987Y-67774500D01*
X114303985Y-67774500D01*
X114146015Y-67774500D01*
X114146012Y-67774500D01*
X113992635Y-67812303D01*
X113852758Y-67885718D01*
X113734515Y-67990471D01*
X113644780Y-68120476D01*
X113588763Y-68268182D01*
X113588762Y-68268183D01*
X113569722Y-68424998D01*
X113569722Y-68425001D01*
X113588762Y-68581816D01*
X113588763Y-68581818D01*
X113630550Y-68692001D01*
X113644780Y-68729523D01*
X113656975Y-68747190D01*
X113674499Y-68803428D01*
X113674499Y-69638154D01*
X113655592Y-69696345D01*
X113635321Y-69717036D01*
X113624924Y-69724920D01*
X113624917Y-69724927D01*
X113598078Y-69760320D01*
X113547851Y-69795262D01*
X113519195Y-69799500D01*
X112023755Y-69799500D01*
X111991057Y-69793944D01*
X111872203Y-69752355D01*
X111872194Y-69752353D01*
X111841774Y-69749500D01*
X111841766Y-69749500D01*
X110708234Y-69749500D01*
X110708225Y-69749500D01*
X110677805Y-69752353D01*
X110677796Y-69752355D01*
X110549616Y-69797207D01*
X110440355Y-69877845D01*
X110440345Y-69877855D01*
X110359707Y-69987116D01*
X110314855Y-70115296D01*
X110314853Y-70115305D01*
X110312000Y-70145725D01*
X110312000Y-70554274D01*
X110314853Y-70584698D01*
X110314853Y-70584699D01*
X110315668Y-70587027D01*
X110315702Y-70588586D01*
X110316139Y-70590583D01*
X110315749Y-70590668D01*
X110317036Y-70648197D01*
X110292226Y-70689719D01*
X110238446Y-70743500D01*
X110153818Y-70886600D01*
X110107507Y-71046000D01*
X112442493Y-71046000D01*
X112437008Y-71027120D01*
X112438930Y-70965965D01*
X112476431Y-70917619D01*
X112532077Y-70900500D01*
X113519195Y-70900500D01*
X113577386Y-70919407D01*
X113598079Y-70939681D01*
X113606283Y-70950500D01*
X113624922Y-70975078D01*
X113635319Y-70982962D01*
X113670261Y-71033188D01*
X113674500Y-71061846D01*
X113674500Y-71145916D01*
X113655593Y-71204107D01*
X113645504Y-71215919D01*
X113190921Y-71670503D01*
X113136404Y-71698281D01*
X113120917Y-71699500D01*
X112532077Y-71699500D01*
X112473886Y-71680593D01*
X112437922Y-71631093D01*
X112437008Y-71572880D01*
X112442493Y-71554000D01*
X110107507Y-71554000D01*
X107632524Y-71554000D01*
X107611011Y-71532487D01*
X107607614Y-71528722D01*
X107594164Y-71512190D01*
X107579278Y-71493892D01*
X107579276Y-71493891D01*
X107579275Y-71493889D01*
X107562869Y-71482308D01*
X107549957Y-71471433D01*
X107348527Y-71270003D01*
X107320750Y-71215486D01*
X107330321Y-71155054D01*
X107348524Y-71129999D01*
X107549028Y-70929496D01*
X107603545Y-70901719D01*
X107619032Y-70900500D01*
X108251245Y-70900500D01*
X108283943Y-70906056D01*
X108402801Y-70947646D01*
X108433225Y-70950499D01*
X108433227Y-70950500D01*
X108433234Y-70950500D01*
X109566773Y-70950500D01*
X109566773Y-70950499D01*
X109597199Y-70947646D01*
X109725382Y-70902793D01*
X109834650Y-70822150D01*
X109915293Y-70712882D01*
X109960146Y-70584699D01*
X109962999Y-70554273D01*
X109963000Y-70554273D01*
X109963000Y-70145726D01*
X109962999Y-70145725D01*
X109961605Y-70130860D01*
X109960146Y-70115301D01*
X109915293Y-69987118D01*
X109903192Y-69970722D01*
X109834654Y-69877855D01*
X109834652Y-69877853D01*
X109834650Y-69877850D01*
X109834646Y-69877847D01*
X109834644Y-69877845D01*
X109725383Y-69797207D01*
X109597203Y-69752355D01*
X109597194Y-69752353D01*
X109566774Y-69749500D01*
X109566766Y-69749500D01*
X108433234Y-69749500D01*
X108433225Y-69749500D01*
X108402805Y-69752353D01*
X108402796Y-69752355D01*
X108283943Y-69793944D01*
X108251245Y-69799500D01*
X107359427Y-69799500D01*
X107293175Y-69797237D01*
X107293167Y-69797237D01*
X107252806Y-69807073D01*
X107249545Y-69807868D01*
X107244566Y-69808814D01*
X107200081Y-69814929D01*
X107200073Y-69814931D01*
X107181655Y-69822931D01*
X107165663Y-69828309D01*
X107146155Y-69833063D01*
X107146146Y-69833067D01*
X107106998Y-69855076D01*
X107102460Y-69857330D01*
X107061278Y-69875221D01*
X107053195Y-69881797D01*
X106996123Y-69903852D01*
X106990720Y-69904000D01*
X105517000Y-69904000D01*
X105517000Y-69923851D01*
X105527255Y-70024232D01*
X105581153Y-70186886D01*
X105581154Y-70186888D01*
X105671108Y-70332726D01*
X105792275Y-70453893D01*
X105831255Y-70477936D01*
X105870857Y-70524577D01*
X105875480Y-70585587D01*
X105858167Y-70622016D01*
X105787637Y-70715023D01*
X105787634Y-70715027D01*
X105734641Y-70849408D01*
X105724500Y-70933851D01*
X105724500Y-71466148D01*
X105734641Y-71550591D01*
X105787634Y-71684972D01*
X105787635Y-71684974D01*
X105787636Y-71684975D01*
X105874922Y-71800078D01*
X105990025Y-71887364D01*
X105990026Y-71887364D01*
X105990027Y-71887365D01*
X106037670Y-71906153D01*
X106124410Y-71940359D01*
X106208856Y-71950500D01*
X106430968Y-71950500D01*
X106489159Y-71969407D01*
X106500972Y-71979496D01*
X106620504Y-72099028D01*
X106648281Y-72153545D01*
X106649500Y-72169032D01*
X106649500Y-74825602D01*
X106647238Y-74891826D01*
X106657161Y-74932547D01*
X106657867Y-74935441D01*
X106658814Y-74940423D01*
X106664930Y-74984921D01*
X106664930Y-74984922D01*
X106672931Y-75003341D01*
X106678313Y-75019345D01*
X106683065Y-75038846D01*
X106683068Y-75038854D01*
X106705075Y-75077995D01*
X106707331Y-75082536D01*
X106725220Y-75123721D01*
X106737891Y-75139295D01*
X106747391Y-75153253D01*
X106757232Y-75170757D01*
X106788992Y-75202518D01*
X106792387Y-75206280D01*
X106820722Y-75241108D01*
X106837124Y-75252686D01*
X106850036Y-75263561D01*
X107846668Y-76260193D01*
X107874445Y-76314710D01*
X107864874Y-76375142D01*
X107840647Y-76405743D01*
X107829000Y-76415607D01*
X107829000Y-77167125D01*
X107810093Y-77225316D01*
X107760593Y-77261280D01*
X107715911Y-77265117D01*
X107610768Y-77250000D01*
X107610763Y-77250000D01*
X107539237Y-77250000D01*
X107539232Y-77250000D01*
X107434089Y-77265117D01*
X107373800Y-77254684D01*
X107331157Y-77210806D01*
X107321000Y-77167125D01*
X107321000Y-76415607D01*
X107320999Y-76415607D01*
X107240489Y-76429042D01*
X107027624Y-76502119D01*
X106829698Y-76609232D01*
X106829695Y-76609234D01*
X106652103Y-76747460D01*
X106499671Y-76913045D01*
X106376584Y-77101443D01*
X106376581Y-77101448D01*
X106284534Y-77311297D01*
X106282934Y-77310595D01*
X106250185Y-77354117D01*
X106191686Y-77372046D01*
X106133820Y-77352165D01*
X106104725Y-77317188D01*
X106100940Y-77309587D01*
X106017366Y-77141745D01*
X105888872Y-76971593D01*
X105827949Y-76916054D01*
X105731303Y-76827948D01*
X105731300Y-76827946D01*
X105647383Y-76775986D01*
X105607862Y-76729277D01*
X105600500Y-76691815D01*
X105600500Y-75055804D01*
X105619407Y-74997613D01*
X105639681Y-74976920D01*
X105641079Y-74975860D01*
X105675078Y-74950078D01*
X105762364Y-74834975D01*
X105815359Y-74700590D01*
X105825500Y-74616144D01*
X105825500Y-74083856D01*
X105815359Y-73999410D01*
X105762364Y-73865025D01*
X105762363Y-73865023D01*
X105762362Y-73865022D01*
X105699911Y-73782669D01*
X105691832Y-73772016D01*
X105671737Y-73714226D01*
X105689448Y-73655660D01*
X105718745Y-73627936D01*
X105757722Y-73603894D01*
X105757723Y-73603894D01*
X105878891Y-73482726D01*
X105968845Y-73336888D01*
X105968846Y-73336886D01*
X106022744Y-73174232D01*
X106033000Y-73073851D01*
X106033000Y-73054001D01*
X106032999Y-73054000D01*
X104067000Y-73054000D01*
X104067000Y-73073851D01*
X104077255Y-73174232D01*
X104131153Y-73336886D01*
X104131154Y-73336888D01*
X104221108Y-73482726D01*
X104342275Y-73603893D01*
X104381255Y-73627936D01*
X104420857Y-73674577D01*
X104425480Y-73735587D01*
X104408167Y-73772016D01*
X104337637Y-73865023D01*
X104337634Y-73865027D01*
X104284641Y-73999408D01*
X104274500Y-74083851D01*
X104274500Y-74616148D01*
X104284641Y-74700591D01*
X104337634Y-74834972D01*
X104337635Y-74834974D01*
X104337636Y-74834975D01*
X104424922Y-74950078D01*
X104439698Y-74961283D01*
X104460319Y-74976920D01*
X104495261Y-75027146D01*
X104499500Y-75055804D01*
X104499500Y-76673240D01*
X104480593Y-76731431D01*
X104452617Y-76757411D01*
X104338699Y-76827946D01*
X104338696Y-76827948D01*
X104181135Y-76971586D01*
X104181131Y-76971589D01*
X104181128Y-76971593D01*
X104181124Y-76971597D01*
X104181125Y-76971597D01*
X104052635Y-77141743D01*
X104052630Y-77141752D01*
X103957596Y-77332608D01*
X103899244Y-77537688D01*
X103899243Y-77537690D01*
X103899244Y-77537690D01*
X103879571Y-77750000D01*
X101400500Y-77750000D01*
X101400500Y-72545999D01*
X104067000Y-72545999D01*
X104067001Y-72546000D01*
X104795999Y-72546000D01*
X104796000Y-72545999D01*
X105304000Y-72545999D01*
X105304001Y-72546000D01*
X106032999Y-72546000D01*
X106033000Y-72545999D01*
X106033000Y-72526148D01*
X106022744Y-72425767D01*
X105968846Y-72263113D01*
X105968845Y-72263111D01*
X105878891Y-72117273D01*
X105757726Y-71996108D01*
X105611888Y-71906154D01*
X105611886Y-71906153D01*
X105449232Y-71852255D01*
X105348852Y-71842000D01*
X105304001Y-71842000D01*
X105304000Y-71842001D01*
X105304000Y-72545999D01*
X104796000Y-72545999D01*
X104796000Y-71842001D01*
X104795999Y-71842000D01*
X104751148Y-71842000D01*
X104650767Y-71852255D01*
X104488113Y-71906153D01*
X104488111Y-71906154D01*
X104342273Y-71996108D01*
X104221108Y-72117273D01*
X104131154Y-72263111D01*
X104131153Y-72263113D01*
X104077255Y-72425767D01*
X104067000Y-72526148D01*
X104067000Y-72545999D01*
X101400500Y-72545999D01*
X101400500Y-69570019D01*
X101419407Y-69511828D01*
X101466076Y-69476831D01*
X101691457Y-69395998D01*
X105517000Y-69395998D01*
X105517001Y-69396000D01*
X106245999Y-69396000D01*
X106246000Y-69395998D01*
X106753999Y-69395998D01*
X106754001Y-69396000D01*
X107482999Y-69396000D01*
X107483000Y-69395999D01*
X107483000Y-69376148D01*
X107472744Y-69275767D01*
X107418846Y-69113113D01*
X107418845Y-69113111D01*
X107328891Y-68967273D01*
X107207726Y-68846108D01*
X107061888Y-68756154D01*
X107061886Y-68756153D01*
X106899232Y-68702255D01*
X106798852Y-68692000D01*
X106754001Y-68692000D01*
X106753999Y-68692001D01*
X106753999Y-69395998D01*
X106246000Y-69395998D01*
X106246000Y-68692001D01*
X106245999Y-68692000D01*
X106201148Y-68692000D01*
X106100767Y-68702255D01*
X105938113Y-68756153D01*
X105938111Y-68756154D01*
X105792273Y-68846108D01*
X105671108Y-68967273D01*
X105581154Y-69113111D01*
X105581153Y-69113113D01*
X105527255Y-69275767D01*
X105517000Y-69376148D01*
X105517000Y-69395998D01*
X101691457Y-69395998D01*
X113234127Y-65256223D01*
X113238071Y-65255522D01*
X113248591Y-65251131D01*
X113250032Y-65250590D01*
X113250246Y-65250446D01*
X113250258Y-65250438D01*
X113250262Y-65250437D01*
X113250263Y-65250434D01*
X113250278Y-65250425D01*
X113250284Y-65250424D01*
X113250288Y-65250419D01*
X113250924Y-65250023D01*
X113252503Y-65248426D01*
X113260998Y-65240811D01*
X113263429Y-65237277D01*
X113393623Y-65107083D01*
X113400381Y-65100383D01*
X113400383Y-65100383D01*
X113400383Y-65100381D01*
X113400385Y-65100380D01*
X113400425Y-65100284D01*
X113400541Y-65100002D01*
X113400540Y-65100002D01*
X113400542Y-65100000D01*
X113400541Y-65099997D01*
X113400572Y-65080678D01*
X113400500Y-65080313D01*
X113400582Y-55044860D01*
X113699500Y-55044860D01*
X113699501Y-55044863D01*
X113702414Y-55069990D01*
X113727756Y-55127384D01*
X113747794Y-55172765D01*
X113827235Y-55252206D01*
X113930009Y-55297585D01*
X113955135Y-55300500D01*
X114312387Y-55300499D01*
X114370578Y-55319406D01*
X114382391Y-55329495D01*
X115852503Y-56799607D01*
X115880280Y-56854124D01*
X115881499Y-56869611D01*
X115881500Y-57662458D01*
X115862593Y-57720649D01*
X115813093Y-57756613D01*
X115782516Y-57761458D01*
X115737772Y-57761465D01*
X115737763Y-57761466D01*
X115592790Y-57790322D01*
X115456214Y-57846912D01*
X115456212Y-57846913D01*
X115333310Y-57929050D01*
X115228779Y-58033596D01*
X115146659Y-58156515D01*
X115090090Y-58293094D01*
X115090088Y-58293100D01*
X115061255Y-58438076D01*
X115061254Y-58438087D01*
X115061255Y-58512000D01*
X115061255Y-58574224D01*
X115061300Y-58574905D01*
X115061300Y-58585907D01*
X115061301Y-58585917D01*
X115090133Y-58730885D01*
X115090134Y-58730887D01*
X115090135Y-58730892D01*
X115146699Y-58867464D01*
X115175294Y-58910264D01*
X115223712Y-58982737D01*
X115228817Y-58990377D01*
X115280402Y-59041970D01*
X115308175Y-59096487D01*
X115298599Y-59156918D01*
X115280402Y-59181965D01*
X115228781Y-59233593D01*
X115146659Y-59356515D01*
X115090090Y-59493094D01*
X115090088Y-59493100D01*
X115061255Y-59638076D01*
X115061254Y-59638087D01*
X115061255Y-59712000D01*
X115061255Y-59774224D01*
X115061300Y-59774905D01*
X115061300Y-59785907D01*
X115061301Y-59785917D01*
X115090133Y-59930885D01*
X115090134Y-59930887D01*
X115090135Y-59930892D01*
X115146699Y-60067464D01*
X115228817Y-60190377D01*
X115280402Y-60241970D01*
X115308175Y-60296487D01*
X115298599Y-60356918D01*
X115280402Y-60381965D01*
X115228781Y-60433593D01*
X115146659Y-60556515D01*
X115090090Y-60693094D01*
X115090088Y-60693100D01*
X115061255Y-60838076D01*
X115061254Y-60838087D01*
X115061255Y-60912000D01*
X115061255Y-60974224D01*
X115061300Y-60974905D01*
X115061300Y-60985907D01*
X115061301Y-60985917D01*
X115090133Y-61130885D01*
X115090134Y-61130887D01*
X115090135Y-61130892D01*
X115146699Y-61267464D01*
X115205595Y-61355618D01*
X115228816Y-61390376D01*
X115280398Y-61441966D01*
X115308171Y-61496485D01*
X115298595Y-61556916D01*
X115280401Y-61581959D01*
X115228775Y-61633595D01*
X115146652Y-61756516D01*
X115146651Y-61756518D01*
X115090086Y-61893094D01*
X115090084Y-61893098D01*
X115061249Y-62038078D01*
X115061249Y-62038087D01*
X115061250Y-62112000D01*
X115061250Y-62174180D01*
X115061300Y-62174940D01*
X115061300Y-62185916D01*
X115090133Y-62330886D01*
X115090135Y-62330890D01*
X115146697Y-62467460D01*
X115228814Y-62590373D01*
X115228816Y-62590375D01*
X115228815Y-62590375D01*
X115333328Y-62694905D01*
X115456230Y-62777044D01*
X115456233Y-62777045D01*
X115592787Y-62833628D01*
X115592792Y-62833630D01*
X115665563Y-62848115D01*
X115737765Y-62862488D01*
X115737768Y-62862488D01*
X115737884Y-62862500D01*
X115743848Y-62862500D01*
X115782500Y-62862500D01*
X115840691Y-62881407D01*
X115876655Y-62930907D01*
X115881500Y-62961500D01*
X115881500Y-69732162D01*
X115881189Y-69737708D01*
X115876730Y-69777283D01*
X115876730Y-69777285D01*
X115887788Y-69835728D01*
X115896652Y-69894536D01*
X115898840Y-69901630D01*
X115898417Y-69901760D01*
X115899109Y-69903862D01*
X115899526Y-69903717D01*
X115901975Y-69910717D01*
X115929777Y-69963322D01*
X115955574Y-70016890D01*
X115959753Y-70023019D01*
X115959389Y-70023266D01*
X115960677Y-70025080D01*
X115961030Y-70024820D01*
X115965431Y-70030783D01*
X115965432Y-70030784D01*
X115965434Y-70030787D01*
X115995505Y-70060858D01*
X116023281Y-70115373D01*
X116024500Y-70130860D01*
X116024500Y-76242389D01*
X116005593Y-76300580D01*
X115995503Y-76312393D01*
X115670707Y-76637188D01*
X115616191Y-76664965D01*
X115564942Y-76659499D01*
X115511197Y-76638678D01*
X115301610Y-76599500D01*
X115088390Y-76599500D01*
X114878804Y-76638678D01*
X114679980Y-76715702D01*
X114679975Y-76715705D01*
X114498699Y-76827946D01*
X114498692Y-76827952D01*
X114341135Y-76971586D01*
X114341131Y-76971589D01*
X114341128Y-76971593D01*
X114341124Y-76971597D01*
X114341125Y-76971597D01*
X114212635Y-77141743D01*
X114212630Y-77141752D01*
X114117596Y-77332608D01*
X114059244Y-77537688D01*
X114059243Y-77537690D01*
X114059244Y-77537690D01*
X114039571Y-77750000D01*
X114059244Y-77962310D01*
X114117595Y-78167389D01*
X114212634Y-78358255D01*
X114341128Y-78528407D01*
X114341135Y-78528413D01*
X114498692Y-78672047D01*
X114498699Y-78672053D01*
X114602389Y-78736255D01*
X114679981Y-78784298D01*
X114878802Y-78861321D01*
X115088390Y-78900500D01*
X115301610Y-78900500D01*
X115511198Y-78861321D01*
X115710019Y-78784298D01*
X115891302Y-78672052D01*
X116048872Y-78528407D01*
X116177366Y-78358255D01*
X116272405Y-78167389D01*
X116330756Y-77962310D01*
X116350429Y-77750000D01*
X116330756Y-77537690D01*
X116283251Y-77370730D01*
X116285512Y-77309587D01*
X116308466Y-77273637D01*
X116477217Y-77104886D01*
X116531731Y-77077111D01*
X116592163Y-77086682D01*
X116635428Y-77129947D01*
X116644492Y-77156487D01*
X116649788Y-77184479D01*
X116658652Y-77243287D01*
X116660840Y-77250381D01*
X116660417Y-77250511D01*
X116661113Y-77252624D01*
X116661530Y-77252479D01*
X116662579Y-77255478D01*
X116662617Y-77257194D01*
X116664802Y-77263833D01*
X116665356Y-77266761D01*
X116662841Y-77267236D01*
X116663945Y-77316648D01*
X116657759Y-77332279D01*
X116657597Y-77332602D01*
X116599244Y-77537688D01*
X116599243Y-77537690D01*
X116599244Y-77537690D01*
X116579571Y-77750000D01*
X116599244Y-77962310D01*
X116657595Y-78167389D01*
X116752634Y-78358255D01*
X116881128Y-78528407D01*
X116881135Y-78528413D01*
X117038692Y-78672047D01*
X117038699Y-78672053D01*
X117142389Y-78736255D01*
X117219981Y-78784298D01*
X117418802Y-78861321D01*
X117628390Y-78900500D01*
X117841610Y-78900500D01*
X118051198Y-78861321D01*
X118250019Y-78784298D01*
X118431302Y-78672052D01*
X118588872Y-78528407D01*
X118717366Y-78358255D01*
X118804726Y-78182809D01*
X118847587Y-78139149D01*
X118907928Y-78129019D01*
X118962699Y-78156291D01*
X118983443Y-78189181D01*
X118984534Y-78188703D01*
X119076581Y-78398551D01*
X119076584Y-78398556D01*
X119199671Y-78586954D01*
X119352103Y-78752539D01*
X119529695Y-78890765D01*
X119529698Y-78890767D01*
X119727624Y-78997880D01*
X119940491Y-79070957D01*
X120021000Y-79084392D01*
X120021000Y-78332874D01*
X120039907Y-78274683D01*
X120089407Y-78238719D01*
X120134090Y-78234882D01*
X120239233Y-78250000D01*
X120239237Y-78250000D01*
X120310767Y-78250000D01*
X120415910Y-78234882D01*
X120476199Y-78245315D01*
X120518842Y-78289192D01*
X120529000Y-78332874D01*
X120529000Y-79084392D01*
X120609508Y-79070957D01*
X120822375Y-78997880D01*
X121020301Y-78890767D01*
X121020304Y-78890765D01*
X121197896Y-78752539D01*
X121350328Y-78586954D01*
X121473415Y-78398556D01*
X121473418Y-78398551D01*
X121565466Y-78188703D01*
X121567081Y-78189411D01*
X121599750Y-78145926D01*
X121658236Y-78127952D01*
X121716117Y-78147787D01*
X121745274Y-78182811D01*
X121798245Y-78289192D01*
X121832634Y-78358255D01*
X121961128Y-78528407D01*
X121961135Y-78528413D01*
X122118692Y-78672047D01*
X122118699Y-78672053D01*
X122222389Y-78736255D01*
X122299981Y-78784298D01*
X122498802Y-78861321D01*
X122708390Y-78900500D01*
X122921610Y-78900500D01*
X123131198Y-78861321D01*
X123330019Y-78784298D01*
X123511302Y-78672052D01*
X123668872Y-78528407D01*
X123797366Y-78358255D01*
X123892405Y-78167389D01*
X123950756Y-77962310D01*
X123970429Y-77750000D01*
X123950756Y-77537690D01*
X123892405Y-77332611D01*
X123797366Y-77141745D01*
X123668872Y-76971593D01*
X123587978Y-76897848D01*
X123511307Y-76827952D01*
X123511300Y-76827946D01*
X123330024Y-76715705D01*
X123330022Y-76715704D01*
X123330019Y-76715702D01*
X123330017Y-76715701D01*
X123330013Y-76715699D01*
X123328724Y-76715200D01*
X123328275Y-76714834D01*
X123325923Y-76713663D01*
X123326187Y-76713132D01*
X123281298Y-76676541D01*
X123265500Y-76622890D01*
X123265500Y-74890253D01*
X123284407Y-74832062D01*
X123333907Y-74796098D01*
X123395093Y-74796098D01*
X123444593Y-74832062D01*
X123445976Y-74834015D01*
X123461515Y-74856528D01*
X123461516Y-74856529D01*
X123461517Y-74856530D01*
X123579760Y-74961283D01*
X123719635Y-75034696D01*
X123873015Y-75072500D01*
X123873018Y-75072500D01*
X124030982Y-75072500D01*
X124030985Y-75072500D01*
X124184365Y-75034696D01*
X124324240Y-74961283D01*
X124324242Y-74961280D01*
X124324244Y-74961280D01*
X124409851Y-74885439D01*
X124465945Y-74861003D01*
X124525689Y-74874206D01*
X124566262Y-74920004D01*
X124574500Y-74959541D01*
X124574500Y-75166148D01*
X124584641Y-75250591D01*
X124637634Y-75384972D01*
X124637635Y-75384974D01*
X124637636Y-75384975D01*
X124724922Y-75500078D01*
X124724925Y-75500080D01*
X124760319Y-75526920D01*
X124795261Y-75577146D01*
X124799500Y-75605804D01*
X124799500Y-76685623D01*
X124780593Y-76743814D01*
X124752617Y-76769794D01*
X124658699Y-76827945D01*
X124658696Y-76827948D01*
X124501135Y-76971586D01*
X124501131Y-76971589D01*
X124501128Y-76971593D01*
X124501124Y-76971597D01*
X124501125Y-76971597D01*
X124372635Y-77141743D01*
X124372630Y-77141752D01*
X124277596Y-77332608D01*
X124219244Y-77537688D01*
X124219243Y-77537690D01*
X124219244Y-77537690D01*
X124199571Y-77750000D01*
X124219244Y-77962310D01*
X124277595Y-78167389D01*
X124372634Y-78358255D01*
X124501128Y-78528407D01*
X124501135Y-78528413D01*
X124658692Y-78672047D01*
X124658699Y-78672053D01*
X124762389Y-78736255D01*
X124839981Y-78784298D01*
X125038802Y-78861321D01*
X125248390Y-78900500D01*
X125461610Y-78900500D01*
X125671198Y-78861321D01*
X125870019Y-78784298D01*
X126051302Y-78672052D01*
X126208872Y-78528407D01*
X126337366Y-78358255D01*
X126432405Y-78167389D01*
X126490756Y-77962310D01*
X126510429Y-77750000D01*
X126490756Y-77537690D01*
X126432405Y-77332611D01*
X126337366Y-77141745D01*
X126208872Y-76971593D01*
X126127978Y-76897848D01*
X126051307Y-76827952D01*
X126051300Y-76827946D01*
X125947383Y-76763603D01*
X125907862Y-76716894D01*
X125900500Y-76679432D01*
X125900500Y-75605804D01*
X125919407Y-75547613D01*
X125939681Y-75526920D01*
X125975078Y-75500078D01*
X126062364Y-75384975D01*
X126115359Y-75250590D01*
X126125500Y-75166144D01*
X126125500Y-74633856D01*
X126115359Y-74549410D01*
X126062364Y-74415025D01*
X125975078Y-74299922D01*
X125859975Y-74212636D01*
X125859970Y-74212634D01*
X125859969Y-74212633D01*
X125857590Y-74211295D01*
X125856163Y-74209746D01*
X125854579Y-74208545D01*
X125854794Y-74208260D01*
X125816133Y-74166296D01*
X125809044Y-74105522D01*
X125839030Y-74052189D01*
X125857590Y-74038705D01*
X125859966Y-74037367D01*
X125859975Y-74037364D01*
X125975078Y-73950078D01*
X126062364Y-73834975D01*
X126086821Y-73772956D01*
X126125756Y-73725761D01*
X126184998Y-73710464D01*
X126241917Y-73732910D01*
X126248919Y-73739272D01*
X126858674Y-74349027D01*
X127415503Y-74905856D01*
X127443280Y-74960373D01*
X127444499Y-74975860D01*
X127444499Y-76622890D01*
X127425592Y-76681081D01*
X127383854Y-76713215D01*
X127384077Y-76713663D01*
X127381802Y-76714795D01*
X127381281Y-76715197D01*
X127379995Y-76715695D01*
X127379975Y-76715705D01*
X127198699Y-76827946D01*
X127198692Y-76827952D01*
X127041135Y-76971586D01*
X127041131Y-76971589D01*
X127041128Y-76971593D01*
X127041124Y-76971597D01*
X127041125Y-76971597D01*
X126912635Y-77141743D01*
X126912630Y-77141752D01*
X126817596Y-77332608D01*
X126759244Y-77537688D01*
X126759243Y-77537690D01*
X126759244Y-77537690D01*
X126739571Y-77750000D01*
X126759244Y-77962310D01*
X126817595Y-78167389D01*
X126912634Y-78358255D01*
X127041128Y-78528407D01*
X127041135Y-78528413D01*
X127198692Y-78672047D01*
X127198699Y-78672053D01*
X127302389Y-78736255D01*
X127379981Y-78784298D01*
X127578802Y-78861321D01*
X127788390Y-78900500D01*
X128001610Y-78900500D01*
X128211198Y-78861321D01*
X128410019Y-78784298D01*
X128591302Y-78672052D01*
X128748872Y-78528407D01*
X128877366Y-78358255D01*
X128972405Y-78167389D01*
X129030756Y-77962310D01*
X129050429Y-77750000D01*
X129030756Y-77537690D01*
X128972405Y-77332611D01*
X128877366Y-77141745D01*
X128748872Y-76971593D01*
X128667978Y-76897848D01*
X128591307Y-76827952D01*
X128591300Y-76827946D01*
X128410024Y-76715705D01*
X128410023Y-76715704D01*
X128410019Y-76715702D01*
X128408727Y-76715201D01*
X128408279Y-76714836D01*
X128405923Y-76713663D01*
X128406187Y-76713131D01*
X128361300Y-76676546D01*
X128345499Y-76622890D01*
X128345499Y-76242389D01*
X128345499Y-75091607D01*
X128364406Y-75033419D01*
X128413906Y-74997455D01*
X128475092Y-74997455D01*
X128514503Y-75021606D01*
X129955504Y-76462607D01*
X129983281Y-76517124D01*
X129984500Y-76532611D01*
X129984500Y-76622890D01*
X129965593Y-76681081D01*
X129923854Y-76713215D01*
X129924077Y-76713663D01*
X129921799Y-76714797D01*
X129921276Y-76715200D01*
X129919986Y-76715699D01*
X129919975Y-76715705D01*
X129738699Y-76827946D01*
X129738692Y-76827952D01*
X129581135Y-76971586D01*
X129581131Y-76971589D01*
X129581128Y-76971593D01*
X129581124Y-76971597D01*
X129581125Y-76971597D01*
X129452635Y-77141743D01*
X129452630Y-77141752D01*
X129357596Y-77332608D01*
X129299244Y-77537688D01*
X129299243Y-77537690D01*
X129299244Y-77537690D01*
X129279571Y-77750000D01*
X129299244Y-77962310D01*
X129357595Y-78167389D01*
X129452634Y-78358255D01*
X129581128Y-78528407D01*
X129581135Y-78528413D01*
X129738692Y-78672047D01*
X129738699Y-78672053D01*
X129842389Y-78736255D01*
X129919981Y-78784298D01*
X130118802Y-78861321D01*
X130328390Y-78900500D01*
X130541610Y-78900500D01*
X130751198Y-78861321D01*
X130950019Y-78784298D01*
X131131302Y-78672052D01*
X131288872Y-78528407D01*
X131417366Y-78358255D01*
X131512405Y-78167389D01*
X131570756Y-77962310D01*
X131590429Y-77750000D01*
X131570756Y-77537690D01*
X131512405Y-77332611D01*
X131417366Y-77141745D01*
X131349193Y-77051470D01*
X131329213Y-76993639D01*
X131347041Y-76935109D01*
X131358178Y-76921821D01*
X131363948Y-76916051D01*
X131418460Y-76888277D01*
X131478892Y-76897848D01*
X131503951Y-76916054D01*
X131795504Y-77207607D01*
X131823281Y-77262124D01*
X131824500Y-77277611D01*
X131824500Y-78644860D01*
X131824501Y-78644863D01*
X131827414Y-78669990D01*
X131828325Y-78672053D01*
X131872794Y-78772765D01*
X131952235Y-78852206D01*
X132055009Y-78897585D01*
X132080135Y-78900500D01*
X133869864Y-78900499D01*
X133894991Y-78897585D01*
X133997765Y-78852206D01*
X134077206Y-78772765D01*
X134122585Y-78669991D01*
X134125500Y-78644865D01*
X134125499Y-76855136D01*
X134122585Y-76830009D01*
X134077206Y-76727235D01*
X133997765Y-76647794D01*
X133894991Y-76602415D01*
X133894990Y-76602414D01*
X133894988Y-76602414D01*
X133869869Y-76599500D01*
X133869865Y-76599500D01*
X132502612Y-76599500D01*
X132444421Y-76580593D01*
X132432608Y-76570504D01*
X126474106Y-70612001D01*
X127106722Y-70612001D01*
X127125762Y-70768816D01*
X127125763Y-70768818D01*
X127170432Y-70886600D01*
X127181780Y-70916523D01*
X127271515Y-71046528D01*
X127271516Y-71046529D01*
X127271517Y-71046530D01*
X127389760Y-71151283D01*
X127529635Y-71224696D01*
X127591137Y-71239854D01*
X127637447Y-71265972D01*
X128890079Y-72518603D01*
X128935320Y-72567044D01*
X128973687Y-72590377D01*
X128977881Y-72593230D01*
X129013657Y-72620361D01*
X129013659Y-72620362D01*
X129013661Y-72620363D01*
X129032343Y-72627730D01*
X129047460Y-72635238D01*
X129064618Y-72645672D01*
X129064620Y-72645673D01*
X129081911Y-72650517D01*
X129107863Y-72657788D01*
X129112652Y-72659399D01*
X129154435Y-72675876D01*
X129174418Y-72677929D01*
X129190989Y-72681079D01*
X129210335Y-72686500D01*
X129255243Y-72686500D01*
X129260308Y-72686760D01*
X129271358Y-72687895D01*
X129304971Y-72691351D01*
X129323030Y-72688237D01*
X129324762Y-72687939D01*
X129341581Y-72686500D01*
X130342050Y-72686500D01*
X130400241Y-72705407D01*
X130420933Y-72725680D01*
X130449133Y-72762867D01*
X130562868Y-72849115D01*
X130562869Y-72849115D01*
X130562870Y-72849116D01*
X130566380Y-72850500D01*
X130695654Y-72901479D01*
X130779098Y-72911500D01*
X130779100Y-72911500D01*
X131297900Y-72911500D01*
X131297902Y-72911500D01*
X131381346Y-72901479D01*
X131514132Y-72849115D01*
X131627867Y-72762867D01*
X131627867Y-72762866D01*
X131633263Y-72758775D01*
X131634253Y-72760081D01*
X131681419Y-72736042D01*
X131741853Y-72745605D01*
X131781179Y-72781847D01*
X131820795Y-72846073D01*
X131940928Y-72966206D01*
X132085517Y-73055391D01*
X132246790Y-73108831D01*
X132346319Y-73118999D01*
X132359500Y-73118998D01*
X132359500Y-73118997D01*
X132867500Y-73118997D01*
X132867501Y-73118999D01*
X132880680Y-73118999D01*
X132980203Y-73108832D01*
X132980215Y-73108829D01*
X133141482Y-73055391D01*
X133286071Y-72966206D01*
X133406206Y-72846071D01*
X133495391Y-72701482D01*
X133548831Y-72540209D01*
X133559000Y-72440680D01*
X133558999Y-72390000D01*
X132867501Y-72390000D01*
X132867500Y-72390001D01*
X132867500Y-73118997D01*
X132359500Y-73118997D01*
X132359500Y-71153000D01*
X132867500Y-71153000D01*
X132867500Y-71881999D01*
X132867501Y-71882000D01*
X133558998Y-71882000D01*
X133558999Y-71881998D01*
X133558999Y-71831319D01*
X133548832Y-71731796D01*
X133548829Y-71731784D01*
X133495391Y-71570517D01*
X133406206Y-71425928D01*
X133286071Y-71305793D01*
X133141482Y-71216608D01*
X132980209Y-71163168D01*
X132880681Y-71153000D01*
X132867500Y-71153000D01*
X132359500Y-71153000D01*
X132359499Y-71152999D01*
X132346338Y-71153000D01*
X132246787Y-71163169D01*
X132246784Y-71163170D01*
X132085517Y-71216608D01*
X131940928Y-71305793D01*
X131820795Y-71425926D01*
X131781179Y-71490152D01*
X131734537Y-71529753D01*
X131673526Y-71534375D01*
X131634047Y-71512190D01*
X131633263Y-71513225D01*
X131571183Y-71466148D01*
X131514132Y-71422885D01*
X131514131Y-71422884D01*
X131514129Y-71422883D01*
X131381348Y-71370521D01*
X131297904Y-71360500D01*
X131297902Y-71360500D01*
X130779098Y-71360500D01*
X130779095Y-71360500D01*
X130695651Y-71370521D01*
X130562870Y-71422883D01*
X130562866Y-71422886D01*
X130449136Y-71509130D01*
X130449130Y-71509136D01*
X130420934Y-71546319D01*
X130370707Y-71581262D01*
X130342050Y-71585500D01*
X129555032Y-71585500D01*
X129496841Y-71566593D01*
X129485028Y-71556504D01*
X128955644Y-71027120D01*
X128422139Y-70493614D01*
X128399576Y-70458715D01*
X128398237Y-70455183D01*
X128398237Y-70455182D01*
X128342220Y-70307477D01*
X128258984Y-70186888D01*
X128252484Y-70177471D01*
X128199871Y-70130860D01*
X128134240Y-70072717D01*
X128054350Y-70030787D01*
X127994364Y-69999303D01*
X127840987Y-69961500D01*
X127840985Y-69961500D01*
X127683015Y-69961500D01*
X127683012Y-69961500D01*
X127529635Y-69999303D01*
X127389758Y-70072718D01*
X127271515Y-70177471D01*
X127181780Y-70307476D01*
X127125763Y-70455182D01*
X127125762Y-70455183D01*
X127106722Y-70611998D01*
X127106722Y-70612001D01*
X126474106Y-70612001D01*
X122259496Y-66397391D01*
X122231719Y-66342874D01*
X122230500Y-66327387D01*
X122230500Y-62988787D01*
X122249407Y-62930596D01*
X122298907Y-62894632D01*
X122360093Y-62894632D01*
X122383019Y-62905500D01*
X122389947Y-62909953D01*
X122461311Y-62930907D01*
X122528035Y-62950499D01*
X122528036Y-62950499D01*
X122528039Y-62950500D01*
X122528041Y-62950500D01*
X122671959Y-62950500D01*
X122671961Y-62950500D01*
X122810053Y-62909953D01*
X122931128Y-62832143D01*
X123025377Y-62723373D01*
X123085165Y-62592457D01*
X123105647Y-62450000D01*
X123085165Y-62307543D01*
X123025377Y-62176627D01*
X122931128Y-62067857D01*
X122931127Y-62067856D01*
X122931126Y-62067855D01*
X122810057Y-61990049D01*
X122810054Y-61990047D01*
X122810053Y-61990047D01*
X122802571Y-61987850D01*
X122671964Y-61949500D01*
X122671961Y-61949500D01*
X122528039Y-61949500D01*
X122528035Y-61949500D01*
X122389949Y-61990046D01*
X122389939Y-61990050D01*
X122383021Y-61994497D01*
X122323846Y-62010050D01*
X122266830Y-61987850D01*
X122233752Y-61936377D01*
X122230500Y-61911212D01*
X122230500Y-59361514D01*
X122249407Y-59303323D01*
X122298907Y-59267359D01*
X122329492Y-59262514D01*
X122375457Y-59262512D01*
X122520449Y-59233664D01*
X122657027Y-59177085D01*
X122779943Y-59094949D01*
X122884475Y-58990412D01*
X122966604Y-58867491D01*
X123023176Y-58730910D01*
X123052016Y-58585917D01*
X123052016Y-58512000D01*
X123052016Y-58452691D01*
X123052016Y-58449559D01*
X123052000Y-58449312D01*
X123052000Y-58438087D01*
X123051999Y-58438080D01*
X123051998Y-58438076D01*
X123023161Y-58293095D01*
X122966590Y-58156516D01*
X122884462Y-58033598D01*
X122866292Y-58015427D01*
X122779934Y-57929063D01*
X122657016Y-57846927D01*
X122520446Y-57790351D01*
X122520443Y-57790350D01*
X122375451Y-57761503D01*
X122372854Y-57761503D01*
X122372807Y-57761500D01*
X122369418Y-57761500D01*
X122329500Y-57761500D01*
X122271309Y-57742593D01*
X122235345Y-57693093D01*
X122230500Y-57662500D01*
X122230500Y-55399499D01*
X122249407Y-55341308D01*
X122298907Y-55305344D01*
X122329500Y-55300499D01*
X122544861Y-55300499D01*
X122544864Y-55300499D01*
X122569991Y-55297585D01*
X122672765Y-55252206D01*
X122752206Y-55172765D01*
X122797585Y-55069991D01*
X122800500Y-55044865D01*
X122800499Y-52055136D01*
X122797585Y-52030009D01*
X122752206Y-51927235D01*
X122672765Y-51847794D01*
X122569991Y-51802415D01*
X122569990Y-51802414D01*
X122569988Y-51802414D01*
X122544868Y-51799500D01*
X121655139Y-51799500D01*
X121655136Y-51799501D01*
X121630007Y-51802415D01*
X121589986Y-51820086D01*
X121529116Y-51826294D01*
X121510016Y-51820087D01*
X121469991Y-51802415D01*
X121469990Y-51802414D01*
X121469988Y-51802414D01*
X121444868Y-51799500D01*
X120555139Y-51799500D01*
X120555136Y-51799501D01*
X120530007Y-51802415D01*
X120489986Y-51820086D01*
X120429116Y-51826294D01*
X120410016Y-51820087D01*
X120369991Y-51802415D01*
X120369990Y-51802414D01*
X120369988Y-51802414D01*
X120344869Y-51799500D01*
X120344865Y-51799500D01*
X119592155Y-51799500D01*
X119533964Y-51780593D01*
X119501781Y-51736297D01*
X119500593Y-51736822D01*
X119498161Y-51731315D01*
X119498000Y-51731093D01*
X119497868Y-51730651D01*
X119496165Y-51726793D01*
X119452206Y-51627235D01*
X119372765Y-51547794D01*
X119269991Y-51502415D01*
X119269990Y-51502414D01*
X119269988Y-51502414D01*
X119244868Y-51499500D01*
X118355139Y-51499500D01*
X118355136Y-51499501D01*
X118330009Y-51502414D01*
X118227234Y-51547793D01*
X118227235Y-51547794D01*
X118147794Y-51627235D01*
X118102415Y-51730009D01*
X118102414Y-51730011D01*
X118099408Y-51736821D01*
X118097236Y-51735862D01*
X118069846Y-51777681D01*
X118012638Y-51799384D01*
X118007845Y-51799500D01*
X117255139Y-51799500D01*
X117255136Y-51799501D01*
X117230009Y-51802414D01*
X117127235Y-51847794D01*
X117047794Y-51927235D01*
X117002414Y-52030011D01*
X116999500Y-52055130D01*
X116999500Y-52055132D01*
X116999501Y-54765000D01*
X116980594Y-54823191D01*
X116931094Y-54859155D01*
X116900501Y-54864000D01*
X116299500Y-54864000D01*
X116241309Y-54845093D01*
X116205345Y-54795593D01*
X116200500Y-54765000D01*
X116200499Y-52055139D01*
X116200499Y-52055136D01*
X116197585Y-52030009D01*
X116152206Y-51927235D01*
X116072765Y-51847794D01*
X115969991Y-51802415D01*
X115969990Y-51802414D01*
X115969988Y-51802414D01*
X115944868Y-51799500D01*
X115055139Y-51799500D01*
X115055136Y-51799501D01*
X115030007Y-51802415D01*
X114989986Y-51820086D01*
X114929116Y-51826294D01*
X114910016Y-51820087D01*
X114869991Y-51802415D01*
X114869990Y-51802414D01*
X114869988Y-51802414D01*
X114844868Y-51799500D01*
X113955139Y-51799500D01*
X113955136Y-51799501D01*
X113930009Y-51802414D01*
X113827235Y-51847794D01*
X113747794Y-51927235D01*
X113702414Y-52030011D01*
X113699500Y-52055130D01*
X113699500Y-55044860D01*
X113400582Y-55044860D01*
X113400608Y-51854310D01*
X113401236Y-51852379D01*
X113400649Y-51815703D01*
X113400810Y-51810841D01*
X113403507Y-51778267D01*
X113415444Y-51655353D01*
X113418861Y-51637476D01*
X113435732Y-51579037D01*
X113465116Y-51491414D01*
X113471126Y-51477259D01*
X113501763Y-51418335D01*
X113503448Y-51415357D01*
X113550303Y-51338992D01*
X113553919Y-51333862D01*
X113599112Y-51277736D01*
X113602346Y-51274103D01*
X113664279Y-51211135D01*
X113667815Y-51207878D01*
X113723228Y-51161725D01*
X113728265Y-51158047D01*
X113803835Y-51109937D01*
X113806826Y-51108178D01*
X113865208Y-51076582D01*
X113879267Y-51070336D01*
X113966395Y-51039500D01*
X114024547Y-51021663D01*
X114042353Y-51017951D01*
X114165064Y-51003977D01*
X114193867Y-51001110D01*
X114197550Y-51000744D01*
X114202457Y-51000500D01*
X122390409Y-51000500D01*
X122410318Y-51002522D01*
G37*
%TD.AperFunction*%
%TD*%
M02*
