%TF.GenerationSoftware,KiCad,Pcbnew,7.0.7*%
%TF.CreationDate,2023-10-03T14:25:23+02:00*%
%TF.ProjectId,emmc-adapter,656d6d63-2d61-4646-9170-7465722e6b69,rev?*%
%TF.SameCoordinates,Original*%
%TF.FileFunction,Legend,Top*%
%TF.FilePolarity,Positive*%
%FSLAX46Y46*%
G04 Gerber Fmt 4.6, Leading zero omitted, Abs format (unit mm)*
G04 Created by KiCad (PCBNEW 7.0.7) date 2023-10-03 14:25:23*
%MOMM*%
%LPD*%
G01*
G04 APERTURE LIST*
%ADD10C,0.300000*%
%ADD11R,1.700000X1.700000*%
%ADD12O,1.700000X1.700000*%
G04 APERTURE END LIST*
%TO.C,G\u002A\u002A\u002A*%
G36*
X134500294Y-70839204D02*
G01*
X134500405Y-70866193D01*
X134500516Y-70908364D01*
X134500630Y-70965849D01*
X134500746Y-71038775D01*
X134500867Y-71127273D01*
X134500992Y-71231472D01*
X134501123Y-71351501D01*
X134501260Y-71487490D01*
X134501405Y-71639569D01*
X134501559Y-71807866D01*
X134501722Y-71992512D01*
X134501896Y-72193636D01*
X134502081Y-72411367D01*
X134502278Y-72645834D01*
X134502367Y-72752115D01*
X134504464Y-75254464D01*
X132002115Y-75252363D01*
X129499768Y-75250262D01*
X131997885Y-75248118D01*
X134496003Y-75245975D01*
X134496003Y-74683330D01*
X134496003Y-74120686D01*
X132000000Y-74120686D01*
X131756659Y-74120686D01*
X131529671Y-74120681D01*
X131318468Y-74120668D01*
X131122480Y-74120643D01*
X130941139Y-74120603D01*
X130773876Y-74120543D01*
X130620122Y-74120460D01*
X130479308Y-74120349D01*
X130350866Y-74120207D01*
X130234226Y-74120031D01*
X130128820Y-74119815D01*
X130034079Y-74119557D01*
X129949434Y-74119252D01*
X129874317Y-74118897D01*
X129808158Y-74118488D01*
X129750389Y-74118020D01*
X129700441Y-74117491D01*
X129657744Y-74116896D01*
X129621731Y-74116231D01*
X129591833Y-74115492D01*
X129567480Y-74114677D01*
X129548103Y-74113779D01*
X129533135Y-74112797D01*
X129522006Y-74111726D01*
X129514146Y-74110562D01*
X129508989Y-74109302D01*
X129505964Y-74107940D01*
X129504503Y-74106475D01*
X129504036Y-74104901D01*
X129503998Y-74103764D01*
X129504112Y-74102115D01*
X129504833Y-74100576D01*
X129506730Y-74099144D01*
X129510372Y-74097815D01*
X129516328Y-74096586D01*
X129525167Y-74095452D01*
X129537457Y-74094409D01*
X129553767Y-74093455D01*
X129574666Y-74092584D01*
X129600723Y-74091793D01*
X129632506Y-74091078D01*
X129670585Y-74090436D01*
X129715529Y-74089862D01*
X129767905Y-74089353D01*
X129828284Y-74088904D01*
X129897233Y-74088513D01*
X129975322Y-74088174D01*
X130063120Y-74087885D01*
X130161195Y-74087640D01*
X130270116Y-74087438D01*
X130390452Y-74087273D01*
X130522771Y-74087141D01*
X130667643Y-74087040D01*
X130825637Y-74086964D01*
X130997321Y-74086911D01*
X131183264Y-74086876D01*
X131384035Y-74086856D01*
X131600202Y-74086846D01*
X131832335Y-74086843D01*
X131999982Y-74086842D01*
X134495966Y-74086842D01*
X134498118Y-72168305D01*
X134498326Y-71983084D01*
X134498522Y-71811103D01*
X134498705Y-71652494D01*
X134498876Y-71507384D01*
X134499038Y-71375904D01*
X134499190Y-71258183D01*
X134499334Y-71154350D01*
X134499470Y-71064535D01*
X134499600Y-70988867D01*
X134499724Y-70927476D01*
X134499844Y-70880491D01*
X134499959Y-70848042D01*
X134500073Y-70830258D01*
X134500184Y-70827269D01*
X134500294Y-70839204D01*
G37*
G36*
X131923851Y-74966789D02*
G01*
X131923851Y-75093704D01*
X131898468Y-75093704D01*
X131883101Y-75092678D01*
X131875663Y-75086599D01*
X131873281Y-75070970D01*
X131873085Y-75053938D01*
X131872172Y-75030464D01*
X131868901Y-75021519D01*
X131862932Y-75024324D01*
X131849177Y-75029860D01*
X131823866Y-75033501D01*
X131799474Y-75034477D01*
X131766184Y-75033097D01*
X131744762Y-75028195D01*
X131730323Y-75018625D01*
X131729857Y-75018165D01*
X131716043Y-74995106D01*
X131708558Y-74963341D01*
X131707179Y-74927832D01*
X131711686Y-74893542D01*
X131713028Y-74889832D01*
X131763091Y-74889832D01*
X131763091Y-74937175D01*
X131763091Y-74984519D01*
X131815973Y-74982000D01*
X131868854Y-74979481D01*
X131868854Y-74937175D01*
X131868854Y-74894870D01*
X131815973Y-74892351D01*
X131763091Y-74889832D01*
X131713028Y-74889832D01*
X131721856Y-74865431D01*
X131737439Y-74848479D01*
X131756387Y-74843106D01*
X131784045Y-74840448D01*
X131814494Y-74840431D01*
X131841815Y-74842981D01*
X131860088Y-74848027D01*
X131862932Y-74850027D01*
X131871315Y-74855913D01*
X131873085Y-74850027D01*
X131880454Y-74842849D01*
X131898363Y-74839874D01*
X131898468Y-74839874D01*
X131923851Y-74839874D01*
X131923851Y-74966789D01*
G37*
G36*
X133028318Y-74841904D02*
G01*
X133046060Y-74844716D01*
X133058168Y-74849980D01*
X133068403Y-74858378D01*
X133070882Y-74860819D01*
X133082550Y-74875106D01*
X133088813Y-74891956D01*
X133091225Y-74917013D01*
X133091473Y-74935650D01*
X133090010Y-74970018D01*
X133084707Y-74993472D01*
X133074194Y-75011840D01*
X133073260Y-75013043D01*
X133062798Y-75024961D01*
X133051765Y-75031603D01*
X133035408Y-75034159D01*
X133008976Y-75033819D01*
X132993274Y-75033077D01*
X132931500Y-75029958D01*
X132928991Y-75059716D01*
X132925102Y-75080477D01*
X132915575Y-75089707D01*
X132905013Y-75091978D01*
X132886531Y-75091752D01*
X132877515Y-75088452D01*
X132875353Y-75078244D01*
X132873535Y-75054321D01*
X132872213Y-75019889D01*
X132871540Y-74978154D01*
X132871486Y-74962011D01*
X132871486Y-74957268D01*
X132931378Y-74957268D01*
X132937069Y-74974198D01*
X132952653Y-74981827D01*
X132981442Y-74983703D01*
X132984772Y-74983711D01*
X133011456Y-74983104D01*
X133025915Y-74979808D01*
X133032838Y-74971608D01*
X133036237Y-74959414D01*
X133038290Y-74932820D01*
X133035894Y-74912486D01*
X133031551Y-74899686D01*
X133023760Y-74893255D01*
X133007910Y-74891451D01*
X132982579Y-74892363D01*
X132934944Y-74894870D01*
X132932264Y-74927489D01*
X132931378Y-74957268D01*
X132871486Y-74957268D01*
X132871486Y-74841599D01*
X132960888Y-74840913D01*
X133001181Y-74840863D01*
X133028318Y-74841904D01*
G37*
G36*
X133168645Y-74842821D02*
G01*
X133176083Y-74849985D01*
X133176083Y-74850027D01*
X133178580Y-74855913D01*
X133186236Y-74850027D01*
X133200522Y-74844303D01*
X133225641Y-74840976D01*
X133255661Y-74840134D01*
X133284651Y-74841866D01*
X133306680Y-74846262D01*
X133311125Y-74848156D01*
X133328527Y-74866198D01*
X133339832Y-74895502D01*
X133344329Y-74931288D01*
X133341308Y-74968776D01*
X133333169Y-74996373D01*
X133321442Y-75016342D01*
X133304297Y-75028363D01*
X133278251Y-75033702D01*
X133239818Y-75033626D01*
X133231886Y-75033170D01*
X133185287Y-75030247D01*
X133182800Y-75059860D01*
X133179303Y-75080090D01*
X133169968Y-75089061D01*
X133152815Y-75092125D01*
X133125317Y-75094777D01*
X133125317Y-74967325D01*
X133125317Y-74890640D01*
X133184544Y-74890640D01*
X133184544Y-74937175D01*
X133184544Y-74983711D01*
X133235310Y-74983711D01*
X133286076Y-74983711D01*
X133286076Y-74937175D01*
X133286076Y-74890640D01*
X133235310Y-74890640D01*
X133184544Y-74890640D01*
X133125317Y-74890640D01*
X133125317Y-74839874D01*
X133150700Y-74839874D01*
X133168645Y-74842821D01*
G37*
G36*
X133679689Y-74840913D02*
G01*
X133683267Y-74840949D01*
X133768355Y-74841839D01*
X133768355Y-74967772D01*
X133768355Y-75093704D01*
X133742972Y-75093704D01*
X133726421Y-75092262D01*
X133719263Y-75084635D01*
X133717604Y-75065870D01*
X133717588Y-75061436D01*
X133717588Y-75029167D01*
X133667131Y-75032817D01*
X133622111Y-75033803D01*
X133590931Y-75027710D01*
X133571246Y-75012396D01*
X133560709Y-74985721D01*
X133556975Y-74945545D01*
X133556912Y-74939805D01*
X133607950Y-74939805D01*
X133608828Y-74962566D01*
X133612763Y-74977388D01*
X133613605Y-74978439D01*
X133624769Y-74981342D01*
X133647154Y-74982454D01*
X133666486Y-74981965D01*
X133713358Y-74979481D01*
X133713358Y-74937175D01*
X133713358Y-74894870D01*
X133667623Y-74892267D01*
X133634613Y-74892600D01*
X133617014Y-74898327D01*
X133614871Y-74900728D01*
X133610006Y-74916670D01*
X133607950Y-74939805D01*
X133556912Y-74939805D01*
X133556829Y-74932162D01*
X133558027Y-74901181D01*
X133562778Y-74881020D01*
X133572822Y-74865675D01*
X133577504Y-74860734D01*
X133588127Y-74851291D01*
X133599755Y-74845317D01*
X133616290Y-74842083D01*
X133641634Y-74840858D01*
X133679689Y-74840913D01*
G37*
G36*
X129952432Y-74899541D02*
G01*
X129952199Y-74951259D01*
X129951368Y-74988290D01*
X129949735Y-75012865D01*
X129947101Y-75027216D01*
X129943262Y-75033572D01*
X129940240Y-75034477D01*
X129925520Y-75028840D01*
X129922363Y-75025279D01*
X129913915Y-75020656D01*
X129907480Y-75025279D01*
X129894778Y-75029979D01*
X129870541Y-75033295D01*
X129841684Y-75034477D01*
X129805933Y-75033010D01*
X129781987Y-75027915D01*
X129765111Y-75018303D01*
X129754829Y-75008195D01*
X129748816Y-74995571D01*
X129745960Y-74975918D01*
X129745151Y-74944722D01*
X129745137Y-74937175D01*
X129745685Y-74903297D01*
X129747184Y-74889795D01*
X129800133Y-74889795D01*
X129800133Y-74937175D01*
X129800133Y-74984555D01*
X129848784Y-74982018D01*
X129897435Y-74979481D01*
X129897435Y-74937175D01*
X129897435Y-74894870D01*
X129848784Y-74892333D01*
X129800133Y-74889795D01*
X129747184Y-74889795D01*
X129748070Y-74881812D01*
X129753402Y-74868208D01*
X129762794Y-74857970D01*
X129765111Y-74856048D01*
X129785155Y-74846713D01*
X129813834Y-74841081D01*
X129845052Y-74839440D01*
X129872714Y-74842082D01*
X129890725Y-74849298D01*
X129891512Y-74850027D01*
X129897782Y-74852722D01*
X129900892Y-74843017D01*
X129901666Y-74821241D01*
X129902740Y-74796829D01*
X129907974Y-74783616D01*
X129920389Y-74775918D01*
X129927049Y-74773453D01*
X129952432Y-74764605D01*
X129952432Y-74899541D01*
G37*
G36*
X130045503Y-74911792D02*
G01*
X130045503Y-74983711D01*
X130092039Y-74983711D01*
X130138574Y-74983711D01*
X130138574Y-74911792D01*
X130138574Y-74839874D01*
X130168188Y-74839874D01*
X130197802Y-74839874D01*
X130197802Y-74937175D01*
X130197431Y-74980199D01*
X130196107Y-75008862D01*
X130193509Y-75025714D01*
X130189318Y-75033303D01*
X130185609Y-75034477D01*
X130171194Y-75029306D01*
X130168174Y-75025993D01*
X130156937Y-75022112D01*
X130147078Y-75025993D01*
X130122939Y-75032944D01*
X130090392Y-75035048D01*
X130056009Y-75032677D01*
X130026365Y-75026200D01*
X130010481Y-75018312D01*
X130001050Y-75009140D01*
X129994907Y-74997474D01*
X129991147Y-74979469D01*
X129988866Y-74951283D01*
X129987574Y-74921010D01*
X129984643Y-74839874D01*
X130015073Y-74839874D01*
X130045503Y-74839874D01*
X130045503Y-74911792D01*
G37*
G36*
X130377629Y-74790137D02*
G01*
X130390451Y-74794527D01*
X130405120Y-74804229D01*
X130424232Y-74821195D01*
X130450379Y-74847379D01*
X130473651Y-74871602D01*
X130552355Y-74954097D01*
X130552760Y-74871602D01*
X130553165Y-74789107D01*
X130578548Y-74789107D01*
X130603931Y-74789107D01*
X130603931Y-74911792D01*
X130603931Y-75034477D01*
X130577276Y-75034477D01*
X130564648Y-75032821D01*
X130551124Y-75026581D01*
X130534270Y-75013851D01*
X130511650Y-74992725D01*
X130480831Y-74961297D01*
X130471919Y-74951982D01*
X130393215Y-74869487D01*
X130392810Y-74951982D01*
X130392405Y-75034477D01*
X130362792Y-75034477D01*
X130333178Y-75034477D01*
X130333178Y-74911792D01*
X130333178Y-74789107D01*
X130364063Y-74789107D01*
X130377629Y-74790137D01*
G37*
G36*
X130697002Y-74912234D02*
G01*
X130697002Y-74984595D01*
X130741423Y-74982038D01*
X130785843Y-74979481D01*
X130788300Y-74909677D01*
X130790758Y-74839874D01*
X130815799Y-74839874D01*
X130840840Y-74839874D01*
X130840840Y-74937175D01*
X130840290Y-74975483D01*
X130838795Y-75006690D01*
X130836588Y-75027458D01*
X130834071Y-75034477D01*
X130822836Y-75029181D01*
X130817149Y-75024324D01*
X130805635Y-75018527D01*
X130796842Y-75024324D01*
X130783068Y-75029861D01*
X130757670Y-75033498D01*
X130733000Y-75034477D01*
X130701432Y-75033462D01*
X130681003Y-75029355D01*
X130665997Y-75020560D01*
X130658543Y-75013709D01*
X130648571Y-75002281D01*
X130642415Y-74989533D01*
X130639171Y-74971224D01*
X130637933Y-74943110D01*
X130637775Y-74916407D01*
X130637775Y-74839874D01*
X130667389Y-74839874D01*
X130697002Y-74839874D01*
X130697002Y-74912234D01*
G37*
G36*
X131151349Y-74845470D02*
G01*
X131170979Y-74855223D01*
X131180009Y-74864415D01*
X131186049Y-74876969D01*
X131189999Y-74896647D01*
X131192756Y-74927211D01*
X131194222Y-74952525D01*
X131198508Y-75034477D01*
X131168084Y-75034477D01*
X131137660Y-75034477D01*
X131135202Y-74964674D01*
X131132745Y-74894870D01*
X131096786Y-74892269D01*
X131060826Y-74889667D01*
X131060826Y-74962072D01*
X131060826Y-75034477D01*
X131035443Y-75034477D01*
X131010060Y-75034477D01*
X131010060Y-74975942D01*
X131009407Y-74937213D01*
X131006421Y-74912353D01*
X130999567Y-74898327D01*
X130987307Y-74892102D01*
X130968104Y-74890642D01*
X130966850Y-74890640D01*
X130933911Y-74890640D01*
X130933911Y-74962558D01*
X130933911Y-75034477D01*
X130904297Y-75034477D01*
X130874684Y-75034477D01*
X130874684Y-74937959D01*
X130874684Y-74841440D01*
X130950651Y-74841079D01*
X130994789Y-74842070D01*
X131023440Y-74845645D01*
X131037855Y-74851955D01*
X131049189Y-74858863D01*
X131062494Y-74853346D01*
X131065037Y-74851533D01*
X131089225Y-74842196D01*
X131120619Y-74840266D01*
X131151349Y-74845470D01*
G37*
G36*
X131367686Y-74840428D02*
G01*
X131390277Y-74842832D01*
X131405388Y-74848200D01*
X131417731Y-74857645D01*
X131420804Y-74860642D01*
X131435314Y-74880531D01*
X131441100Y-74905760D01*
X131441572Y-74919869D01*
X131441572Y-74958328D01*
X131361193Y-74958328D01*
X131322876Y-74958782D01*
X131298628Y-74960443D01*
X131285612Y-74963760D01*
X131280990Y-74969179D01*
X131280813Y-74971019D01*
X131283780Y-74977211D01*
X131294611Y-74981068D01*
X131316196Y-74983072D01*
X131351428Y-74983704D01*
X131356962Y-74983711D01*
X131433111Y-74983711D01*
X131433111Y-75009094D01*
X131433111Y-75034477D01*
X131349439Y-75034477D01*
X131308786Y-75033945D01*
X131281163Y-75031945D01*
X131262699Y-75027873D01*
X131249522Y-75021125D01*
X131245791Y-75018303D01*
X131235509Y-75008195D01*
X131229496Y-74995571D01*
X131226640Y-74975918D01*
X131225830Y-74944722D01*
X131225816Y-74937175D01*
X131227003Y-74907562D01*
X131280813Y-74907562D01*
X131282665Y-74917013D01*
X131290802Y-74922120D01*
X131309094Y-74924173D01*
X131331579Y-74924484D01*
X131359933Y-74923866D01*
X131375254Y-74921154D01*
X131381412Y-74915057D01*
X131382345Y-74907562D01*
X131380493Y-74898110D01*
X131372356Y-74893003D01*
X131354064Y-74890951D01*
X131331579Y-74890640D01*
X131303225Y-74891257D01*
X131287904Y-74893970D01*
X131281746Y-74900067D01*
X131280813Y-74907562D01*
X131227003Y-74907562D01*
X131227432Y-74896859D01*
X131234040Y-74869397D01*
X131248279Y-74852390D01*
X131272790Y-74843440D01*
X131310212Y-74840148D01*
X131332901Y-74839874D01*
X131367686Y-74840428D01*
G37*
G36*
X131532528Y-74841404D02*
G01*
X131562118Y-74841970D01*
X131584538Y-74843198D01*
X131594851Y-74844800D01*
X131597367Y-74854435D01*
X131595969Y-74869344D01*
X131589260Y-74885234D01*
X131574088Y-74889280D01*
X131569363Y-74889041D01*
X131549353Y-74889253D01*
X131536629Y-74895501D01*
X131529596Y-74910678D01*
X131526659Y-74937674D01*
X131526183Y-74967288D01*
X131526183Y-75034477D01*
X131500800Y-75034477D01*
X131475417Y-75034477D01*
X131475417Y-74937808D01*
X131475417Y-74841140D01*
X131532528Y-74841404D01*
G37*
G36*
X131670020Y-74937175D02*
G01*
X131670020Y-75034477D01*
X131644637Y-75034477D01*
X131619254Y-75034477D01*
X131619254Y-74937175D01*
X131619254Y-74839874D01*
X131644637Y-74839874D01*
X131670020Y-74839874D01*
X131670020Y-74937175D01*
G37*
G36*
X132008591Y-74901216D02*
G01*
X132009580Y-74932989D01*
X132012060Y-74958752D01*
X132015508Y-74973225D01*
X132015755Y-74973651D01*
X132030203Y-74981055D01*
X132060020Y-74982350D01*
X132064276Y-74982112D01*
X132105763Y-74979481D01*
X132108220Y-74909677D01*
X132110678Y-74839874D01*
X132135719Y-74839874D01*
X132160760Y-74839874D01*
X132160760Y-74937175D01*
X132160371Y-74975484D01*
X132159314Y-75006692D01*
X132157753Y-75027460D01*
X132155973Y-75034477D01*
X132145455Y-75030929D01*
X132135334Y-75025993D01*
X132119243Y-75022112D01*
X132114238Y-75025993D01*
X132103666Y-75030358D01*
X132081210Y-75033420D01*
X132054113Y-75034477D01*
X132022281Y-75033523D01*
X132001710Y-75029636D01*
X131986794Y-75021276D01*
X131978463Y-75013709D01*
X131968491Y-75002281D01*
X131962335Y-74989533D01*
X131959091Y-74971224D01*
X131957853Y-74943110D01*
X131957695Y-74916407D01*
X131957695Y-74839874D01*
X131983078Y-74839874D01*
X132008461Y-74839874D01*
X132008591Y-74901216D01*
G37*
G36*
X132340704Y-74840428D02*
G01*
X132363295Y-74842832D01*
X132378406Y-74848200D01*
X132390749Y-74857645D01*
X132393822Y-74860642D01*
X132408332Y-74880531D01*
X132414118Y-74905760D01*
X132414590Y-74919869D01*
X132414590Y-74958328D01*
X132334211Y-74958328D01*
X132295894Y-74958782D01*
X132271646Y-74960443D01*
X132258630Y-74963760D01*
X132254008Y-74969179D01*
X132253831Y-74971019D01*
X132256798Y-74977211D01*
X132267629Y-74981068D01*
X132289214Y-74983072D01*
X132324446Y-74983704D01*
X132329980Y-74983711D01*
X132406129Y-74983711D01*
X132406129Y-75009094D01*
X132406129Y-75034477D01*
X132322456Y-75034477D01*
X132281804Y-75033945D01*
X132254181Y-75031945D01*
X132235717Y-75027873D01*
X132222540Y-75021125D01*
X132218809Y-75018303D01*
X132208527Y-75008195D01*
X132202514Y-74995571D01*
X132199658Y-74975918D01*
X132198848Y-74944722D01*
X132198834Y-74937175D01*
X132200021Y-74907562D01*
X132253831Y-74907562D01*
X132255683Y-74917013D01*
X132263820Y-74922120D01*
X132282112Y-74924173D01*
X132304597Y-74924484D01*
X132332951Y-74923866D01*
X132348272Y-74921154D01*
X132354430Y-74915057D01*
X132355363Y-74907562D01*
X132353511Y-74898110D01*
X132345374Y-74893003D01*
X132327082Y-74890951D01*
X132304597Y-74890640D01*
X132276243Y-74891257D01*
X132260922Y-74893970D01*
X132254764Y-74900067D01*
X132253831Y-74907562D01*
X132200021Y-74907562D01*
X132200450Y-74896859D01*
X132207058Y-74869397D01*
X132221297Y-74852390D01*
X132245808Y-74843440D01*
X132283230Y-74840148D01*
X132305919Y-74839874D01*
X132340704Y-74840428D01*
G37*
G36*
X132708922Y-74789661D02*
G01*
X132718135Y-74792761D01*
X132727389Y-74800569D01*
X132738382Y-74815247D01*
X132752808Y-74838955D01*
X132772363Y-74873855D01*
X132790371Y-74906759D01*
X132812223Y-74947111D01*
X132830882Y-74982143D01*
X132844970Y-75009222D01*
X132853109Y-75025713D01*
X132854564Y-75029444D01*
X132847121Y-75032782D01*
X132828838Y-75034438D01*
X132825167Y-75034477D01*
X132802616Y-75031429D01*
X132788489Y-75019149D01*
X132782645Y-75009094D01*
X132775634Y-74996766D01*
X132767600Y-74989259D01*
X132754554Y-74985379D01*
X132732509Y-74983928D01*
X132698035Y-74983711D01*
X132663199Y-74983937D01*
X132641297Y-74985411D01*
X132628342Y-74989331D01*
X132620346Y-74996893D01*
X132613425Y-75009094D01*
X132600528Y-75027206D01*
X132582835Y-75033921D01*
X132570902Y-75034477D01*
X132551406Y-75033057D01*
X132541736Y-75029568D01*
X132541506Y-75028867D01*
X132545377Y-75019895D01*
X132556065Y-74998776D01*
X132572181Y-74968162D01*
X132591132Y-74932945D01*
X132650443Y-74932945D01*
X132697679Y-74932945D01*
X132744914Y-74932945D01*
X132728148Y-74901216D01*
X132712804Y-74873001D01*
X132702346Y-74859125D01*
X132693720Y-74858981D01*
X132683870Y-74871965D01*
X132673595Y-74890406D01*
X132650443Y-74932945D01*
X132591132Y-74932945D01*
X132592337Y-74930705D01*
X132605720Y-74906182D01*
X132630017Y-74862129D01*
X132647956Y-74830791D01*
X132661242Y-74810004D01*
X132671581Y-74797605D01*
X132680680Y-74791433D01*
X132690242Y-74789324D01*
X132698056Y-74789107D01*
X132708922Y-74789661D01*
G37*
G36*
X133427476Y-74771713D02*
G01*
X133428540Y-74793792D01*
X133429347Y-74827129D01*
X133429821Y-74868892D01*
X133429914Y-74899101D01*
X133429914Y-75034477D01*
X133404530Y-75034477D01*
X133379147Y-75034477D01*
X133379147Y-74907352D01*
X133379147Y-74780228D01*
X133400851Y-74771976D01*
X133418029Y-74765900D01*
X133426234Y-74763724D01*
X133427476Y-74771713D01*
G37*
G36*
X133522985Y-74937175D02*
G01*
X133522985Y-75034477D01*
X133493371Y-75034477D01*
X133463758Y-75034477D01*
X133463758Y-74937175D01*
X133463758Y-74839874D01*
X133493371Y-74839874D01*
X133522985Y-74839874D01*
X133522985Y-74937175D01*
G37*
G36*
X133861426Y-74911792D02*
G01*
X133861426Y-74983711D01*
X133907962Y-74983711D01*
X133954497Y-74983711D01*
X133954497Y-74911792D01*
X133954497Y-74839874D01*
X133984111Y-74839874D01*
X134013724Y-74839874D01*
X134013724Y-74937175D01*
X134013354Y-74980199D01*
X134012029Y-75008862D01*
X134009432Y-75025714D01*
X134005241Y-75033303D01*
X134001532Y-75034477D01*
X133987117Y-75029306D01*
X133984097Y-75025993D01*
X133972859Y-75022112D01*
X133963001Y-75025993D01*
X133938862Y-75032944D01*
X133906314Y-75035048D01*
X133871932Y-75032677D01*
X133842287Y-75026200D01*
X133826404Y-75018312D01*
X133816973Y-75009140D01*
X133810830Y-74997474D01*
X133807070Y-74979469D01*
X133804788Y-74951283D01*
X133803497Y-74921010D01*
X133800565Y-74839874D01*
X133830996Y-74839874D01*
X133861426Y-74839874D01*
X133861426Y-74911792D01*
G37*
G36*
X134200475Y-74842639D02*
G01*
X134230984Y-74851955D01*
X134249451Y-74869353D01*
X134257935Y-74896365D01*
X134259094Y-74916637D01*
X134259094Y-74958328D01*
X134178714Y-74958328D01*
X134140398Y-74958782D01*
X134116150Y-74960443D01*
X134103133Y-74963760D01*
X134098511Y-74969179D01*
X134098335Y-74971019D01*
X134101335Y-74977261D01*
X134112276Y-74981127D01*
X134134070Y-74983111D01*
X134169625Y-74983708D01*
X134173074Y-74983711D01*
X134206937Y-74984181D01*
X134233889Y-74985436D01*
X134249811Y-74987247D01*
X134252242Y-74988140D01*
X134254199Y-74998889D01*
X134252666Y-75013523D01*
X134250178Y-75023082D01*
X134244959Y-75029176D01*
X134233750Y-75032586D01*
X134213290Y-75034090D01*
X134180322Y-75034467D01*
X134165036Y-75034477D01*
X134125341Y-75034043D01*
X134098784Y-75032318D01*
X134081596Y-75028666D01*
X134070007Y-75022455D01*
X134064491Y-75017555D01*
X134055242Y-75005069D01*
X134050053Y-74987729D01*
X134047925Y-74960875D01*
X134047698Y-74939291D01*
X134048523Y-74909677D01*
X134099945Y-74909677D01*
X134100460Y-74917637D01*
X134108127Y-74922128D01*
X134126348Y-74924094D01*
X134153331Y-74924484D01*
X134183460Y-74923945D01*
X134200085Y-74921698D01*
X134206608Y-74916801D01*
X134206717Y-74909677D01*
X134202047Y-74901182D01*
X134189632Y-74896637D01*
X134165611Y-74894971D01*
X134153331Y-74894870D01*
X134124168Y-74895759D01*
X134108005Y-74899141D01*
X134100982Y-74906085D01*
X134099945Y-74909677D01*
X134048523Y-74909677D01*
X134048574Y-74907849D01*
X134050758Y-74882740D01*
X134053793Y-74869064D01*
X134054044Y-74868639D01*
X134073459Y-74852572D01*
X134106455Y-74843090D01*
X134154147Y-74839876D01*
X134155865Y-74839874D01*
X134200475Y-74842639D01*
G37*
G36*
X131661691Y-74773836D02*
G01*
X131668686Y-74782210D01*
X131670020Y-74801799D01*
X131668605Y-74821695D01*
X131661428Y-74829856D01*
X131644637Y-74831413D01*
X131627583Y-74829762D01*
X131620588Y-74821388D01*
X131619254Y-74801799D01*
X131620669Y-74781903D01*
X131627846Y-74773742D01*
X131644637Y-74772185D01*
X131661691Y-74773836D01*
G37*
G36*
X133513219Y-74773495D02*
G01*
X133521359Y-74780885D01*
X133522981Y-74799545D01*
X133522985Y-74801799D01*
X133521675Y-74821647D01*
X133514285Y-74829787D01*
X133495625Y-74831409D01*
X133493371Y-74831413D01*
X133473523Y-74830103D01*
X133465383Y-74822713D01*
X133463761Y-74804053D01*
X133463758Y-74801799D01*
X133465067Y-74781951D01*
X133472457Y-74773811D01*
X133491117Y-74772189D01*
X133493371Y-74772185D01*
X133513219Y-74773495D01*
G37*
G36*
X131397594Y-74767583D02*
G01*
X131397897Y-74781056D01*
X131392631Y-74794150D01*
X131378696Y-74803497D01*
X131352732Y-74811697D01*
X131320503Y-74819436D01*
X131301280Y-74822077D01*
X131291922Y-74819583D01*
X131289289Y-74811915D01*
X131289274Y-74810940D01*
X131296891Y-74801406D01*
X131317174Y-74790512D01*
X131333694Y-74784324D01*
X131360564Y-74775410D01*
X131381714Y-74768249D01*
X131389436Y-74765532D01*
X131397594Y-74767583D01*
G37*
G36*
X134215116Y-74767583D02*
G01*
X134215418Y-74781056D01*
X134210152Y-74794150D01*
X134196218Y-74803497D01*
X134170253Y-74811697D01*
X134138024Y-74819436D01*
X134118802Y-74822077D01*
X134109444Y-74819583D01*
X134106810Y-74811915D01*
X134106796Y-74810940D01*
X134114413Y-74801406D01*
X134134696Y-74790512D01*
X134151216Y-74784324D01*
X134178086Y-74775410D01*
X134199236Y-74768249D01*
X134206957Y-74765532D01*
X134215116Y-74767583D01*
G37*
G36*
X132119353Y-74419359D02*
G01*
X132126914Y-74425471D01*
X132126916Y-74425581D01*
X132132095Y-74430018D01*
X132143281Y-74425581D01*
X132161156Y-74420444D01*
X132188068Y-74417292D01*
X132202893Y-74416822D01*
X132232713Y-74418770D01*
X132252872Y-74426120D01*
X132266907Y-74437590D01*
X132278116Y-74450980D01*
X132284414Y-74466398D01*
X132287148Y-74489054D01*
X132287675Y-74517970D01*
X132286652Y-74552415D01*
X132282921Y-74574637D01*
X132275493Y-74589247D01*
X132271363Y-74593894D01*
X132248897Y-74607171D01*
X132216935Y-74615479D01*
X132182460Y-74617708D01*
X132152565Y-74612787D01*
X132126916Y-74603845D01*
X132126916Y-74637249D01*
X132125879Y-74658767D01*
X132120296Y-74668262D01*
X132106462Y-74670611D01*
X132101532Y-74670653D01*
X132076149Y-74670653D01*
X132076149Y-74543738D01*
X132076149Y-74508404D01*
X132128514Y-74508404D01*
X132129337Y-74539702D01*
X132139074Y-74558442D01*
X132160316Y-74567316D01*
X132187018Y-74569121D01*
X132212284Y-74568101D01*
X132225602Y-74563619D01*
X132231894Y-74553544D01*
X132233141Y-74549139D01*
X132235891Y-74526317D01*
X132235417Y-74500488D01*
X132232678Y-74471819D01*
X132181912Y-74471819D01*
X132131146Y-74471819D01*
X132128514Y-74508404D01*
X132076149Y-74508404D01*
X132076149Y-74416822D01*
X132101532Y-74416822D01*
X132119353Y-74419359D01*
G37*
G36*
X130587009Y-74395670D02*
G01*
X130587009Y-74425283D01*
X130498168Y-74425283D01*
X130409327Y-74425283D01*
X130409327Y-74446436D01*
X130409327Y-74467588D01*
X130498730Y-74467588D01*
X130588133Y-74467588D01*
X130585456Y-74490856D01*
X130582778Y-74514124D01*
X130496053Y-74516535D01*
X130457089Y-74517761D01*
X130431993Y-74519375D01*
X130417714Y-74522194D01*
X130411202Y-74527039D01*
X130409408Y-74534726D01*
X130409327Y-74539803D01*
X130409835Y-74549083D01*
X130413368Y-74555098D01*
X130422942Y-74558556D01*
X130441571Y-74560165D01*
X130472270Y-74560633D01*
X130498168Y-74560660D01*
X130587009Y-74560660D01*
X130587009Y-74590273D01*
X130587009Y-74619887D01*
X130474195Y-74619887D01*
X130432102Y-74619485D01*
X130396268Y-74618386D01*
X130370005Y-74616747D01*
X130356625Y-74614725D01*
X130355741Y-74614246D01*
X130353726Y-74604189D01*
X130352029Y-74580391D01*
X130350792Y-74546031D01*
X130350155Y-74504292D01*
X130350100Y-74487331D01*
X130350100Y-74366056D01*
X130468554Y-74366056D01*
X130587009Y-74366056D01*
X130587009Y-74395670D01*
G37*
G36*
X130779421Y-74419031D02*
G01*
X130795322Y-74424214D01*
X130807102Y-74432129D01*
X130820921Y-74444502D01*
X130822445Y-74453442D01*
X130812667Y-74465996D01*
X130811983Y-74466751D01*
X130797234Y-74478403D01*
X130785384Y-74475668D01*
X130785273Y-74475576D01*
X130771438Y-74471160D01*
X130746862Y-74469009D01*
X130725214Y-74469260D01*
X130675850Y-74471819D01*
X130673218Y-74513305D01*
X130673827Y-74544809D01*
X130680554Y-74560991D01*
X130681679Y-74561827D01*
X130698689Y-74566839D01*
X130724516Y-74568792D01*
X130752583Y-74567867D01*
X130776312Y-74564243D01*
X130788442Y-74558907D01*
X130801361Y-74554636D01*
X130813797Y-74561889D01*
X130821289Y-74575745D01*
X130819377Y-74591279D01*
X130818743Y-74592355D01*
X130801417Y-74605946D01*
X130772349Y-74614989D01*
X130736247Y-74618907D01*
X130697820Y-74617126D01*
X130667398Y-74610867D01*
X130645132Y-74601118D01*
X130631052Y-74585647D01*
X130623526Y-74561055D01*
X130620926Y-74523940D01*
X130620853Y-74513818D01*
X130622539Y-74474889D01*
X130629423Y-74448530D01*
X130644242Y-74432135D01*
X130669732Y-74423098D01*
X130708629Y-74418812D01*
X130721312Y-74418153D01*
X130756361Y-74417273D01*
X130779421Y-74419031D01*
G37*
G36*
X130980185Y-74418336D02*
G01*
X131020272Y-74422969D01*
X131046398Y-74432724D01*
X131061383Y-74450561D01*
X131068048Y-74479437D01*
X131069287Y-74511761D01*
X131068085Y-74543802D01*
X131064938Y-74570744D01*
X131060727Y-74586229D01*
X131043746Y-74601697D01*
X131014227Y-74612467D01*
X130976074Y-74617833D01*
X130933195Y-74617090D01*
X130908528Y-74613733D01*
X130884941Y-74606597D01*
X130869760Y-74593428D01*
X130861337Y-74571107D01*
X130858361Y-74540021D01*
X130909138Y-74540021D01*
X130913903Y-74558129D01*
X130927521Y-74566620D01*
X130953108Y-74569045D01*
X130963098Y-74569121D01*
X130990247Y-74568365D01*
X131005090Y-74564913D01*
X131012217Y-74556989D01*
X131014753Y-74549139D01*
X131017504Y-74526317D01*
X131017029Y-74500488D01*
X131014291Y-74471819D01*
X130963524Y-74471819D01*
X130912758Y-74471819D01*
X130910109Y-74508746D01*
X130909138Y-74540021D01*
X130858361Y-74540021D01*
X130858025Y-74536516D01*
X130857762Y-74517648D01*
X130859729Y-74475870D01*
X130867196Y-74446812D01*
X130882512Y-74428569D01*
X130908027Y-74419235D01*
X130946090Y-74416904D01*
X130980185Y-74418336D01*
G37*
G36*
X131155102Y-74355088D02*
G01*
X131159260Y-74367732D01*
X131161119Y-74390304D01*
X131161345Y-74425030D01*
X131160603Y-74474135D01*
X131160458Y-74482395D01*
X131158128Y-74615656D01*
X131136659Y-74618160D01*
X131118177Y-74617934D01*
X131109161Y-74614635D01*
X131107033Y-74604455D01*
X131105235Y-74580500D01*
X131103911Y-74545916D01*
X131103207Y-74503850D01*
X131103131Y-74484087D01*
X131103224Y-74435850D01*
X131103761Y-74401881D01*
X131105133Y-74379530D01*
X131107728Y-74366141D01*
X131111937Y-74359064D01*
X131118149Y-74355645D01*
X131122169Y-74354467D01*
X131137222Y-74350681D01*
X131147978Y-74350146D01*
X131155102Y-74355088D01*
G37*
G36*
X131339284Y-74421481D02*
G01*
X131362245Y-74423401D01*
X131376679Y-74427764D01*
X131386776Y-74435522D01*
X131391554Y-74441027D01*
X131404596Y-74469442D01*
X131407728Y-74498139D01*
X131407728Y-74535277D01*
X131327349Y-74535277D01*
X131288424Y-74535809D01*
X131263789Y-74537661D01*
X131250841Y-74541215D01*
X131246972Y-74546853D01*
X131246969Y-74547063D01*
X131250328Y-74557000D01*
X131262046Y-74563580D01*
X131284589Y-74567380D01*
X131320420Y-74568972D01*
X131341637Y-74569121D01*
X131375428Y-74569543D01*
X131395268Y-74571231D01*
X131404118Y-74574816D01*
X131404939Y-74580930D01*
X131404403Y-74582504D01*
X131399750Y-74601564D01*
X131399267Y-74607887D01*
X131395544Y-74614149D01*
X131382468Y-74617744D01*
X131357182Y-74619162D01*
X131333694Y-74619160D01*
X131298562Y-74617885D01*
X131267128Y-74615204D01*
X131245684Y-74611670D01*
X131244313Y-74611286D01*
X131221427Y-74602784D01*
X131207173Y-74591448D01*
X131199557Y-74573440D01*
X131196586Y-74544921D01*
X131196203Y-74518630D01*
X131197277Y-74486626D01*
X131248580Y-74486626D01*
X131249094Y-74494586D01*
X131256762Y-74499077D01*
X131274982Y-74501043D01*
X131301966Y-74501433D01*
X131332094Y-74500893D01*
X131348720Y-74498647D01*
X131355242Y-74493750D01*
X131355351Y-74486626D01*
X131350681Y-74478131D01*
X131338266Y-74473586D01*
X131314245Y-74471920D01*
X131301966Y-74471819D01*
X131272802Y-74472708D01*
X131256639Y-74476089D01*
X131249617Y-74483033D01*
X131248580Y-74486626D01*
X131197277Y-74486626D01*
X131197555Y-74478326D01*
X131203396Y-74450889D01*
X131216406Y-74433888D01*
X131239263Y-74424887D01*
X131274645Y-74421453D01*
X131303601Y-74421053D01*
X131339284Y-74421481D01*
G37*
G36*
X131795407Y-74392870D02*
G01*
X131792705Y-74421053D01*
X131696967Y-74423450D01*
X131655668Y-74424622D01*
X131628470Y-74426094D01*
X131612557Y-74428508D01*
X131605112Y-74432504D01*
X131603318Y-74438721D01*
X131603896Y-74444603D01*
X131606281Y-74453327D01*
X131612606Y-74459104D01*
X131626102Y-74462813D01*
X131650000Y-74465336D01*
X131687531Y-74467553D01*
X131688214Y-74467588D01*
X131735783Y-74471436D01*
X131768882Y-74478161D01*
X131789901Y-74489184D01*
X131801228Y-74505920D01*
X131805252Y-74529790D01*
X131805397Y-74537144D01*
X131802934Y-74565908D01*
X131794217Y-74587358D01*
X131777257Y-74602481D01*
X131750062Y-74612261D01*
X131710640Y-74617684D01*
X131657002Y-74619735D01*
X131638291Y-74619840D01*
X131551566Y-74619887D01*
X131551566Y-74590273D01*
X131551566Y-74560660D01*
X131648868Y-74560660D01*
X131746169Y-74560660D01*
X131746169Y-74539507D01*
X131745440Y-74528983D01*
X131740939Y-74522697D01*
X131729201Y-74519559D01*
X131706759Y-74518476D01*
X131679032Y-74518355D01*
X131628181Y-74516264D01*
X131591393Y-74509581D01*
X131566282Y-74497692D01*
X131554640Y-74486293D01*
X131545143Y-74462067D01*
X131544374Y-74431472D01*
X131551953Y-74402399D01*
X131559260Y-74390261D01*
X131566836Y-74382090D01*
X131576114Y-74376400D01*
X131590201Y-74372636D01*
X131612205Y-74370242D01*
X131645236Y-74368664D01*
X131686762Y-74367487D01*
X131798110Y-74364688D01*
X131795407Y-74392870D01*
G37*
G36*
X131891785Y-74490345D02*
G01*
X131894237Y-74564890D01*
X131936542Y-74564890D01*
X131978848Y-74564890D01*
X131981292Y-74490856D01*
X131983737Y-74416822D01*
X132013021Y-74416822D01*
X132042305Y-74416822D01*
X132042305Y-74514124D01*
X132042126Y-74555931D01*
X132041255Y-74583679D01*
X132039196Y-74600233D01*
X132035451Y-74608454D01*
X132029520Y-74611206D01*
X132025383Y-74611426D01*
X132011642Y-74607454D01*
X132008461Y-74601929D01*
X132004962Y-74596945D01*
X131996665Y-74602221D01*
X131980647Y-74608827D01*
X131954205Y-74613818D01*
X131923810Y-74616485D01*
X131895937Y-74616121D01*
X131884545Y-74614488D01*
X131862905Y-74606202D01*
X131848290Y-74590840D01*
X131839563Y-74565743D01*
X131835587Y-74528249D01*
X131835010Y-74498452D01*
X131835010Y-74421053D01*
X131862172Y-74418427D01*
X131889333Y-74415800D01*
X131891785Y-74490345D01*
G37*
G36*
X132477617Y-74420057D02*
G01*
X132509753Y-74430792D01*
X132529792Y-74450579D01*
X132539605Y-74480967D01*
X132541390Y-74507778D01*
X132541506Y-74535277D01*
X132460506Y-74535277D01*
X132422931Y-74535572D01*
X132399321Y-74536830D01*
X132386722Y-74539611D01*
X132382182Y-74544475D01*
X132382336Y-74550083D01*
X132386128Y-74557397D01*
X132396288Y-74562165D01*
X132416051Y-74565109D01*
X132448657Y-74566954D01*
X132459636Y-74567343D01*
X132534104Y-74569795D01*
X132531459Y-74592726D01*
X132529482Y-74604110D01*
X132524398Y-74610990D01*
X132512617Y-74614593D01*
X132490547Y-74616148D01*
X132461126Y-74616775D01*
X132426475Y-74616844D01*
X132396437Y-74616009D01*
X132376645Y-74614446D01*
X132374569Y-74614093D01*
X132348880Y-74600810D01*
X132330908Y-74574423D01*
X132322207Y-74537589D01*
X132321635Y-74523559D01*
X132322712Y-74494223D01*
X132323719Y-74484510D01*
X132380746Y-74484510D01*
X132382599Y-74493962D01*
X132390736Y-74499069D01*
X132409027Y-74501121D01*
X132431512Y-74501433D01*
X132459866Y-74500815D01*
X132475187Y-74498103D01*
X132481345Y-74492006D01*
X132482279Y-74484510D01*
X132480426Y-74475059D01*
X132472289Y-74469952D01*
X132453998Y-74467900D01*
X132431512Y-74467588D01*
X132403159Y-74468206D01*
X132387838Y-74470918D01*
X132381680Y-74477015D01*
X132380746Y-74484510D01*
X132323719Y-74484510D01*
X132325313Y-74469132D01*
X132326941Y-74460904D01*
X132341198Y-74439385D01*
X132369780Y-74424720D01*
X132411294Y-74417497D01*
X132431512Y-74416822D01*
X132477617Y-74420057D01*
G37*
G36*
X132632462Y-74418353D02*
G01*
X132662051Y-74418919D01*
X132684472Y-74420147D01*
X132694785Y-74421748D01*
X132697304Y-74431385D01*
X132695914Y-74446234D01*
X132689906Y-74461330D01*
X132676089Y-74467040D01*
X132664110Y-74467588D01*
X132647153Y-74469099D01*
X132636121Y-74475587D01*
X132629769Y-74489989D01*
X132626850Y-74515243D01*
X132626118Y-74554285D01*
X132626116Y-74557121D01*
X132626116Y-74619887D01*
X132600733Y-74619887D01*
X132575350Y-74619887D01*
X132575350Y-74518988D01*
X132575350Y-74418088D01*
X132632462Y-74418353D01*
G37*
G36*
X132769954Y-74518355D02*
G01*
X132769954Y-74619887D01*
X132744570Y-74619887D01*
X132719187Y-74619887D01*
X132719187Y-74518355D01*
X132719187Y-74416822D01*
X132744570Y-74416822D01*
X132769954Y-74416822D01*
X132769954Y-74518355D01*
G37*
G36*
X132931579Y-74418308D02*
G01*
X132973218Y-74423354D01*
X133000770Y-74434285D01*
X133016635Y-74453180D01*
X133023213Y-74482116D01*
X133023784Y-74498139D01*
X133023784Y-74535277D01*
X132943405Y-74535277D01*
X132904480Y-74535809D01*
X132879845Y-74537661D01*
X132866897Y-74541215D01*
X132863028Y-74546853D01*
X132863025Y-74547063D01*
X132866617Y-74557249D01*
X132879030Y-74563911D01*
X132902715Y-74567647D01*
X132940124Y-74569060D01*
X132953120Y-74569121D01*
X133016447Y-74569121D01*
X133013770Y-74592389D01*
X133011809Y-74603938D01*
X133006812Y-74610916D01*
X132995187Y-74614568D01*
X132973343Y-74616137D01*
X132943405Y-74616775D01*
X132908882Y-74616856D01*
X132879097Y-74616054D01*
X132859617Y-74614537D01*
X132857563Y-74614187D01*
X132837699Y-74605053D01*
X132824600Y-74594117D01*
X132813330Y-74572178D01*
X132806690Y-74540156D01*
X132805320Y-74504412D01*
X132807759Y-74486626D01*
X132864602Y-74486626D01*
X132865221Y-74494872D01*
X132873406Y-74499368D01*
X132892662Y-74501184D01*
X132913171Y-74501433D01*
X132941695Y-74500851D01*
X132957182Y-74498235D01*
X132963502Y-74492279D01*
X132964557Y-74484088D01*
X132962956Y-74474368D01*
X132955497Y-74469550D01*
X132938200Y-74468419D01*
X132915988Y-74469281D01*
X132887015Y-74471924D01*
X132871224Y-74476839D01*
X132864906Y-74485281D01*
X132864602Y-74486626D01*
X132807759Y-74486626D01*
X132809859Y-74471306D01*
X132811645Y-74465219D01*
X132824198Y-74441555D01*
X132844861Y-74426404D01*
X132876103Y-74418800D01*
X132920391Y-74417777D01*
X132931579Y-74418308D01*
G37*
G36*
X133110180Y-74490856D02*
G01*
X133112625Y-74564890D01*
X133149210Y-74567523D01*
X133176414Y-74567722D01*
X133194117Y-74561810D01*
X133204290Y-74547059D01*
X133208902Y-74520741D01*
X133209927Y-74483474D01*
X133209927Y-74416822D01*
X133235310Y-74416822D01*
X133260693Y-74416822D01*
X133260693Y-74514124D01*
X133260323Y-74557148D01*
X133258998Y-74585811D01*
X133256400Y-74602662D01*
X133252210Y-74610252D01*
X133248501Y-74611426D01*
X133233920Y-74606002D01*
X133230826Y-74602554D01*
X133221610Y-74598329D01*
X133214666Y-74602543D01*
X133196450Y-74610285D01*
X133168302Y-74614920D01*
X133137017Y-74615909D01*
X133109387Y-74612713D01*
X133104174Y-74611301D01*
X133084014Y-74602783D01*
X133070561Y-74590197D01*
X133062534Y-74570358D01*
X133058650Y-74540080D01*
X133057629Y-74496174D01*
X133057628Y-74495585D01*
X133057628Y-74416822D01*
X133082682Y-74416822D01*
X133107736Y-74416822D01*
X133110180Y-74490856D01*
G37*
G36*
X133337741Y-74419359D02*
G01*
X133345301Y-74425471D01*
X133345303Y-74425581D01*
X133350483Y-74430018D01*
X133361669Y-74425581D01*
X133384843Y-74417931D01*
X133405957Y-74418458D01*
X133417519Y-74425764D01*
X133420057Y-74440484D01*
X133418363Y-74453365D01*
X133410767Y-74466869D01*
X133393896Y-74471707D01*
X133385837Y-74471921D01*
X133357995Y-74471819D01*
X133353764Y-74543738D01*
X133351453Y-74578621D01*
X133348752Y-74600063D01*
X133344465Y-74611525D01*
X133337399Y-74616469D01*
X133328065Y-74618160D01*
X133309583Y-74617934D01*
X133300566Y-74614635D01*
X133298161Y-74604222D01*
X133296212Y-74580541D01*
X133294934Y-74547244D01*
X133294537Y-74512714D01*
X133294537Y-74416822D01*
X133319920Y-74416822D01*
X133337741Y-74419359D01*
G37*
G36*
X133580912Y-74418837D02*
G01*
X133617400Y-74427653D01*
X133641497Y-74445814D01*
X133654659Y-74474377D01*
X133658361Y-74511156D01*
X133658361Y-74535277D01*
X133573751Y-74535277D01*
X133538235Y-74535906D01*
X133510059Y-74537602D01*
X133492807Y-74540078D01*
X133489141Y-74542045D01*
X133494572Y-74555027D01*
X133511972Y-74563527D01*
X133542997Y-74568043D01*
X133579674Y-74569121D01*
X133616302Y-74569756D01*
X133638529Y-74572621D01*
X133648855Y-74579151D01*
X133649783Y-74590783D01*
X133644764Y-74606503D01*
X133638592Y-74613550D01*
X133624545Y-74617557D01*
X133599239Y-74619141D01*
X133574961Y-74619160D01*
X133539708Y-74617808D01*
X133507842Y-74614937D01*
X133485903Y-74611148D01*
X133484920Y-74610867D01*
X133462080Y-74600663D01*
X133447851Y-74584293D01*
X133440521Y-74558328D01*
X133438377Y-74519339D01*
X133438375Y-74517675D01*
X133439507Y-74495087D01*
X133489270Y-74495087D01*
X133496923Y-74498302D01*
X133517090Y-74500585D01*
X133544758Y-74501433D01*
X133574685Y-74500882D01*
X133591125Y-74498592D01*
X133597494Y-74493604D01*
X133597560Y-74486626D01*
X133591794Y-74477361D01*
X133576450Y-74471979D01*
X133549089Y-74469216D01*
X133515919Y-74469930D01*
X133496690Y-74477288D01*
X133489445Y-74492136D01*
X133489270Y-74495087D01*
X133439507Y-74495087D01*
X133440457Y-74476117D01*
X133448495Y-74448269D01*
X133465171Y-74431239D01*
X133493170Y-74422134D01*
X133530580Y-74418308D01*
X133580912Y-74418837D01*
G37*
G36*
X132498658Y-74347889D02*
G01*
X132499201Y-74360204D01*
X132497188Y-74371233D01*
X132488755Y-74379172D01*
X132470314Y-74386153D01*
X132444018Y-74392939D01*
X132411704Y-74399318D01*
X132390625Y-74400585D01*
X132383835Y-74398053D01*
X132384050Y-74385625D01*
X132386137Y-74382917D01*
X132396272Y-74377581D01*
X132416994Y-74368814D01*
X132442884Y-74358684D01*
X132468526Y-74349259D01*
X132488502Y-74342608D01*
X132496792Y-74340673D01*
X132498658Y-74347889D01*
G37*
G36*
X132761624Y-74350785D02*
G01*
X132768619Y-74359158D01*
X132769954Y-74378748D01*
X132768539Y-74398644D01*
X132761361Y-74406805D01*
X132744570Y-74408361D01*
X132727517Y-74406710D01*
X132720522Y-74398337D01*
X132719187Y-74378748D01*
X132720602Y-74358851D01*
X132727780Y-74350691D01*
X132744570Y-74349134D01*
X132761624Y-74350785D01*
G37*
G36*
X130534044Y-74295636D02*
G01*
X130536243Y-74308533D01*
X130534447Y-74319972D01*
X130526640Y-74328016D01*
X130509191Y-74334883D01*
X130481246Y-74342128D01*
X130452002Y-74348824D01*
X130435518Y-74351199D01*
X130428157Y-74349126D01*
X130426286Y-74342479D01*
X130426249Y-74340199D01*
X130432421Y-74328444D01*
X130452276Y-74317231D01*
X130470670Y-74310507D01*
X130497361Y-74301658D01*
X130518166Y-74294629D01*
X130525666Y-74292000D01*
X130534044Y-74295636D01*
G37*
G36*
X132693280Y-72776308D02*
G01*
X132795337Y-72776954D01*
X132795135Y-72862894D01*
X132793393Y-72926034D01*
X132787822Y-72974266D01*
X132777403Y-73009373D01*
X132761116Y-73033134D01*
X132737942Y-73047330D01*
X132706860Y-73053743D01*
X132685371Y-73054597D01*
X132657729Y-73053186D01*
X132637394Y-73049530D01*
X132630049Y-73045655D01*
X132627525Y-73030956D01*
X132629244Y-73017904D01*
X132634614Y-73005945D01*
X132646032Y-73001490D01*
X132668274Y-73002367D01*
X132700659Y-73000772D01*
X132720837Y-72989162D01*
X132727648Y-72968653D01*
X132725519Y-72957719D01*
X132716019Y-72958902D01*
X132709578Y-72962141D01*
X132690388Y-72967091D01*
X132660249Y-72968997D01*
X132636528Y-72968311D01*
X132597791Y-72963371D01*
X132572334Y-72952530D01*
X132557607Y-72932931D01*
X132551055Y-72901713D01*
X132550048Y-72873632D01*
X132609587Y-72873632D01*
X132609864Y-72896800D01*
X132614132Y-72912626D01*
X132615193Y-72913938D01*
X132626247Y-72916745D01*
X132648839Y-72917932D01*
X132672304Y-72917463D01*
X132723418Y-72914990D01*
X132726082Y-72877754D01*
X132725300Y-72848870D01*
X132718160Y-72833832D01*
X132717621Y-72833463D01*
X132700141Y-72828240D01*
X132674452Y-72826454D01*
X132647514Y-72827907D01*
X132626289Y-72832396D01*
X132619347Y-72836303D01*
X132612886Y-72850880D01*
X132609587Y-72873632D01*
X132550048Y-72873632D01*
X132549967Y-72871363D01*
X132550949Y-72839597D01*
X132554927Y-72819060D01*
X132563448Y-72804123D01*
X132570595Y-72796291D01*
X132580229Y-72787575D01*
X132590705Y-72781764D01*
X132605444Y-72778300D01*
X132627868Y-72776625D01*
X132661397Y-72776183D01*
X132693280Y-72776308D01*
G37*
G36*
X129898948Y-72766322D02*
G01*
X129932219Y-72788691D01*
X129946594Y-72805693D01*
X129965123Y-72834215D01*
X130218954Y-72836528D01*
X130472785Y-72838841D01*
X130475342Y-72883261D01*
X130477900Y-72927682D01*
X130220369Y-72927682D01*
X129962839Y-72927682D01*
X129948715Y-72949238D01*
X129919764Y-72979082D01*
X129882101Y-72997631D01*
X129840360Y-73003948D01*
X129799175Y-72997095D01*
X129774086Y-72984591D01*
X129746011Y-72956633D01*
X129726392Y-72919286D01*
X129719417Y-72886114D01*
X129775382Y-72886114D01*
X129784802Y-72913013D01*
X129804959Y-72933698D01*
X129834161Y-72944091D01*
X129843053Y-72944604D01*
X129876779Y-72938580D01*
X129893205Y-72927682D01*
X129907312Y-72901746D01*
X129910127Y-72877530D01*
X129903088Y-72846248D01*
X129884694Y-72823569D01*
X129859022Y-72811186D01*
X129830152Y-72810790D01*
X129802166Y-72824073D01*
X129795518Y-72829995D01*
X129778390Y-72857081D01*
X129775382Y-72886114D01*
X129719417Y-72886114D01*
X129717884Y-72878826D01*
X129719319Y-72855103D01*
X129732943Y-72821498D01*
X129758113Y-72790003D01*
X129789840Y-72765633D01*
X129819954Y-72753922D01*
X129859509Y-72753908D01*
X129898948Y-72766322D01*
G37*
G36*
X134176555Y-72754115D02*
G01*
X134207047Y-72763871D01*
X134246613Y-72786870D01*
X134271449Y-72817650D01*
X134282392Y-72857580D01*
X134282579Y-72887376D01*
X134274103Y-72930822D01*
X134254176Y-72963542D01*
X134220560Y-72989000D01*
X134215094Y-72991943D01*
X134185756Y-73000731D01*
X134150049Y-73002885D01*
X134117314Y-72998056D01*
X134111026Y-72995855D01*
X134094602Y-72985808D01*
X134075438Y-72969749D01*
X134058433Y-72952377D01*
X134048482Y-72938386D01*
X134047568Y-72934989D01*
X134039446Y-72933189D01*
X134016435Y-72931549D01*
X133980568Y-72930127D01*
X133933877Y-72928980D01*
X133878396Y-72928163D01*
X133816156Y-72927734D01*
X133784834Y-72927682D01*
X133522101Y-72927682D01*
X133524658Y-72883261D01*
X133524908Y-72878914D01*
X134090597Y-72878914D01*
X134096258Y-72905199D01*
X134107410Y-72922310D01*
X134130558Y-72939259D01*
X134161044Y-72945351D01*
X134192471Y-72939615D01*
X134199533Y-72936321D01*
X134215970Y-72919330D01*
X134226254Y-72893440D01*
X134227920Y-72866267D01*
X134225454Y-72856300D01*
X134210624Y-72833982D01*
X134188200Y-72816513D01*
X134165089Y-72809233D01*
X134164538Y-72809227D01*
X134135529Y-72815931D01*
X134110437Y-72833006D01*
X134099268Y-72848633D01*
X134090597Y-72878914D01*
X133524908Y-72878914D01*
X133527215Y-72838841D01*
X133779194Y-72836599D01*
X134031173Y-72834358D01*
X134066869Y-72797161D01*
X134102609Y-72767066D01*
X134138215Y-72752945D01*
X134176555Y-72754115D01*
G37*
G36*
X130906508Y-72698789D02*
G01*
X130907331Y-72721057D01*
X130907976Y-72754907D01*
X130908392Y-72797669D01*
X130908528Y-72843071D01*
X130908272Y-72899611D01*
X130907413Y-72941125D01*
X130905814Y-72969502D01*
X130903340Y-72986630D01*
X130899853Y-72994400D01*
X130897528Y-72995370D01*
X130881963Y-72989860D01*
X130877284Y-72986125D01*
X130864165Y-72981233D01*
X130850765Y-72986125D01*
X130830984Y-72991472D01*
X130800824Y-72994172D01*
X130766617Y-72994253D01*
X130734693Y-72991746D01*
X130711383Y-72986678D01*
X130708544Y-72985474D01*
X130688837Y-72968697D01*
X130676819Y-72940199D01*
X130671841Y-72898207D01*
X130671632Y-72885377D01*
X130730846Y-72885377D01*
X130733507Y-72916442D01*
X130743607Y-72934588D01*
X130764326Y-72942918D01*
X130791468Y-72944604D01*
X130818723Y-72942802D01*
X130834190Y-72936318D01*
X130840542Y-72928238D01*
X130847061Y-72906523D01*
X130849000Y-72879235D01*
X130846470Y-72853578D01*
X130839579Y-72836757D01*
X130839147Y-72836303D01*
X130824993Y-72830153D01*
X130801211Y-72826545D01*
X130790073Y-72826149D01*
X130758723Y-72828888D01*
X130740537Y-72839219D01*
X130732342Y-72860312D01*
X130730846Y-72885377D01*
X130671632Y-72885377D01*
X130671619Y-72884558D01*
X130675301Y-72841662D01*
X130685592Y-72807726D01*
X130701359Y-72785813D01*
X130710073Y-72780639D01*
X130729460Y-72776805D01*
X130757303Y-72775341D01*
X130787924Y-72776032D01*
X130815645Y-72778663D01*
X130834789Y-72783017D01*
X130839147Y-72785536D01*
X130845207Y-72788009D01*
X130848353Y-72778380D01*
X130849298Y-72754333D01*
X130849301Y-72752520D01*
X130850076Y-72726721D01*
X130854204Y-72712504D01*
X130864392Y-72704544D01*
X130875946Y-72700062D01*
X130894871Y-72693742D01*
X130905254Y-72690800D01*
X130905560Y-72690773D01*
X130906508Y-72698789D01*
G37*
G36*
X131107170Y-72775785D02*
G01*
X131131546Y-72777598D01*
X131147532Y-72781738D01*
X131159394Y-72789120D01*
X131166974Y-72796151D01*
X131179706Y-72812289D01*
X131185965Y-72831751D01*
X131187735Y-72861006D01*
X131187742Y-72863839D01*
X131187742Y-72910760D01*
X131098281Y-72910760D01*
X131058425Y-72911012D01*
X131032658Y-72912090D01*
X131018147Y-72914479D01*
X131012062Y-72918662D01*
X131011573Y-72925123D01*
X131011654Y-72925566D01*
X131015048Y-72932372D01*
X131024134Y-72936959D01*
X131041927Y-72939901D01*
X131071442Y-72941775D01*
X131101904Y-72942793D01*
X131141402Y-72944215D01*
X131166638Y-72946183D01*
X131180273Y-72949198D01*
X131184966Y-72953760D01*
X131184299Y-72958292D01*
X131179719Y-72977334D01*
X131179281Y-72983370D01*
X131176052Y-72988939D01*
X131164615Y-72992482D01*
X131142340Y-72994348D01*
X131106600Y-72994882D01*
X131092555Y-72994834D01*
X131054177Y-72993945D01*
X131020755Y-72991984D01*
X130996827Y-72989280D01*
X130988614Y-72987319D01*
X130968855Y-72976112D01*
X130956247Y-72959481D01*
X130949400Y-72933969D01*
X130946924Y-72896122D01*
X130946825Y-72883382D01*
X130947120Y-72859287D01*
X131011189Y-72859287D01*
X131015812Y-72864980D01*
X131028927Y-72867642D01*
X131054005Y-72868416D01*
X131069287Y-72868455D01*
X131100558Y-72868138D01*
X131118379Y-72866426D01*
X131126220Y-72862174D01*
X131127551Y-72854235D01*
X131126988Y-72849417D01*
X131124082Y-72839129D01*
X131116397Y-72833405D01*
X131099940Y-72830928D01*
X131070717Y-72830380D01*
X131069287Y-72830380D01*
X131039495Y-72830880D01*
X131022622Y-72833259D01*
X131014674Y-72838834D01*
X131011658Y-72848922D01*
X131011587Y-72849417D01*
X131011189Y-72859287D01*
X130947120Y-72859287D01*
X130947244Y-72849199D01*
X130949330Y-72827314D01*
X130954329Y-72813107D01*
X130963485Y-72801959D01*
X130970453Y-72795707D01*
X130983649Y-72785845D01*
X130998133Y-72779790D01*
X131018336Y-72776640D01*
X131048694Y-72775490D01*
X131070144Y-72775383D01*
X131107170Y-72775785D01*
G37*
G36*
X131529965Y-72716255D02*
G01*
X131565861Y-72716816D01*
X131590601Y-72718230D01*
X131607071Y-72720893D01*
X131618154Y-72725195D01*
X131626734Y-72731532D01*
X131632330Y-72736924D01*
X131646871Y-72760433D01*
X131653274Y-72789656D01*
X131650984Y-72817912D01*
X131640642Y-72837396D01*
X131632637Y-72848823D01*
X131638321Y-72858230D01*
X131639812Y-72859500D01*
X131653708Y-72880922D01*
X131658255Y-72910049D01*
X131654227Y-72941050D01*
X131642395Y-72968092D01*
X131623531Y-72985345D01*
X131623132Y-72985530D01*
X131604838Y-72989705D01*
X131571815Y-72992831D01*
X131526232Y-72994766D01*
X131475018Y-72995370D01*
X131348501Y-72995370D01*
X131348501Y-72876343D01*
X131407728Y-72876343D01*
X131407728Y-72906529D01*
X131407728Y-72936715D01*
X131498684Y-72934314D01*
X131589640Y-72931912D01*
X131589640Y-72906529D01*
X131589640Y-72881146D01*
X131498684Y-72878745D01*
X131407728Y-72876343D01*
X131348501Y-72876343D01*
X131348501Y-72855763D01*
X131348501Y-72775383D01*
X131407728Y-72775383D01*
X131407728Y-72800766D01*
X131407728Y-72826149D01*
X131495664Y-72826149D01*
X131536902Y-72825671D01*
X131564066Y-72823979D01*
X131579980Y-72820686D01*
X131587472Y-72815406D01*
X131588470Y-72813458D01*
X131592337Y-72797707D01*
X131588319Y-72786898D01*
X131574296Y-72780160D01*
X131548148Y-72776625D01*
X131507754Y-72775422D01*
X131495664Y-72775383D01*
X131407728Y-72775383D01*
X131348501Y-72775383D01*
X131348501Y-72716156D01*
X131480032Y-72716156D01*
X131529965Y-72716255D01*
G37*
G36*
X131737178Y-72777990D02*
G01*
X131746098Y-72784756D01*
X131746169Y-72785536D01*
X131748667Y-72791423D01*
X131756323Y-72785536D01*
X131771004Y-72778853D01*
X131794068Y-72775481D01*
X131798628Y-72775383D01*
X131819838Y-72776790D01*
X131828934Y-72782874D01*
X131830650Y-72794421D01*
X131826884Y-72816392D01*
X131813719Y-72827417D01*
X131788475Y-72830380D01*
X131758861Y-72830380D01*
X131756439Y-72912875D01*
X131754018Y-72995370D01*
X131726121Y-72995370D01*
X131705322Y-72993805D01*
X131692900Y-72990012D01*
X131692583Y-72989729D01*
X131690421Y-72979551D01*
X131688642Y-72955914D01*
X131687424Y-72922279D01*
X131686944Y-72882109D01*
X131686942Y-72879736D01*
X131686942Y-72775383D01*
X131716556Y-72775383D01*
X131737178Y-72777990D01*
G37*
G36*
X132013002Y-72775794D02*
G01*
X132037239Y-72777643D01*
X132053147Y-72781859D01*
X132065020Y-72789368D01*
X132072303Y-72796151D01*
X132085036Y-72812289D01*
X132091295Y-72831751D01*
X132093064Y-72861006D01*
X132093071Y-72863839D01*
X132093071Y-72910760D01*
X132004231Y-72910760D01*
X131963057Y-72911217D01*
X131936255Y-72912814D01*
X131921296Y-72915886D01*
X131915648Y-72920769D01*
X131915390Y-72922546D01*
X131918392Y-72932074D01*
X131929034Y-72938515D01*
X131949772Y-72942396D01*
X131983062Y-72944240D01*
X132018519Y-72944604D01*
X132054814Y-72944960D01*
X132077038Y-72946384D01*
X132088034Y-72949411D01*
X132090644Y-72954575D01*
X132089746Y-72957987D01*
X132085093Y-72977047D01*
X132084610Y-72983370D01*
X132081398Y-72988932D01*
X132070006Y-72992457D01*
X132047802Y-72994289D01*
X132012152Y-72994773D01*
X131997885Y-72994702D01*
X131960150Y-72993983D01*
X131928004Y-72992582D01*
X131905709Y-72990727D01*
X131898468Y-72989367D01*
X131879106Y-72979967D01*
X131866617Y-72966545D01*
X131859588Y-72945602D01*
X131856603Y-72913640D01*
X131856163Y-72884679D01*
X131856394Y-72859287D01*
X131916518Y-72859287D01*
X131921142Y-72864980D01*
X131934257Y-72867642D01*
X131959334Y-72868416D01*
X131974617Y-72868455D01*
X132005888Y-72868138D01*
X132023709Y-72866426D01*
X132031550Y-72862174D01*
X132032881Y-72854235D01*
X132032317Y-72849417D01*
X132029412Y-72839129D01*
X132021727Y-72833405D01*
X132005270Y-72830928D01*
X131976047Y-72830380D01*
X131974617Y-72830380D01*
X131944825Y-72830880D01*
X131927951Y-72833259D01*
X131920004Y-72838834D01*
X131916988Y-72848922D01*
X131916917Y-72849417D01*
X131916518Y-72859287D01*
X131856394Y-72859287D01*
X131856491Y-72848648D01*
X131858149Y-72825389D01*
X131862143Y-72810760D01*
X131869479Y-72800613D01*
X131878456Y-72792919D01*
X131892238Y-72784173D01*
X131909230Y-72778859D01*
X131933805Y-72776194D01*
X131970336Y-72775392D01*
X131976143Y-72775383D01*
X132013002Y-72775794D01*
G37*
G36*
X132194604Y-72742331D02*
G01*
X132195706Y-72763721D01*
X132201397Y-72773102D01*
X132215254Y-72775357D01*
X132218814Y-72775383D01*
X132235751Y-72777300D01*
X132240321Y-72786128D01*
X132238980Y-72796536D01*
X132230869Y-72813302D01*
X132214770Y-72817688D01*
X132202600Y-72819237D01*
X132196815Y-72826822D01*
X132195296Y-72844851D01*
X132195447Y-72857878D01*
X132197718Y-72897029D01*
X132203416Y-72922267D01*
X132213831Y-72936467D01*
X132230251Y-72942503D01*
X132233599Y-72942911D01*
X132251344Y-72946532D01*
X132256765Y-72956193D01*
X132255574Y-72970409D01*
X132251825Y-72986019D01*
X132243266Y-72993253D01*
X132224739Y-72995294D01*
X132215126Y-72995370D01*
X132184109Y-72991636D01*
X132163429Y-72979311D01*
X132162030Y-72977862D01*
X132147773Y-72955720D01*
X132139206Y-72924441D01*
X132135601Y-72880892D01*
X132135377Y-72863166D01*
X132133931Y-72834488D01*
X132129212Y-72820260D01*
X132123858Y-72817688D01*
X132115797Y-72811004D01*
X132116384Y-72796536D01*
X132121974Y-72780649D01*
X132127902Y-72775383D01*
X132133268Y-72768060D01*
X132135377Y-72751420D01*
X132138239Y-72734140D01*
X132150004Y-72723883D01*
X132164990Y-72718368D01*
X132194604Y-72709279D01*
X132194604Y-72742331D01*
G37*
G36*
X132425650Y-72775651D02*
G01*
X132452795Y-72776930D01*
X132470573Y-72779932D01*
X132482761Y-72785371D01*
X132493134Y-72793961D01*
X132495355Y-72796151D01*
X132504629Y-72806558D01*
X132510640Y-72817998D01*
X132514089Y-72834220D01*
X132515680Y-72858972D01*
X132516113Y-72896003D01*
X132516123Y-72907050D01*
X132515905Y-72946900D01*
X132514931Y-72972544D01*
X132512722Y-72986696D01*
X132508799Y-72992070D01*
X132502680Y-72991378D01*
X132501316Y-72990822D01*
X132481998Y-72986151D01*
X132473818Y-72986155D01*
X132459874Y-72987402D01*
X132433877Y-72989241D01*
X132400669Y-72991335D01*
X132389207Y-72992010D01*
X132350782Y-72993480D01*
X132325012Y-72992267D01*
X132307778Y-72987944D01*
X132298251Y-72982600D01*
X132286093Y-72970211D01*
X132280433Y-72952054D01*
X132279214Y-72927397D01*
X132279987Y-72918516D01*
X132338441Y-72918516D01*
X132343277Y-72934070D01*
X132349017Y-72939000D01*
X132370676Y-72943160D01*
X132399357Y-72943508D01*
X132426447Y-72940342D01*
X132440530Y-72935845D01*
X132453721Y-72923705D01*
X132456896Y-72914692D01*
X132453159Y-72907921D01*
X132439943Y-72904050D01*
X132414235Y-72902447D01*
X132397668Y-72902299D01*
X132366468Y-72902788D01*
X132348590Y-72904910D01*
X132340444Y-72909649D01*
X132338444Y-72917985D01*
X132338441Y-72918516D01*
X132279987Y-72918516D01*
X132281745Y-72898303D01*
X132290942Y-72878587D01*
X132309211Y-72866800D01*
X132338960Y-72861493D01*
X132382593Y-72861218D01*
X132388748Y-72861449D01*
X132422940Y-72862401D01*
X132443519Y-72861475D01*
X132453740Y-72858141D01*
X132456857Y-72851868D01*
X132456915Y-72850322D01*
X132453968Y-72839484D01*
X132443430Y-72832328D01*
X132422707Y-72828184D01*
X132389200Y-72826384D01*
X132363132Y-72826149D01*
X132296136Y-72826149D01*
X132296136Y-72800766D01*
X132296136Y-72775383D01*
X132385361Y-72775383D01*
X132425650Y-72775651D01*
G37*
G36*
X132879417Y-72777990D02*
G01*
X132888337Y-72784756D01*
X132888408Y-72785536D01*
X132890905Y-72791423D01*
X132898561Y-72785536D01*
X132912525Y-72779999D01*
X132938822Y-72776405D01*
X132966634Y-72775383D01*
X132999164Y-72776205D01*
X133020156Y-72779611D01*
X133034953Y-72787011D01*
X133045321Y-72796151D01*
X133054637Y-72806617D01*
X133060657Y-72818131D01*
X133064096Y-72834469D01*
X133065667Y-72859409D01*
X133066082Y-72896726D01*
X133066089Y-72906145D01*
X133066089Y-72995370D01*
X133036782Y-72995370D01*
X133007475Y-72995370D01*
X133005053Y-72912875D01*
X133002632Y-72830380D01*
X132957525Y-72827799D01*
X132927740Y-72827280D01*
X132907985Y-72831602D01*
X132896223Y-72843491D01*
X132890415Y-72865670D01*
X132888524Y-72900867D01*
X132888408Y-72920257D01*
X132888408Y-72995370D01*
X132858794Y-72995370D01*
X132829181Y-72995370D01*
X132829181Y-72885377D01*
X132829181Y-72775383D01*
X132858794Y-72775383D01*
X132879417Y-72777990D01*
G37*
G36*
X133263658Y-72775878D02*
G01*
X133288789Y-72777935D01*
X133305758Y-72782410D01*
X133318936Y-72790160D01*
X133324492Y-72794683D01*
X133338232Y-72809463D01*
X133345316Y-72827361D01*
X133348049Y-72854744D01*
X133348231Y-72860256D01*
X133349534Y-72906529D01*
X133258578Y-72908931D01*
X133216254Y-72910560D01*
X133188539Y-72913022D01*
X133173127Y-72916669D01*
X133167714Y-72921852D01*
X133167622Y-72922832D01*
X133170686Y-72932245D01*
X133181506Y-72938611D01*
X133202519Y-72942444D01*
X133236164Y-72944258D01*
X133270833Y-72944604D01*
X133306907Y-72944775D01*
X133329085Y-72945829D01*
X133340395Y-72948571D01*
X133343864Y-72953811D01*
X133342517Y-72962355D01*
X133342175Y-72963641D01*
X133338089Y-72981203D01*
X133336958Y-72989024D01*
X133329133Y-72992230D01*
X133308523Y-72994221D01*
X133279217Y-72995073D01*
X133245304Y-72994859D01*
X133210871Y-72993652D01*
X133180007Y-72991525D01*
X133156800Y-72988552D01*
X133146469Y-72985600D01*
X133128109Y-72972861D01*
X133116646Y-72956388D01*
X133110598Y-72932207D01*
X133108483Y-72896339D01*
X133108395Y-72883375D01*
X133108791Y-72859287D01*
X133168750Y-72859287D01*
X133173374Y-72864980D01*
X133186489Y-72867642D01*
X133211566Y-72868416D01*
X133226849Y-72868455D01*
X133258120Y-72868138D01*
X133275941Y-72866426D01*
X133283782Y-72862174D01*
X133285113Y-72854235D01*
X133284549Y-72849417D01*
X133281643Y-72839129D01*
X133273959Y-72833405D01*
X133257502Y-72830928D01*
X133228279Y-72830380D01*
X133226849Y-72830380D01*
X133197057Y-72830880D01*
X133180183Y-72833259D01*
X133172236Y-72838834D01*
X133169220Y-72848922D01*
X133169149Y-72849417D01*
X133168750Y-72859287D01*
X133108791Y-72859287D01*
X133108964Y-72848760D01*
X133111425Y-72826298D01*
X133116910Y-72811235D01*
X133126551Y-72798820D01*
X133129163Y-72796151D01*
X133140633Y-72786151D01*
X133153435Y-72779991D01*
X133171833Y-72776756D01*
X133200090Y-72775533D01*
X133225993Y-72775383D01*
X133263658Y-72775878D01*
G37*
G36*
X130823918Y-72293105D02*
G01*
X130823918Y-72377715D01*
X130426249Y-72377715D01*
X130028581Y-72377715D01*
X130028581Y-72293105D01*
X130028581Y-72208495D01*
X130426249Y-72208495D01*
X130823918Y-72208495D01*
X130823918Y-72293105D01*
G37*
G36*
X131775562Y-71579833D02*
G01*
X131771831Y-71606725D01*
X131767424Y-71641038D01*
X131764789Y-71662758D01*
X131758805Y-71713524D01*
X131448113Y-71717755D01*
X131367476Y-71718872D01*
X131302046Y-71719884D01*
X131250112Y-71720914D01*
X131209960Y-71722084D01*
X131179879Y-71723516D01*
X131158155Y-71725333D01*
X131143076Y-71727655D01*
X131132929Y-71730606D01*
X131126003Y-71734307D01*
X131120583Y-71738881D01*
X131118162Y-71741274D01*
X131104020Y-71765851D01*
X131098107Y-71798602D01*
X131100398Y-71832929D01*
X131110872Y-71862231D01*
X131118610Y-71872385D01*
X131124376Y-71877688D01*
X131131172Y-71881926D01*
X131140892Y-71885258D01*
X131155427Y-71887839D01*
X131176672Y-71889828D01*
X131206519Y-71891380D01*
X131246860Y-71892654D01*
X131299589Y-71893806D01*
X131366599Y-71894993D01*
X131397372Y-71895505D01*
X131471196Y-71896791D01*
X131530137Y-71898041D01*
X131576232Y-71899407D01*
X131611520Y-71901039D01*
X131638038Y-71903090D01*
X131657825Y-71905710D01*
X131672917Y-71909053D01*
X131685353Y-71913268D01*
X131695403Y-71917673D01*
X131739343Y-71944552D01*
X131771308Y-71979257D01*
X131792269Y-72023640D01*
X131803197Y-72079554D01*
X131805397Y-72127643D01*
X131800462Y-72199834D01*
X131785430Y-72258795D01*
X131759961Y-72305124D01*
X131723714Y-72339418D01*
X131676347Y-72362273D01*
X131670367Y-72364137D01*
X131656412Y-72367628D01*
X131639193Y-72370483D01*
X131617003Y-72372762D01*
X131588133Y-72374526D01*
X131550876Y-72375835D01*
X131503523Y-72376748D01*
X131444367Y-72377326D01*
X131371699Y-72377628D01*
X131284160Y-72377715D01*
X130943677Y-72377715D01*
X130947777Y-72312142D01*
X130950254Y-72277932D01*
X130953001Y-72248283D01*
X130955473Y-72228985D01*
X130955747Y-72227532D01*
X130959616Y-72208495D01*
X131271372Y-72208495D01*
X131352296Y-72208464D01*
X131418027Y-72208314D01*
X131470291Y-72207952D01*
X131510816Y-72207288D01*
X131541332Y-72206232D01*
X131563565Y-72204692D01*
X131579244Y-72202578D01*
X131590096Y-72199800D01*
X131597849Y-72196266D01*
X131604232Y-72191885D01*
X131605421Y-72190958D01*
X131618378Y-72178543D01*
X131625089Y-72163742D01*
X131627507Y-72140751D01*
X131627715Y-72124581D01*
X131627661Y-72102952D01*
X131626381Y-72085573D01*
X131622198Y-72071937D01*
X131613437Y-72061542D01*
X131598420Y-72053882D01*
X131575472Y-72048452D01*
X131542916Y-72044748D01*
X131499076Y-72042265D01*
X131442275Y-72040498D01*
X131370837Y-72038941D01*
X131341292Y-72038337D01*
X131263161Y-72036572D01*
X131199899Y-72034650D01*
X131149452Y-72032310D01*
X131109767Y-72029285D01*
X131078790Y-72025311D01*
X131054467Y-72020124D01*
X131034747Y-72013458D01*
X131017574Y-72005050D01*
X131000897Y-71994635D01*
X131000604Y-71994438D01*
X130969149Y-71966340D01*
X130947029Y-71929595D01*
X130933254Y-71881865D01*
X130926836Y-71820813D01*
X130926806Y-71820142D01*
X130927224Y-71748290D01*
X130935902Y-71689915D01*
X130953568Y-71643341D01*
X130980952Y-71606890D01*
X131018785Y-71578886D01*
X131035443Y-71570391D01*
X131045474Y-71566056D01*
X131056202Y-71562477D01*
X131069308Y-71559567D01*
X131086476Y-71557239D01*
X131109386Y-71555407D01*
X131139722Y-71553984D01*
X131179164Y-71552883D01*
X131229396Y-71552018D01*
X131292098Y-71551303D01*
X131368953Y-71550649D01*
X131426934Y-71550220D01*
X131780351Y-71547675D01*
X131775562Y-71579833D01*
G37*
G36*
X132157330Y-71609877D02*
G01*
X132176945Y-71630333D01*
X132206434Y-71661217D01*
X132244032Y-71700673D01*
X132287974Y-71746847D01*
X132336493Y-71797882D01*
X132387824Y-71851925D01*
X132436080Y-71902775D01*
X132655730Y-72134330D01*
X132657955Y-71841432D01*
X132660179Y-71548534D01*
X132740450Y-71548534D01*
X132820720Y-71548534D01*
X132820720Y-71963125D01*
X132820720Y-72377715D01*
X132737154Y-72377715D01*
X132653587Y-72377715D01*
X132417750Y-72131275D01*
X132364108Y-72075192D01*
X132312268Y-72020938D01*
X132263825Y-71970188D01*
X132220376Y-71924614D01*
X132183517Y-71885893D01*
X132154845Y-71855700D01*
X132135956Y-71835708D01*
X132133439Y-71833023D01*
X132084967Y-71781213D01*
X132084789Y-72079464D01*
X132084610Y-72377715D01*
X132000000Y-72377715D01*
X131915390Y-72377715D01*
X131915390Y-71963125D01*
X131915390Y-71548534D01*
X132006810Y-71548534D01*
X132098229Y-71548534D01*
X132157330Y-71609877D01*
G37*
G36*
X133438375Y-71548779D02*
G01*
X133527215Y-71548831D01*
X133715626Y-71893469D01*
X133755563Y-71966511D01*
X133794316Y-72037367D01*
X133830854Y-72104157D01*
X133864151Y-72165001D01*
X133893176Y-72218019D01*
X133916901Y-72261332D01*
X133934296Y-72293058D01*
X133942456Y-72307912D01*
X133980875Y-72377715D01*
X133883029Y-72377715D01*
X133785184Y-72377715D01*
X133736750Y-72280413D01*
X133688315Y-72183111D01*
X133508254Y-72183111D01*
X133328192Y-72183111D01*
X133362102Y-72115669D01*
X133396011Y-72048227D01*
X133505738Y-72045866D01*
X133615465Y-72043504D01*
X133529035Y-71885025D01*
X133503340Y-71838261D01*
X133480289Y-71796975D01*
X133461117Y-71763325D01*
X133447061Y-71739473D01*
X133439356Y-71727576D01*
X133438375Y-71726635D01*
X133433159Y-71733857D01*
X133421087Y-71754236D01*
X133403151Y-71785938D01*
X133380343Y-71827130D01*
X133353654Y-71875978D01*
X133324079Y-71930646D01*
X133292607Y-71989302D01*
X133260233Y-72050110D01*
X133227947Y-72111238D01*
X133196743Y-72170850D01*
X133167612Y-72227113D01*
X133167397Y-72227532D01*
X133090158Y-72377715D01*
X132993166Y-72377715D01*
X132896174Y-72377715D01*
X132936711Y-72303373D01*
X132949316Y-72280284D01*
X132968991Y-72244279D01*
X132994683Y-72197284D01*
X133025337Y-72141227D01*
X133059900Y-72078035D01*
X133097318Y-72009635D01*
X133136537Y-71937955D01*
X133163391Y-71888880D01*
X133349534Y-71548728D01*
X133438375Y-71548779D01*
G37*
G36*
X130823918Y-71963125D02*
G01*
X130823918Y-72047735D01*
X130426249Y-72047735D01*
X130028581Y-72047735D01*
X130028581Y-71963125D01*
X130028581Y-71878514D01*
X130426249Y-71878514D01*
X130823918Y-71878514D01*
X130823918Y-71963125D01*
G37*
G36*
X130823918Y-71633145D02*
G01*
X130823918Y-71717755D01*
X130426249Y-71717755D01*
X130028581Y-71717755D01*
X130028581Y-71633145D01*
X130028581Y-71548534D01*
X130426249Y-71548534D01*
X130823918Y-71548534D01*
X130823918Y-71633145D01*
G37*
G36*
X110111111Y-72355555D02*
G01*
X110113105Y-72375334D01*
X110111111Y-72377777D01*
X110101202Y-72375489D01*
X110100000Y-72366666D01*
X110106098Y-72352948D01*
X110111111Y-72355555D01*
G37*
G36*
X110710937Y-72360210D02*
G01*
X110708333Y-72366666D01*
X110693356Y-72382566D01*
X110690683Y-72383333D01*
X110683524Y-72370438D01*
X110683333Y-72366666D01*
X110696145Y-72350640D01*
X110700983Y-72350000D01*
X110710937Y-72360210D01*
G37*
G36*
X111294270Y-72360210D02*
G01*
X111291666Y-72366666D01*
X111276689Y-72382566D01*
X111274016Y-72383333D01*
X111266857Y-72370438D01*
X111266666Y-72366666D01*
X111279479Y-72350640D01*
X111284316Y-72350000D01*
X111294270Y-72360210D01*
G37*
G36*
X110694501Y-72446394D02*
G01*
X110699186Y-72475614D01*
X110699744Y-72495833D01*
X110698098Y-72545329D01*
X110693350Y-72564470D01*
X110686487Y-72552206D01*
X110679835Y-72517054D01*
X110678773Y-72474423D01*
X110686021Y-72446221D01*
X110694501Y-72446394D01*
G37*
G36*
X111277851Y-72444731D02*
G01*
X111282981Y-72477887D01*
X111283333Y-72496666D01*
X111281581Y-72546675D01*
X111276517Y-72564021D01*
X111268422Y-72548497D01*
X111260208Y-72513541D01*
X111257595Y-72471831D01*
X111265907Y-72444126D01*
X111266458Y-72443541D01*
X111277851Y-72444731D01*
G37*
G36*
X110110942Y-72449168D02*
G01*
X110116354Y-72484376D01*
X110116666Y-72499016D01*
X110115560Y-72545259D01*
X110110744Y-72563920D01*
X110099970Y-72560716D01*
X110094444Y-72555555D01*
X110084982Y-72529249D01*
X110084192Y-72489887D01*
X110091239Y-72454579D01*
X110100000Y-72441666D01*
X110110942Y-72449168D01*
G37*
G36*
X112163683Y-72437957D02*
G01*
X112188697Y-72448697D01*
X112193638Y-72462521D01*
X112168552Y-72466666D01*
X112134279Y-72478951D01*
X112111564Y-72516666D01*
X112091774Y-72556325D01*
X112076687Y-72563551D01*
X112069138Y-72539195D01*
X112069827Y-72504166D01*
X112076566Y-72462239D01*
X112092919Y-72442974D01*
X112122863Y-72436197D01*
X112163683Y-72437957D01*
G37*
G36*
X110565127Y-72457402D02*
G01*
X110588120Y-72505083D01*
X110592376Y-72520833D01*
X110595856Y-72556440D01*
X110586094Y-72565853D01*
X110568896Y-72550231D01*
X110550686Y-72512500D01*
X110531445Y-72458333D01*
X110499056Y-72497679D01*
X110475764Y-72533079D01*
X110466666Y-72560179D01*
X110457048Y-72581147D01*
X110450000Y-72583333D01*
X110438828Y-72568719D01*
X110433425Y-72532943D01*
X110433333Y-72527022D01*
X110438866Y-72484826D01*
X110461933Y-72460323D01*
X110484428Y-72449546D01*
X110531722Y-72439654D01*
X110565127Y-72457402D01*
G37*
G36*
X111157142Y-72426190D02*
G01*
X111180566Y-72463661D01*
X111173761Y-72502785D01*
X111142424Y-72542424D01*
X111105928Y-72574145D01*
X111079435Y-72580320D01*
X111052881Y-72562016D01*
X111044249Y-72552854D01*
X111021256Y-72513842D01*
X111060612Y-72513842D01*
X111066728Y-72525074D01*
X111096074Y-72540126D01*
X111126110Y-72528038D01*
X111139854Y-72507044D01*
X111142447Y-72470292D01*
X111126834Y-72441367D01*
X111107136Y-72433333D01*
X111078969Y-72447357D01*
X111061224Y-72479271D01*
X111060612Y-72513842D01*
X111021256Y-72513842D01*
X111019617Y-72511062D01*
X111024899Y-72467671D01*
X111042611Y-72437041D01*
X111080776Y-72405422D01*
X111124461Y-72404888D01*
X111157142Y-72426190D01*
G37*
G36*
X111955834Y-72413549D02*
G01*
X111977791Y-72447210D01*
X111982853Y-72490500D01*
X111969189Y-72532937D01*
X111946291Y-72557388D01*
X111914149Y-72577768D01*
X111892083Y-72580036D01*
X111863283Y-72565787D01*
X111862500Y-72565331D01*
X111838233Y-72534920D01*
X111835896Y-72503199D01*
X111866666Y-72503199D01*
X111878126Y-72526100D01*
X111903943Y-72531187D01*
X111931276Y-72519918D01*
X111947226Y-72494063D01*
X111943834Y-72459218D01*
X111935602Y-72445602D01*
X111911066Y-72439280D01*
X111885407Y-72456004D01*
X111868645Y-72487405D01*
X111866666Y-72503199D01*
X111835896Y-72503199D01*
X111835121Y-72492675D01*
X111849584Y-72449104D01*
X111878044Y-72414719D01*
X111916919Y-72400029D01*
X111918812Y-72400000D01*
X111955834Y-72413549D01*
G37*
G36*
X110930359Y-72329230D02*
G01*
X110932848Y-72390606D01*
X110933078Y-72420833D01*
X110933333Y-72566666D01*
X110877675Y-72566666D01*
X110832485Y-72559382D01*
X110807165Y-72533763D01*
X110804931Y-72529166D01*
X110798786Y-72491730D01*
X110826645Y-72491730D01*
X110835639Y-72520465D01*
X110866873Y-72533313D01*
X110868449Y-72533333D01*
X110893685Y-72522279D01*
X110900000Y-72492650D01*
X110892312Y-72452769D01*
X110871603Y-72441521D01*
X110843718Y-72458662D01*
X110826645Y-72491730D01*
X110798786Y-72491730D01*
X110796592Y-72478362D01*
X110814701Y-72434376D01*
X110854685Y-72407816D01*
X110857611Y-72407025D01*
X110892522Y-72386736D01*
X110900255Y-72360693D01*
X110907880Y-72319250D01*
X110916666Y-72300000D01*
X110925020Y-72299432D01*
X110930359Y-72329230D01*
G37*
G36*
X111447568Y-72324845D02*
G01*
X111450000Y-72358333D01*
X111454186Y-72396889D01*
X111464479Y-72416162D01*
X111466666Y-72416666D01*
X111482849Y-72429349D01*
X111483333Y-72433333D01*
X111469834Y-72448119D01*
X111458333Y-72450000D01*
X111438391Y-72462929D01*
X111434873Y-72494137D01*
X111448972Y-72532252D01*
X111449597Y-72533252D01*
X111464273Y-72547890D01*
X111481207Y-72536573D01*
X111490478Y-72524918D01*
X111509542Y-72507646D01*
X111516297Y-72517879D01*
X111508619Y-72551384D01*
X111506550Y-72556970D01*
X111483824Y-72579639D01*
X111450983Y-72579729D01*
X111421605Y-72558110D01*
X111417342Y-72551262D01*
X111402602Y-72499219D01*
X111399923Y-72428386D01*
X111409203Y-72354166D01*
X111423045Y-72312025D01*
X111437309Y-72302402D01*
X111447568Y-72324845D01*
G37*
G36*
X110342036Y-72301627D02*
G01*
X110347676Y-72342518D01*
X110349963Y-72412052D01*
X110350000Y-72424016D01*
X110350000Y-72566666D01*
X110291254Y-72566666D01*
X110247984Y-72561600D01*
X110224479Y-72541589D01*
X110216251Y-72523908D01*
X110212372Y-72488672D01*
X110237567Y-72488672D01*
X110247004Y-72518650D01*
X110278484Y-72533184D01*
X110282810Y-72533333D01*
X110309507Y-72523569D01*
X110316666Y-72492650D01*
X110307910Y-72452494D01*
X110285465Y-72438609D01*
X110255068Y-72454461D01*
X110254454Y-72455068D01*
X110237567Y-72488672D01*
X110212372Y-72488672D01*
X110210378Y-72470563D01*
X110233450Y-72428647D01*
X110275481Y-72406723D01*
X110306860Y-72390026D01*
X110316576Y-72355011D01*
X110316666Y-72349176D01*
X110321993Y-72311365D01*
X110333333Y-72291666D01*
X110342036Y-72301627D01*
G37*
G36*
X111716935Y-72437917D02*
G01*
X111740989Y-72449048D01*
X111741666Y-72450000D01*
X111735153Y-72461803D01*
X111702727Y-72466658D01*
X111700983Y-72466666D01*
X111664722Y-72471022D01*
X111651279Y-72489357D01*
X111650000Y-72507111D01*
X111661161Y-72543216D01*
X111679166Y-72555344D01*
X111696216Y-72562586D01*
X111683593Y-72570847D01*
X111670833Y-72575177D01*
X111645402Y-72590182D01*
X111634794Y-72620208D01*
X111633333Y-72651943D01*
X111629533Y-72692966D01*
X111620072Y-72715299D01*
X111616666Y-72716666D01*
X111606985Y-72701723D01*
X111601066Y-72663706D01*
X111600183Y-72637500D01*
X111602638Y-72573323D01*
X111608530Y-72510676D01*
X111610697Y-72495833D01*
X111620294Y-72454801D01*
X111637390Y-72437227D01*
X111672217Y-72433344D01*
X111676197Y-72433333D01*
X111716935Y-72437917D01*
G37*
G36*
X112428528Y-72431447D02*
G01*
X112433330Y-72463679D01*
X112433333Y-72464737D01*
X112447363Y-72516960D01*
X112469827Y-72540338D01*
X112493600Y-72565380D01*
X112489880Y-72580323D01*
X112464399Y-72577741D01*
X112447645Y-72569064D01*
X112416504Y-72556541D01*
X112389702Y-72569387D01*
X112384591Y-72573861D01*
X112355422Y-72595706D01*
X112332222Y-72594231D01*
X112301636Y-72568298D01*
X112300000Y-72566666D01*
X112274271Y-72534063D01*
X112268231Y-72499485D01*
X112277122Y-72454354D01*
X112290288Y-72427630D01*
X112304079Y-72429966D01*
X112314152Y-72457460D01*
X112316666Y-72489872D01*
X112319779Y-72530719D01*
X112327321Y-72555046D01*
X112327814Y-72555591D01*
X112347337Y-72556242D01*
X112371566Y-72536029D01*
X112391958Y-72504674D01*
X112400000Y-72473400D01*
X112406544Y-72439140D01*
X112416666Y-72425000D01*
X112428528Y-72431447D01*
G37*
G36*
X110000781Y-72294114D02*
G01*
X110009063Y-72319201D01*
X110013500Y-72368751D01*
X110013317Y-72434034D01*
X110013281Y-72434948D01*
X110008333Y-72558333D01*
X109958251Y-72563251D01*
X109915597Y-72560357D01*
X109887417Y-72547417D01*
X109867769Y-72507732D01*
X109869299Y-72493055D01*
X109900000Y-72493055D01*
X109907225Y-72523814D01*
X109935157Y-72533206D01*
X109941666Y-72533333D01*
X109973518Y-72526316D01*
X109983215Y-72499341D01*
X109983333Y-72493449D01*
X109971803Y-72455040D01*
X109941056Y-72441643D01*
X109920833Y-72445510D01*
X109904760Y-72465840D01*
X109900000Y-72493055D01*
X109869299Y-72493055D01*
X109872448Y-72462851D01*
X109896672Y-72423826D01*
X109935662Y-72401706D01*
X109951190Y-72400000D01*
X109972970Y-72393418D01*
X109982081Y-72367943D01*
X109983333Y-72338333D01*
X109986399Y-72298975D01*
X109996094Y-72290533D01*
X110000781Y-72294114D01*
G37*
G36*
X109588773Y-67914002D02*
G01*
X109653726Y-67922215D01*
X109725111Y-67937278D01*
X109808185Y-67960601D01*
X109908201Y-67993592D01*
X110030415Y-68037661D01*
X110115191Y-68069477D01*
X110209087Y-68105571D01*
X110279113Y-68134393D01*
X110332763Y-68159957D01*
X110377530Y-68186277D01*
X110420910Y-68217367D01*
X110470394Y-68257241D01*
X110478837Y-68264252D01*
X110533157Y-68307132D01*
X110572070Y-68330671D01*
X110603865Y-68338973D01*
X110627400Y-68337759D01*
X110696414Y-68343474D01*
X110768779Y-68376785D01*
X110839418Y-68433039D01*
X110903256Y-68507583D01*
X110955215Y-68595762D01*
X110981593Y-68662456D01*
X111034218Y-68860164D01*
X111061449Y-69048092D01*
X111064100Y-69237053D01*
X111042989Y-69437857D01*
X111041068Y-69450000D01*
X111015011Y-69594711D01*
X110986181Y-69714616D01*
X110951414Y-69818243D01*
X110907549Y-69914115D01*
X110851421Y-70010758D01*
X110809490Y-70074201D01*
X110768937Y-70139427D01*
X110732792Y-70207914D01*
X110709399Y-70263458D01*
X110686608Y-70321188D01*
X110663252Y-70350654D01*
X110633694Y-70356538D01*
X110606253Y-70349118D01*
X110571358Y-70319699D01*
X110547743Y-70261045D01*
X110535138Y-70172250D01*
X110532733Y-70101679D01*
X110532293Y-70008525D01*
X110567484Y-70008525D01*
X110569159Y-70075179D01*
X110575292Y-70180412D01*
X110586290Y-70254247D01*
X110602623Y-70298328D01*
X110624757Y-70314300D01*
X110636825Y-70312724D01*
X110650823Y-70295698D01*
X110671549Y-70256762D01*
X110689462Y-70216336D01*
X110718445Y-70155826D01*
X110758852Y-70083924D01*
X110802089Y-70015893D01*
X110803367Y-70014033D01*
X110864552Y-69914400D01*
X110914030Y-69807947D01*
X110953824Y-69688383D01*
X110985960Y-69549416D01*
X111012462Y-69384756D01*
X111017014Y-69350157D01*
X111027353Y-69206137D01*
X111023378Y-69058786D01*
X111006372Y-68913931D01*
X110977615Y-68777399D01*
X110938388Y-68655017D01*
X110889974Y-68552611D01*
X110833652Y-68476008D01*
X110822387Y-68465056D01*
X110750344Y-68406084D01*
X110692149Y-68374070D01*
X110654348Y-68366666D01*
X110634298Y-68368075D01*
X110628692Y-68376547D01*
X110638996Y-68398453D01*
X110666677Y-68440162D01*
X110673587Y-68450218D01*
X110724898Y-68551224D01*
X110759254Y-68679685D01*
X110776473Y-68834250D01*
X110776373Y-69013567D01*
X110767040Y-69141666D01*
X110752926Y-69248062D01*
X110731026Y-69366952D01*
X110703462Y-69489874D01*
X110672355Y-69608364D01*
X110639823Y-69713960D01*
X110607990Y-69798200D01*
X110596176Y-69823527D01*
X110581401Y-69857573D01*
X110572278Y-69894312D01*
X110567931Y-69941909D01*
X110567484Y-70008525D01*
X110532293Y-70008525D01*
X110532134Y-69975000D01*
X110491555Y-70024661D01*
X110464964Y-70062360D01*
X110429581Y-70119393D01*
X110391746Y-70185391D01*
X110379654Y-70207650D01*
X110340312Y-70277372D01*
X110289203Y-70362570D01*
X110233588Y-70451351D01*
X110191162Y-70516321D01*
X110121574Y-70621646D01*
X110068361Y-70705449D01*
X110028430Y-70773269D01*
X109998689Y-70830644D01*
X109976047Y-70883110D01*
X109958334Y-70933333D01*
X109923699Y-71031511D01*
X109876903Y-71150530D01*
X109821487Y-71281827D01*
X109760994Y-71416842D01*
X109737730Y-71466666D01*
X109640229Y-71692024D01*
X109567730Y-71903515D01*
X109518272Y-72106874D01*
X109517540Y-72110712D01*
X109499071Y-72204119D01*
X109476156Y-72314344D01*
X109452087Y-72425779D01*
X109435433Y-72500000D01*
X109414864Y-72591408D01*
X109394989Y-72682665D01*
X109378184Y-72762690D01*
X109367514Y-72816666D01*
X109354054Y-72876649D01*
X109332851Y-72957092D01*
X109306955Y-73046918D01*
X109282680Y-73125000D01*
X109247244Y-73238175D01*
X109208842Y-73366984D01*
X109169376Y-73504470D01*
X109130751Y-73643673D01*
X109094871Y-73777634D01*
X109063641Y-73899394D01*
X109038964Y-74001996D01*
X109025011Y-74066666D01*
X109010307Y-74135597D01*
X108989393Y-74226229D01*
X108964765Y-74328087D01*
X108938916Y-74430695D01*
X108931747Y-74458333D01*
X108883145Y-74642591D01*
X108840961Y-74797654D01*
X108803918Y-74926764D01*
X108770741Y-75033157D01*
X108740151Y-75120075D01*
X108710872Y-75190755D01*
X108681627Y-75248436D01*
X108651139Y-75296359D01*
X108618131Y-75337761D01*
X108581326Y-75375883D01*
X108563435Y-75392602D01*
X108503139Y-75439749D01*
X108429064Y-75486173D01*
X108349829Y-75527630D01*
X108274059Y-75559874D01*
X108210374Y-75578659D01*
X108179546Y-75581640D01*
X108148991Y-75577223D01*
X108093921Y-75566455D01*
X108022189Y-75550962D01*
X107942824Y-75532648D01*
X107861455Y-75511655D01*
X107788492Y-75489844D01*
X107732107Y-75469848D01*
X107701158Y-75454802D01*
X107676091Y-75427254D01*
X107641644Y-75376206D01*
X107602155Y-75308538D01*
X107568636Y-75244635D01*
X107478940Y-75065015D01*
X107508010Y-74811674D01*
X107520255Y-74709787D01*
X107533433Y-74608046D01*
X107584515Y-74608046D01*
X107585157Y-74647592D01*
X107593727Y-74673892D01*
X107612544Y-74696908D01*
X107628298Y-74711957D01*
X107677265Y-74746264D01*
X107736859Y-74773553D01*
X107751474Y-74778056D01*
X107807270Y-74800954D01*
X107868181Y-74837525D01*
X107898273Y-74860610D01*
X107966715Y-74908360D01*
X108047241Y-74948237D01*
X108127115Y-74974782D01*
X108183333Y-74982775D01*
X108219841Y-74979775D01*
X108277137Y-74971376D01*
X108343451Y-74959327D01*
X108350000Y-74958014D01*
X108433664Y-74935592D01*
X108525475Y-74902091D01*
X108616607Y-74861639D01*
X108698236Y-74818362D01*
X108761537Y-74776384D01*
X108786828Y-74753775D01*
X108809798Y-74715729D01*
X108836969Y-74647827D01*
X108867451Y-74553156D01*
X108900350Y-74434801D01*
X108934772Y-74295849D01*
X108969826Y-74139386D01*
X108983619Y-74073589D01*
X109008597Y-73961885D01*
X109042042Y-73826665D01*
X109081744Y-73675990D01*
X109125494Y-73517922D01*
X109171081Y-73360523D01*
X109216297Y-73211854D01*
X109241309Y-73133333D01*
X109270304Y-73039874D01*
X109297037Y-72946047D01*
X109318754Y-72862033D01*
X109332696Y-72798013D01*
X109333798Y-72791666D01*
X109348119Y-72714525D01*
X109366991Y-72624716D01*
X109386199Y-72542212D01*
X109401917Y-72475424D01*
X109421574Y-72386567D01*
X109442867Y-72286316D01*
X109463494Y-72185344D01*
X109467294Y-72166219D01*
X109497349Y-72025700D01*
X109530036Y-71899211D01*
X109568424Y-71777631D01*
X109615581Y-71651837D01*
X109674575Y-71512706D01*
X109723122Y-71405600D01*
X109767297Y-71307341D01*
X109812327Y-71202667D01*
X109853385Y-71103071D01*
X109885645Y-71020050D01*
X109889936Y-71008333D01*
X109941567Y-70874693D01*
X109992321Y-70764088D01*
X110047053Y-70666716D01*
X110094813Y-70594800D01*
X110137467Y-70532513D01*
X110181899Y-70464537D01*
X110224213Y-70397228D01*
X110260510Y-70336948D01*
X110286895Y-70290052D01*
X110299470Y-70262901D01*
X110300000Y-70260025D01*
X110289711Y-70258528D01*
X110264721Y-70276349D01*
X110262500Y-70278345D01*
X110196726Y-70326062D01*
X110128265Y-70347477D01*
X110087762Y-70350000D01*
X110032091Y-70343748D01*
X109999745Y-70321060D01*
X109985449Y-70276036D01*
X109984347Y-70253772D01*
X110016666Y-70253772D01*
X110020791Y-70289465D01*
X110027777Y-70305555D01*
X110055729Y-70315149D01*
X110100733Y-70315400D01*
X110148079Y-70307071D01*
X110171929Y-70298053D01*
X110203558Y-70276730D01*
X110244611Y-70242575D01*
X110287292Y-70203006D01*
X110323809Y-70165440D01*
X110346366Y-70137294D01*
X110350000Y-70128584D01*
X110340803Y-70130519D01*
X110317781Y-70152811D01*
X110307787Y-70164275D01*
X110242540Y-70218921D01*
X110165784Y-70242602D01*
X110079309Y-70234918D01*
X110043215Y-70223287D01*
X110022888Y-70223878D01*
X110016684Y-70251114D01*
X110016666Y-70253772D01*
X109984347Y-70253772D01*
X109983333Y-70233272D01*
X109995285Y-70151159D01*
X110027331Y-70068645D01*
X110073757Y-69997035D01*
X110127180Y-69948652D01*
X110193197Y-69922884D01*
X110267641Y-69916697D01*
X110339253Y-69929135D01*
X110396776Y-69959242D01*
X110410593Y-69972712D01*
X110448872Y-70017214D01*
X110473482Y-69979440D01*
X110515451Y-69903630D01*
X110560757Y-69801598D01*
X110606761Y-69679914D01*
X110650824Y-69545152D01*
X110659331Y-69516666D01*
X110680136Y-69445089D01*
X110695629Y-69387247D01*
X110706630Y-69336123D01*
X110713962Y-69284700D01*
X110718447Y-69225958D01*
X110720906Y-69152880D01*
X110722162Y-69058448D01*
X110722772Y-68975000D01*
X110723043Y-68842221D01*
X110720833Y-68737391D01*
X110714578Y-68655135D01*
X110702719Y-68590081D01*
X110683693Y-68536854D01*
X110655940Y-68490084D01*
X110617899Y-68444396D01*
X110568008Y-68394417D01*
X110548776Y-68376158D01*
X110465150Y-68300785D01*
X110390210Y-68242905D01*
X110313208Y-68195785D01*
X110223395Y-68152692D01*
X110133333Y-68115904D01*
X109978765Y-68057569D01*
X109849330Y-68013194D01*
X109740492Y-67981547D01*
X109647713Y-67961397D01*
X109566455Y-67951513D01*
X109521697Y-67950000D01*
X109402968Y-67959034D01*
X109275144Y-67983768D01*
X109153442Y-68020648D01*
X109075000Y-68054313D01*
X108951817Y-68124918D01*
X108828638Y-68210420D01*
X108709916Y-68306451D01*
X108600103Y-68408645D01*
X108503652Y-68512636D01*
X108425017Y-68614057D01*
X108368649Y-68708541D01*
X108343952Y-68771208D01*
X108299176Y-68943713D01*
X108270069Y-69095009D01*
X108255542Y-69232704D01*
X108254505Y-69364403D01*
X108255650Y-69387766D01*
X108262783Y-69484463D01*
X108271333Y-69553628D01*
X108280913Y-69593984D01*
X108291135Y-69604255D01*
X108301613Y-69583166D01*
X108307290Y-69558032D01*
X108329335Y-69499867D01*
X108367237Y-69446884D01*
X108368696Y-69445405D01*
X108406213Y-69413320D01*
X108441224Y-69402063D01*
X108484772Y-69404745D01*
X108569679Y-69428633D01*
X108631446Y-69475098D01*
X108670909Y-69545279D01*
X108688904Y-69640313D01*
X108690284Y-69684388D01*
X108680782Y-69777360D01*
X108655296Y-69862908D01*
X108617285Y-69932826D01*
X108570209Y-69978909D01*
X108564787Y-69982082D01*
X108509187Y-69994276D01*
X108446288Y-69974379D01*
X108376820Y-69922653D01*
X108364173Y-69910478D01*
X108335483Y-69885335D01*
X108321162Y-69879654D01*
X108321349Y-69885849D01*
X108325397Y-69911509D01*
X108330132Y-69963947D01*
X108335080Y-70036627D01*
X108339769Y-70123015D01*
X108341863Y-70169183D01*
X108345674Y-70284278D01*
X108345706Y-70378606D01*
X108341336Y-70464584D01*
X108331942Y-70554629D01*
X108317328Y-70658333D01*
X108302426Y-70764649D01*
X108286777Y-70889828D01*
X108272078Y-71019488D01*
X108260027Y-71139249D01*
X108258265Y-71158710D01*
X108244850Y-71286857D01*
X108227086Y-71411612D01*
X108203250Y-71542973D01*
X108171619Y-71690944D01*
X108152085Y-71775376D01*
X108124577Y-71893959D01*
X108097144Y-72015786D01*
X108071706Y-72132077D01*
X108050181Y-72234053D01*
X108034488Y-72312932D01*
X108033787Y-72316666D01*
X107996228Y-72503715D01*
X107956044Y-72673256D01*
X107909291Y-72841092D01*
X107875664Y-72950000D01*
X107835764Y-73086480D01*
X107795144Y-73245279D01*
X107756180Y-73415529D01*
X107721247Y-73586360D01*
X107692721Y-73746900D01*
X107675346Y-73866666D01*
X107662307Y-73969070D01*
X107647679Y-74080950D01*
X107633527Y-74186646D01*
X107624809Y-74250000D01*
X107612903Y-74339472D01*
X107601553Y-74432390D01*
X107592510Y-74514096D01*
X107589481Y-74545291D01*
X107584515Y-74608046D01*
X107533433Y-74608046D01*
X107533578Y-74606924D01*
X107546566Y-74513524D01*
X107557806Y-74440023D01*
X107560348Y-74425000D01*
X107571670Y-74354125D01*
X107584822Y-74262465D01*
X107598096Y-74162377D01*
X107608769Y-74075000D01*
X107644439Y-73810014D01*
X107688969Y-73549452D01*
X107740839Y-73300660D01*
X107798529Y-73070986D01*
X107855289Y-72883333D01*
X107879277Y-72807683D01*
X107902450Y-72726237D01*
X107925928Y-72634241D01*
X107950828Y-72526938D01*
X107978269Y-72399572D01*
X108009370Y-72247386D01*
X108033631Y-72125000D01*
X108051035Y-72040873D01*
X108074042Y-71936057D01*
X108100033Y-71822169D01*
X108126390Y-71710824D01*
X108134646Y-71676927D01*
X108176303Y-71488266D01*
X108204092Y-71315175D01*
X108217377Y-71185261D01*
X108227350Y-71075139D01*
X108240708Y-70951750D01*
X108255561Y-70831594D01*
X108267548Y-70746946D01*
X108287388Y-70581718D01*
X108297869Y-70401621D01*
X108300000Y-70258323D01*
X108299868Y-70156522D01*
X108299081Y-70083528D01*
X108297053Y-70034816D01*
X108293197Y-70005859D01*
X108286925Y-69992132D01*
X108277652Y-69989108D01*
X108265472Y-69992045D01*
X108227773Y-69993642D01*
X108194217Y-69971672D01*
X108163848Y-69924160D01*
X108135710Y-69849134D01*
X108108848Y-69744622D01*
X108083720Y-69616666D01*
X108059999Y-69480455D01*
X108042351Y-69372359D01*
X108030406Y-69287785D01*
X108023796Y-69222143D01*
X108022897Y-69194103D01*
X108066730Y-69194103D01*
X108070175Y-69256816D01*
X108079478Y-69340605D01*
X108093176Y-69434029D01*
X108108007Y-69516666D01*
X108123820Y-69599560D01*
X108136891Y-69673707D01*
X108145916Y-69731297D01*
X108149588Y-69764520D01*
X108149610Y-69765571D01*
X108156222Y-69801364D01*
X108172409Y-69848106D01*
X108193472Y-69895376D01*
X108214710Y-69932752D01*
X108231425Y-69949811D01*
X108232779Y-69950000D01*
X108253098Y-69938647D01*
X108267183Y-69924376D01*
X108277894Y-69902801D01*
X108279949Y-69868814D01*
X108273454Y-69814042D01*
X108268913Y-69786876D01*
X108262813Y-69748575D01*
X108334245Y-69748575D01*
X108339713Y-69777558D01*
X108356313Y-69822736D01*
X108392845Y-69882776D01*
X108440870Y-69924800D01*
X108493563Y-69946361D01*
X108544096Y-69945010D01*
X108585644Y-69918299D01*
X108593540Y-69907813D01*
X108612404Y-69871005D01*
X108605904Y-69855566D01*
X108573401Y-69860512D01*
X108564811Y-69863465D01*
X108503109Y-69869010D01*
X108440101Y-69844638D01*
X108381439Y-69793029D01*
X108361662Y-69767124D01*
X108341667Y-69743999D01*
X108334245Y-69748575D01*
X108262813Y-69748575D01*
X108240174Y-69606440D01*
X108221265Y-69451209D01*
X108212362Y-69323136D01*
X108213640Y-69224178D01*
X108216094Y-69200000D01*
X108226218Y-69135202D01*
X108241985Y-69049262D01*
X108261112Y-68953414D01*
X108281315Y-68858891D01*
X108300308Y-68776928D01*
X108309227Y-68741959D01*
X108307840Y-68728143D01*
X108291849Y-68737314D01*
X108265138Y-68764723D01*
X108231590Y-68805621D01*
X108195087Y-68855257D01*
X108159512Y-68908882D01*
X108128749Y-68961746D01*
X108127300Y-68964488D01*
X108094772Y-69030610D01*
X108076378Y-69083072D01*
X108068311Y-69136304D01*
X108066730Y-69194103D01*
X108022897Y-69194103D01*
X108022152Y-69170841D01*
X108025107Y-69129288D01*
X108032292Y-69092894D01*
X108039682Y-69067902D01*
X108092274Y-68946059D01*
X108167239Y-68825299D01*
X108256030Y-68719149D01*
X108266902Y-68708333D01*
X108318445Y-68657764D01*
X108357885Y-68617622D01*
X108394305Y-68578164D01*
X108436790Y-68529646D01*
X108474450Y-68485723D01*
X108625416Y-68326964D01*
X108786287Y-68191162D01*
X108953822Y-68080090D01*
X109124779Y-67995518D01*
X109295917Y-67939221D01*
X109463994Y-67912971D01*
X109525000Y-67911230D01*
X109588773Y-67914002D01*
G37*
%TD*%
%LPC*%
D10*
X114257143Y-70906900D02*
X114105357Y-70978328D01*
X114105357Y-70978328D02*
X113819643Y-70978328D01*
X113819643Y-70978328D02*
X113685714Y-70906900D01*
X113685714Y-70906900D02*
X113632143Y-70764042D01*
X113632143Y-70764042D02*
X113703572Y-70192614D01*
X113703572Y-70192614D02*
X113792857Y-70049757D01*
X113792857Y-70049757D02*
X113944643Y-69978328D01*
X113944643Y-69978328D02*
X114230357Y-69978328D01*
X114230357Y-69978328D02*
X114364286Y-70049757D01*
X114364286Y-70049757D02*
X114417857Y-70192614D01*
X114417857Y-70192614D02*
X114400000Y-70335471D01*
X114400000Y-70335471D02*
X113667857Y-70478328D01*
X114962500Y-70978328D02*
X115150000Y-69478328D01*
X115150000Y-69478328D02*
X115516071Y-70549757D01*
X115516071Y-70549757D02*
X116150000Y-69478328D01*
X116150000Y-69478328D02*
X115962500Y-70978328D01*
X116676786Y-70978328D02*
X116864286Y-69478328D01*
X116864286Y-69478328D02*
X117230357Y-70549757D01*
X117230357Y-70549757D02*
X117864286Y-69478328D01*
X117864286Y-69478328D02*
X117676786Y-70978328D01*
X119266072Y-70835471D02*
X119185715Y-70906900D01*
X119185715Y-70906900D02*
X118962500Y-70978328D01*
X118962500Y-70978328D02*
X118819643Y-70978328D01*
X118819643Y-70978328D02*
X118614286Y-70906900D01*
X118614286Y-70906900D02*
X118489286Y-70764042D01*
X118489286Y-70764042D02*
X118435715Y-70621185D01*
X118435715Y-70621185D02*
X118400000Y-70335471D01*
X118400000Y-70335471D02*
X118426786Y-70121185D01*
X118426786Y-70121185D02*
X118533929Y-69835471D01*
X118533929Y-69835471D02*
X118623215Y-69692614D01*
X118623215Y-69692614D02*
X118783929Y-69549757D01*
X118783929Y-69549757D02*
X119007143Y-69478328D01*
X119007143Y-69478328D02*
X119150000Y-69478328D01*
X119150000Y-69478328D02*
X119355358Y-69549757D01*
X119355358Y-69549757D02*
X119417858Y-69621185D01*
X121801786Y-69978328D02*
X121676786Y-70978328D01*
X121158929Y-69978328D02*
X121060715Y-70764042D01*
X121060715Y-70764042D02*
X121114286Y-70906900D01*
X121114286Y-70906900D02*
X121248215Y-70978328D01*
X121248215Y-70978328D02*
X121462500Y-70978328D01*
X121462500Y-70978328D02*
X121614286Y-70906900D01*
X121614286Y-70906900D02*
X121694643Y-70835471D01*
X122328572Y-70906900D02*
X122533929Y-70978328D01*
X122533929Y-70978328D02*
X122891072Y-70978328D01*
X122891072Y-70978328D02*
X123042858Y-70906900D01*
X123042858Y-70906900D02*
X123123215Y-70835471D01*
X123123215Y-70835471D02*
X123212500Y-70692614D01*
X123212500Y-70692614D02*
X123230358Y-70549757D01*
X123230358Y-70549757D02*
X123176786Y-70406900D01*
X123176786Y-70406900D02*
X123114286Y-70335471D01*
X123114286Y-70335471D02*
X122980358Y-70264042D01*
X122980358Y-70264042D02*
X122703572Y-70192614D01*
X122703572Y-70192614D02*
X122569643Y-70121185D01*
X122569643Y-70121185D02*
X122507143Y-70049757D01*
X122507143Y-70049757D02*
X122453572Y-69906900D01*
X122453572Y-69906900D02*
X122471429Y-69764042D01*
X122471429Y-69764042D02*
X122560715Y-69621185D01*
X122560715Y-69621185D02*
X122641072Y-69549757D01*
X122641072Y-69549757D02*
X122792858Y-69478328D01*
X122792858Y-69478328D02*
X123150000Y-69478328D01*
X123150000Y-69478328D02*
X123355358Y-69549757D01*
X123819643Y-70978328D02*
X124007143Y-69478328D01*
X124007143Y-69478328D02*
X124364286Y-69478328D01*
X124364286Y-69478328D02*
X124569643Y-69549757D01*
X124569643Y-69549757D02*
X124694643Y-69692614D01*
X124694643Y-69692614D02*
X124748214Y-69835471D01*
X124748214Y-69835471D02*
X124783929Y-70121185D01*
X124783929Y-70121185D02*
X124757143Y-70335471D01*
X124757143Y-70335471D02*
X124650000Y-70621185D01*
X124650000Y-70621185D02*
X124560714Y-70764042D01*
X124560714Y-70764042D02*
X124400000Y-70906900D01*
X124400000Y-70906900D02*
X124176786Y-70978328D01*
X124176786Y-70978328D02*
X123819643Y-70978328D01*
X115416072Y-72749757D02*
X116130357Y-72749757D01*
X115219643Y-73178328D02*
X115907143Y-71678328D01*
X115907143Y-71678328D02*
X116219643Y-73178328D01*
X117362500Y-73178328D02*
X117550000Y-71678328D01*
X117371429Y-73106900D02*
X117219643Y-73178328D01*
X117219643Y-73178328D02*
X116933929Y-73178328D01*
X116933929Y-73178328D02*
X116800000Y-73106900D01*
X116800000Y-73106900D02*
X116737500Y-73035471D01*
X116737500Y-73035471D02*
X116683929Y-72892614D01*
X116683929Y-72892614D02*
X116737500Y-72464042D01*
X116737500Y-72464042D02*
X116826786Y-72321185D01*
X116826786Y-72321185D02*
X116907143Y-72249757D01*
X116907143Y-72249757D02*
X117058929Y-72178328D01*
X117058929Y-72178328D02*
X117344643Y-72178328D01*
X117344643Y-72178328D02*
X117478571Y-72249757D01*
X118719643Y-73178328D02*
X118817857Y-72392614D01*
X118817857Y-72392614D02*
X118764286Y-72249757D01*
X118764286Y-72249757D02*
X118630357Y-72178328D01*
X118630357Y-72178328D02*
X118344643Y-72178328D01*
X118344643Y-72178328D02*
X118192857Y-72249757D01*
X118728572Y-73106900D02*
X118576786Y-73178328D01*
X118576786Y-73178328D02*
X118219643Y-73178328D01*
X118219643Y-73178328D02*
X118085714Y-73106900D01*
X118085714Y-73106900D02*
X118032143Y-72964042D01*
X118032143Y-72964042D02*
X118050000Y-72821185D01*
X118050000Y-72821185D02*
X118139286Y-72678328D01*
X118139286Y-72678328D02*
X118291072Y-72606900D01*
X118291072Y-72606900D02*
X118648214Y-72606900D01*
X118648214Y-72606900D02*
X118800000Y-72535471D01*
X119558929Y-72178328D02*
X119371429Y-73678328D01*
X119550000Y-72249757D02*
X119701786Y-72178328D01*
X119701786Y-72178328D02*
X119987500Y-72178328D01*
X119987500Y-72178328D02*
X120121429Y-72249757D01*
X120121429Y-72249757D02*
X120183929Y-72321185D01*
X120183929Y-72321185D02*
X120237500Y-72464042D01*
X120237500Y-72464042D02*
X120183929Y-72892614D01*
X120183929Y-72892614D02*
X120094643Y-73035471D01*
X120094643Y-73035471D02*
X120014286Y-73106900D01*
X120014286Y-73106900D02*
X119862500Y-73178328D01*
X119862500Y-73178328D02*
X119576786Y-73178328D01*
X119576786Y-73178328D02*
X119442857Y-73106900D01*
X120701786Y-72178328D02*
X121273215Y-72178328D01*
X120978572Y-71678328D02*
X120817858Y-72964042D01*
X120817858Y-72964042D02*
X120871429Y-73106900D01*
X120871429Y-73106900D02*
X121005358Y-73178328D01*
X121005358Y-73178328D02*
X121148215Y-73178328D01*
X122228572Y-73106900D02*
X122076786Y-73178328D01*
X122076786Y-73178328D02*
X121791072Y-73178328D01*
X121791072Y-73178328D02*
X121657143Y-73106900D01*
X121657143Y-73106900D02*
X121603572Y-72964042D01*
X121603572Y-72964042D02*
X121675001Y-72392614D01*
X121675001Y-72392614D02*
X121764286Y-72249757D01*
X121764286Y-72249757D02*
X121916072Y-72178328D01*
X121916072Y-72178328D02*
X122201786Y-72178328D01*
X122201786Y-72178328D02*
X122335715Y-72249757D01*
X122335715Y-72249757D02*
X122389286Y-72392614D01*
X122389286Y-72392614D02*
X122371429Y-72535471D01*
X122371429Y-72535471D02*
X121639286Y-72678328D01*
X122933929Y-73178328D02*
X123058929Y-72178328D01*
X123023215Y-72464042D02*
X123112500Y-72321185D01*
X123112500Y-72321185D02*
X123192857Y-72249757D01*
X123192857Y-72249757D02*
X123344643Y-72178328D01*
X123344643Y-72178328D02*
X123487500Y-72178328D01*
D11*
%TO.C,J2*%
X132975000Y-77750000D03*
D12*
X130435000Y-77750000D03*
X127895000Y-77750000D03*
X125355000Y-77750000D03*
X122815000Y-77750000D03*
X120275000Y-77750000D03*
X117735000Y-77750000D03*
X115195000Y-77750000D03*
X112655000Y-77750000D03*
X110115000Y-77750000D03*
X107575000Y-77750000D03*
X105035000Y-77750000D03*
%TD*%
%LPD*%
M02*
