%TF.GenerationSoftware,KiCad,Pcbnew,7.0.7*%
%TF.CreationDate,2023-10-03T14:25:23+02:00*%
%TF.ProjectId,emmc-adapter,656d6d63-2d61-4646-9170-7465722e6b69,rev?*%
%TF.SameCoordinates,Original*%
%TF.FileFunction,Profile,NP*%
%FSLAX46Y46*%
G04 Gerber Fmt 4.6, Leading zero omitted, Abs format (unit mm)*
G04 Created by KiCad (PCBNEW 7.0.7) date 2023-10-03 14:25:23*
%MOMM*%
%LPD*%
G01*
G04 APERTURE LIST*
%TA.AperFunction,Profile*%
%ADD10C,0.050000*%
%TD*%
G04 APERTURE END LIST*
D10*
X101400000Y-80350002D02*
G75*
G03*
X103250000Y-82500000I2000000J-149998D01*
G01*
X137000000Y-80649999D02*
X137000001Y-69500000D01*
X137000001Y-69500000D02*
X124400000Y-65024000D01*
X113400000Y-65100000D02*
X113250000Y-65250000D01*
X123100035Y-51800001D02*
G75*
G03*
X122399512Y-50999796I-786735J18001D01*
G01*
X124400000Y-58900000D02*
X124400000Y-57400000D01*
X101400000Y-80350002D02*
X101400000Y-69500000D01*
X113400110Y-51813269D02*
X113400000Y-65100000D01*
X124400000Y-58900000D02*
X123900000Y-58900000D01*
X114200000Y-51000000D02*
G75*
G03*
X113400110Y-51813269I0J-800000D01*
G01*
X124400000Y-60900000D02*
X123700000Y-60100000D01*
X124400000Y-57400000D02*
X123100000Y-55900000D01*
X124400000Y-65024000D02*
X124400000Y-60900000D01*
X123900000Y-58900000D02*
G75*
G03*
X123700000Y-59100000I0J-200000D01*
G01*
X134850002Y-82500000D02*
G75*
G03*
X137000000Y-80649999I149998J2000000D01*
G01*
X114200000Y-51000000D02*
X122399489Y-51000000D01*
X134850002Y-82499999D02*
X103250000Y-82500000D01*
X123700000Y-60100000D02*
X123700000Y-59100000D01*
X101400000Y-69500000D02*
X113250000Y-65250000D01*
X123100000Y-55900000D02*
X123100000Y-51800000D01*
M02*
