%TF.GenerationSoftware,KiCad,Pcbnew,7.0.7*%
%TF.CreationDate,2023-10-03T14:25:23+02:00*%
%TF.ProjectId,emmc-adapter,656d6d63-2d61-4646-9170-7465722e6b69,rev?*%
%TF.SameCoordinates,Original*%
%TF.FileFunction,Legend,Bot*%
%TF.FilePolarity,Positive*%
%FSLAX46Y46*%
G04 Gerber Fmt 4.6, Leading zero omitted, Abs format (unit mm)*
G04 Created by KiCad (PCBNEW 7.0.7) date 2023-10-03 14:25:23*
%MOMM*%
%LPD*%
G01*
G04 APERTURE LIST*
G04 Aperture macros list*
%AMRoundRect*
0 Rectangle with rounded corners*
0 $1 Rounding radius*
0 $2 $3 $4 $5 $6 $7 $8 $9 X,Y pos of 4 corners*
0 Add a 4 corners polygon primitive as box body*
4,1,4,$2,$3,$4,$5,$6,$7,$8,$9,$2,$3,0*
0 Add four circle primitives for the rounded corners*
1,1,$1+$1,$2,$3*
1,1,$1+$1,$4,$5*
1,1,$1+$1,$6,$7*
1,1,$1+$1,$8,$9*
0 Add four rect primitives between the rounded corners*
20,1,$1+$1,$2,$3,$4,$5,0*
20,1,$1+$1,$4,$5,$6,$7,0*
20,1,$1+$1,$6,$7,$8,$9,0*
20,1,$1+$1,$8,$9,$2,$3,0*%
G04 Aperture macros list end*
%ADD10C,0.150000*%
%ADD11C,0.120000*%
%ADD12C,1.000000*%
%ADD13R,0.800000X2.900000*%
%ADD14R,0.800000X3.200000*%
%ADD15R,1.700000X1.700000*%
%ADD16O,1.700000X1.700000*%
%ADD17RoundRect,0.225000X0.250000X-0.225000X0.250000X0.225000X-0.250000X0.225000X-0.250000X-0.225000X0*%
%ADD18RoundRect,0.200000X0.200000X0.275000X-0.200000X0.275000X-0.200000X-0.275000X0.200000X-0.275000X0*%
%ADD19RoundRect,0.225000X-0.225000X-0.250000X0.225000X-0.250000X0.225000X0.250000X-0.225000X0.250000X0*%
%ADD20RoundRect,0.218750X0.218750X0.256250X-0.218750X0.256250X-0.218750X-0.256250X0.218750X-0.256250X0*%
%ADD21RoundRect,0.150000X0.512500X0.150000X-0.512500X0.150000X-0.512500X-0.150000X0.512500X-0.150000X0*%
G04 APERTURE END LIST*
D10*
X120637704Y-56590475D02*
X121437704Y-56590475D01*
X121437704Y-56590475D02*
X121437704Y-56399999D01*
X121437704Y-56399999D02*
X121399609Y-56285713D01*
X121399609Y-56285713D02*
X121323419Y-56209523D01*
X121323419Y-56209523D02*
X121247228Y-56171428D01*
X121247228Y-56171428D02*
X121094847Y-56133332D01*
X121094847Y-56133332D02*
X120980561Y-56133332D01*
X120980561Y-56133332D02*
X120828180Y-56171428D01*
X120828180Y-56171428D02*
X120751990Y-56209523D01*
X120751990Y-56209523D02*
X120675800Y-56285713D01*
X120675800Y-56285713D02*
X120637704Y-56399999D01*
X120637704Y-56399999D02*
X120637704Y-56590475D01*
X121437704Y-55866666D02*
X121437704Y-55371428D01*
X121437704Y-55371428D02*
X121132942Y-55638094D01*
X121132942Y-55638094D02*
X121132942Y-55523809D01*
X121132942Y-55523809D02*
X121094847Y-55447618D01*
X121094847Y-55447618D02*
X121056752Y-55409523D01*
X121056752Y-55409523D02*
X120980561Y-55371428D01*
X120980561Y-55371428D02*
X120790085Y-55371428D01*
X120790085Y-55371428D02*
X120713895Y-55409523D01*
X120713895Y-55409523D02*
X120675800Y-55447618D01*
X120675800Y-55447618D02*
X120637704Y-55523809D01*
X120637704Y-55523809D02*
X120637704Y-55752380D01*
X120637704Y-55752380D02*
X120675800Y-55828571D01*
X120675800Y-55828571D02*
X120713895Y-55866666D01*
X119613895Y-57009523D02*
X119575800Y-57047619D01*
X119575800Y-57047619D02*
X119537704Y-57161904D01*
X119537704Y-57161904D02*
X119537704Y-57238095D01*
X119537704Y-57238095D02*
X119575800Y-57352381D01*
X119575800Y-57352381D02*
X119651990Y-57428571D01*
X119651990Y-57428571D02*
X119728180Y-57466666D01*
X119728180Y-57466666D02*
X119880561Y-57504762D01*
X119880561Y-57504762D02*
X119994847Y-57504762D01*
X119994847Y-57504762D02*
X120147228Y-57466666D01*
X120147228Y-57466666D02*
X120223419Y-57428571D01*
X120223419Y-57428571D02*
X120299609Y-57352381D01*
X120299609Y-57352381D02*
X120337704Y-57238095D01*
X120337704Y-57238095D02*
X120337704Y-57161904D01*
X120337704Y-57161904D02*
X120299609Y-57047619D01*
X120299609Y-57047619D02*
X120261514Y-57009523D01*
X119537704Y-56666666D02*
X120337704Y-56666666D01*
X120337704Y-56666666D02*
X119766276Y-56400000D01*
X119766276Y-56400000D02*
X120337704Y-56133333D01*
X120337704Y-56133333D02*
X119537704Y-56133333D01*
X119537704Y-55752380D02*
X120337704Y-55752380D01*
X120337704Y-55752380D02*
X120337704Y-55561904D01*
X120337704Y-55561904D02*
X120299609Y-55447618D01*
X120299609Y-55447618D02*
X120223419Y-55371428D01*
X120223419Y-55371428D02*
X120147228Y-55333333D01*
X120147228Y-55333333D02*
X119994847Y-55295237D01*
X119994847Y-55295237D02*
X119880561Y-55295237D01*
X119880561Y-55295237D02*
X119728180Y-55333333D01*
X119728180Y-55333333D02*
X119651990Y-55371428D01*
X119651990Y-55371428D02*
X119575800Y-55447618D01*
X119575800Y-55447618D02*
X119537704Y-55561904D01*
X119537704Y-55561904D02*
X119537704Y-55752380D01*
X119237704Y-57466666D02*
X118437704Y-57199999D01*
X118437704Y-57199999D02*
X119237704Y-56933333D01*
X118513895Y-56209523D02*
X118475800Y-56247619D01*
X118475800Y-56247619D02*
X118437704Y-56361904D01*
X118437704Y-56361904D02*
X118437704Y-56438095D01*
X118437704Y-56438095D02*
X118475800Y-56552381D01*
X118475800Y-56552381D02*
X118551990Y-56628571D01*
X118551990Y-56628571D02*
X118628180Y-56666666D01*
X118628180Y-56666666D02*
X118780561Y-56704762D01*
X118780561Y-56704762D02*
X118894847Y-56704762D01*
X118894847Y-56704762D02*
X119047228Y-56666666D01*
X119047228Y-56666666D02*
X119123419Y-56628571D01*
X119123419Y-56628571D02*
X119199609Y-56552381D01*
X119199609Y-56552381D02*
X119237704Y-56438095D01*
X119237704Y-56438095D02*
X119237704Y-56361904D01*
X119237704Y-56361904D02*
X119199609Y-56247619D01*
X119199609Y-56247619D02*
X119161514Y-56209523D01*
X118513895Y-55409523D02*
X118475800Y-55447619D01*
X118475800Y-55447619D02*
X118437704Y-55561904D01*
X118437704Y-55561904D02*
X118437704Y-55638095D01*
X118437704Y-55638095D02*
X118475800Y-55752381D01*
X118475800Y-55752381D02*
X118551990Y-55828571D01*
X118551990Y-55828571D02*
X118628180Y-55866666D01*
X118628180Y-55866666D02*
X118780561Y-55904762D01*
X118780561Y-55904762D02*
X118894847Y-55904762D01*
X118894847Y-55904762D02*
X119047228Y-55866666D01*
X119047228Y-55866666D02*
X119123419Y-55828571D01*
X119123419Y-55828571D02*
X119199609Y-55752381D01*
X119199609Y-55752381D02*
X119237704Y-55638095D01*
X119237704Y-55638095D02*
X119237704Y-55561904D01*
X119237704Y-55561904D02*
X119199609Y-55447619D01*
X119199609Y-55447619D02*
X119161514Y-55409523D01*
X117413895Y-56876189D02*
X117375800Y-56914285D01*
X117375800Y-56914285D02*
X117337704Y-57028570D01*
X117337704Y-57028570D02*
X117337704Y-57104761D01*
X117337704Y-57104761D02*
X117375800Y-57219047D01*
X117375800Y-57219047D02*
X117451990Y-57295237D01*
X117451990Y-57295237D02*
X117528180Y-57333332D01*
X117528180Y-57333332D02*
X117680561Y-57371428D01*
X117680561Y-57371428D02*
X117794847Y-57371428D01*
X117794847Y-57371428D02*
X117947228Y-57333332D01*
X117947228Y-57333332D02*
X118023419Y-57295237D01*
X118023419Y-57295237D02*
X118099609Y-57219047D01*
X118099609Y-57219047D02*
X118137704Y-57104761D01*
X118137704Y-57104761D02*
X118137704Y-57028570D01*
X118137704Y-57028570D02*
X118099609Y-56914285D01*
X118099609Y-56914285D02*
X118061514Y-56876189D01*
X117337704Y-56152380D02*
X117337704Y-56533332D01*
X117337704Y-56533332D02*
X118137704Y-56533332D01*
X117337704Y-55885713D02*
X118137704Y-55885713D01*
X117337704Y-55428570D02*
X117794847Y-55771428D01*
X118137704Y-55428570D02*
X117680561Y-55885713D01*
X116985609Y-56997523D02*
X117023704Y-57073713D01*
X117023704Y-57073713D02*
X117023704Y-57187999D01*
X117023704Y-57187999D02*
X116985609Y-57302285D01*
X116985609Y-57302285D02*
X116909419Y-57378475D01*
X116909419Y-57378475D02*
X116833228Y-57416570D01*
X116833228Y-57416570D02*
X116680847Y-57454666D01*
X116680847Y-57454666D02*
X116566561Y-57454666D01*
X116566561Y-57454666D02*
X116414180Y-57416570D01*
X116414180Y-57416570D02*
X116337990Y-57378475D01*
X116337990Y-57378475D02*
X116261800Y-57302285D01*
X116261800Y-57302285D02*
X116223704Y-57187999D01*
X116223704Y-57187999D02*
X116223704Y-57111808D01*
X116223704Y-57111808D02*
X116261800Y-56997523D01*
X116261800Y-56997523D02*
X116299895Y-56959427D01*
X116299895Y-56959427D02*
X116566561Y-56959427D01*
X116566561Y-56959427D02*
X116566561Y-57111808D01*
X116223704Y-56616570D02*
X117023704Y-56616570D01*
X117023704Y-56616570D02*
X116223704Y-56159427D01*
X116223704Y-56159427D02*
X117023704Y-56159427D01*
X116223704Y-55778475D02*
X117023704Y-55778475D01*
X117023704Y-55778475D02*
X117023704Y-55587999D01*
X117023704Y-55587999D02*
X116985609Y-55473713D01*
X116985609Y-55473713D02*
X116909419Y-55397523D01*
X116909419Y-55397523D02*
X116833228Y-55359428D01*
X116833228Y-55359428D02*
X116680847Y-55321332D01*
X116680847Y-55321332D02*
X116566561Y-55321332D01*
X116566561Y-55321332D02*
X116414180Y-55359428D01*
X116414180Y-55359428D02*
X116337990Y-55397523D01*
X116337990Y-55397523D02*
X116261800Y-55473713D01*
X116261800Y-55473713D02*
X116223704Y-55587999D01*
X116223704Y-55587999D02*
X116223704Y-55778475D01*
X115137704Y-56590475D02*
X115937704Y-56590475D01*
X115937704Y-56590475D02*
X115937704Y-56399999D01*
X115937704Y-56399999D02*
X115899609Y-56285713D01*
X115899609Y-56285713D02*
X115823419Y-56209523D01*
X115823419Y-56209523D02*
X115747228Y-56171428D01*
X115747228Y-56171428D02*
X115594847Y-56133332D01*
X115594847Y-56133332D02*
X115480561Y-56133332D01*
X115480561Y-56133332D02*
X115328180Y-56171428D01*
X115328180Y-56171428D02*
X115251990Y-56209523D01*
X115251990Y-56209523D02*
X115175800Y-56285713D01*
X115175800Y-56285713D02*
X115137704Y-56399999D01*
X115137704Y-56399999D02*
X115137704Y-56590475D01*
X115937704Y-55638094D02*
X115937704Y-55561904D01*
X115937704Y-55561904D02*
X115899609Y-55485713D01*
X115899609Y-55485713D02*
X115861514Y-55447618D01*
X115861514Y-55447618D02*
X115785323Y-55409523D01*
X115785323Y-55409523D02*
X115632942Y-55371428D01*
X115632942Y-55371428D02*
X115442466Y-55371428D01*
X115442466Y-55371428D02*
X115290085Y-55409523D01*
X115290085Y-55409523D02*
X115213895Y-55447618D01*
X115213895Y-55447618D02*
X115175800Y-55485713D01*
X115175800Y-55485713D02*
X115137704Y-55561904D01*
X115137704Y-55561904D02*
X115137704Y-55638094D01*
X115137704Y-55638094D02*
X115175800Y-55714285D01*
X115175800Y-55714285D02*
X115213895Y-55752380D01*
X115213895Y-55752380D02*
X115290085Y-55790475D01*
X115290085Y-55790475D02*
X115442466Y-55828571D01*
X115442466Y-55828571D02*
X115632942Y-55828571D01*
X115632942Y-55828571D02*
X115785323Y-55790475D01*
X115785323Y-55790475D02*
X115861514Y-55752380D01*
X115861514Y-55752380D02*
X115899609Y-55714285D01*
X115899609Y-55714285D02*
X115937704Y-55638094D01*
X114037704Y-56590475D02*
X114837704Y-56590475D01*
X114837704Y-56590475D02*
X114837704Y-56399999D01*
X114837704Y-56399999D02*
X114799609Y-56285713D01*
X114799609Y-56285713D02*
X114723419Y-56209523D01*
X114723419Y-56209523D02*
X114647228Y-56171428D01*
X114647228Y-56171428D02*
X114494847Y-56133332D01*
X114494847Y-56133332D02*
X114380561Y-56133332D01*
X114380561Y-56133332D02*
X114228180Y-56171428D01*
X114228180Y-56171428D02*
X114151990Y-56209523D01*
X114151990Y-56209523D02*
X114075800Y-56285713D01*
X114075800Y-56285713D02*
X114037704Y-56399999D01*
X114037704Y-56399999D02*
X114037704Y-56590475D01*
X114037704Y-55371428D02*
X114037704Y-55828571D01*
X114037704Y-55599999D02*
X114837704Y-55599999D01*
X114837704Y-55599999D02*
X114723419Y-55676190D01*
X114723419Y-55676190D02*
X114647228Y-55752380D01*
X114647228Y-55752380D02*
X114609133Y-55828571D01*
X121737704Y-56590475D02*
X122537704Y-56590475D01*
X122537704Y-56590475D02*
X122537704Y-56399999D01*
X122537704Y-56399999D02*
X122499609Y-56285713D01*
X122499609Y-56285713D02*
X122423419Y-56209523D01*
X122423419Y-56209523D02*
X122347228Y-56171428D01*
X122347228Y-56171428D02*
X122194847Y-56133332D01*
X122194847Y-56133332D02*
X122080561Y-56133332D01*
X122080561Y-56133332D02*
X121928180Y-56171428D01*
X121928180Y-56171428D02*
X121851990Y-56209523D01*
X121851990Y-56209523D02*
X121775800Y-56285713D01*
X121775800Y-56285713D02*
X121737704Y-56399999D01*
X121737704Y-56399999D02*
X121737704Y-56590475D01*
X122461514Y-55828571D02*
X122499609Y-55790475D01*
X122499609Y-55790475D02*
X122537704Y-55714285D01*
X122537704Y-55714285D02*
X122537704Y-55523809D01*
X122537704Y-55523809D02*
X122499609Y-55447618D01*
X122499609Y-55447618D02*
X122461514Y-55409523D01*
X122461514Y-55409523D02*
X122385323Y-55371428D01*
X122385323Y-55371428D02*
X122309133Y-55371428D01*
X122309133Y-55371428D02*
X122194847Y-55409523D01*
X122194847Y-55409523D02*
X121737704Y-55866666D01*
X121737704Y-55866666D02*
X121737704Y-55371428D01*
X117387704Y-81340475D02*
X118187704Y-81340475D01*
X118187704Y-81340475D02*
X118187704Y-81149999D01*
X118187704Y-81149999D02*
X118149609Y-81035713D01*
X118149609Y-81035713D02*
X118073419Y-80959523D01*
X118073419Y-80959523D02*
X117997228Y-80921428D01*
X117997228Y-80921428D02*
X117844847Y-80883332D01*
X117844847Y-80883332D02*
X117730561Y-80883332D01*
X117730561Y-80883332D02*
X117578180Y-80921428D01*
X117578180Y-80921428D02*
X117501990Y-80959523D01*
X117501990Y-80959523D02*
X117425800Y-81035713D01*
X117425800Y-81035713D02*
X117387704Y-81149999D01*
X117387704Y-81149999D02*
X117387704Y-81340475D01*
X118187704Y-80388094D02*
X118187704Y-80311904D01*
X118187704Y-80311904D02*
X118149609Y-80235713D01*
X118149609Y-80235713D02*
X118111514Y-80197618D01*
X118111514Y-80197618D02*
X118035323Y-80159523D01*
X118035323Y-80159523D02*
X117882942Y-80121428D01*
X117882942Y-80121428D02*
X117692466Y-80121428D01*
X117692466Y-80121428D02*
X117540085Y-80159523D01*
X117540085Y-80159523D02*
X117463895Y-80197618D01*
X117463895Y-80197618D02*
X117425800Y-80235713D01*
X117425800Y-80235713D02*
X117387704Y-80311904D01*
X117387704Y-80311904D02*
X117387704Y-80388094D01*
X117387704Y-80388094D02*
X117425800Y-80464285D01*
X117425800Y-80464285D02*
X117463895Y-80502380D01*
X117463895Y-80502380D02*
X117540085Y-80540475D01*
X117540085Y-80540475D02*
X117692466Y-80578571D01*
X117692466Y-80578571D02*
X117882942Y-80578571D01*
X117882942Y-80578571D02*
X118035323Y-80540475D01*
X118035323Y-80540475D02*
X118111514Y-80502380D01*
X118111514Y-80502380D02*
X118149609Y-80464285D01*
X118149609Y-80464285D02*
X118187704Y-80388094D01*
X105687704Y-82257142D02*
X104887704Y-81990475D01*
X104887704Y-81990475D02*
X105687704Y-81723809D01*
X104887704Y-81457142D02*
X105687704Y-81457142D01*
X105687704Y-81457142D02*
X105687704Y-81266666D01*
X105687704Y-81266666D02*
X105649609Y-81152380D01*
X105649609Y-81152380D02*
X105573419Y-81076190D01*
X105573419Y-81076190D02*
X105497228Y-81038095D01*
X105497228Y-81038095D02*
X105344847Y-80999999D01*
X105344847Y-80999999D02*
X105230561Y-80999999D01*
X105230561Y-80999999D02*
X105078180Y-81038095D01*
X105078180Y-81038095D02*
X105001990Y-81076190D01*
X105001990Y-81076190D02*
X104925800Y-81152380D01*
X104925800Y-81152380D02*
X104887704Y-81266666D01*
X104887704Y-81266666D02*
X104887704Y-81457142D01*
X104887704Y-80657142D02*
X105687704Y-80657142D01*
X105687704Y-80657142D02*
X105687704Y-80466666D01*
X105687704Y-80466666D02*
X105649609Y-80352380D01*
X105649609Y-80352380D02*
X105573419Y-80276190D01*
X105573419Y-80276190D02*
X105497228Y-80238095D01*
X105497228Y-80238095D02*
X105344847Y-80199999D01*
X105344847Y-80199999D02*
X105230561Y-80199999D01*
X105230561Y-80199999D02*
X105078180Y-80238095D01*
X105078180Y-80238095D02*
X105001990Y-80276190D01*
X105001990Y-80276190D02*
X104925800Y-80352380D01*
X104925800Y-80352380D02*
X104887704Y-80466666D01*
X104887704Y-80466666D02*
X104887704Y-80657142D01*
X104887704Y-79857142D02*
X105687704Y-79857142D01*
X113499999Y-81628961D02*
X113499999Y-80486104D01*
X125937704Y-82066666D02*
X125137704Y-81799999D01*
X125137704Y-81799999D02*
X125937704Y-81533333D01*
X125213895Y-80809523D02*
X125175800Y-80847619D01*
X125175800Y-80847619D02*
X125137704Y-80961904D01*
X125137704Y-80961904D02*
X125137704Y-81038095D01*
X125137704Y-81038095D02*
X125175800Y-81152381D01*
X125175800Y-81152381D02*
X125251990Y-81228571D01*
X125251990Y-81228571D02*
X125328180Y-81266666D01*
X125328180Y-81266666D02*
X125480561Y-81304762D01*
X125480561Y-81304762D02*
X125594847Y-81304762D01*
X125594847Y-81304762D02*
X125747228Y-81266666D01*
X125747228Y-81266666D02*
X125823419Y-81228571D01*
X125823419Y-81228571D02*
X125899609Y-81152381D01*
X125899609Y-81152381D02*
X125937704Y-81038095D01*
X125937704Y-81038095D02*
X125937704Y-80961904D01*
X125937704Y-80961904D02*
X125899609Y-80847619D01*
X125899609Y-80847619D02*
X125861514Y-80809523D01*
X125213895Y-80009523D02*
X125175800Y-80047619D01*
X125175800Y-80047619D02*
X125137704Y-80161904D01*
X125137704Y-80161904D02*
X125137704Y-80238095D01*
X125137704Y-80238095D02*
X125175800Y-80352381D01*
X125175800Y-80352381D02*
X125251990Y-80428571D01*
X125251990Y-80428571D02*
X125328180Y-80466666D01*
X125328180Y-80466666D02*
X125480561Y-80504762D01*
X125480561Y-80504762D02*
X125594847Y-80504762D01*
X125594847Y-80504762D02*
X125747228Y-80466666D01*
X125747228Y-80466666D02*
X125823419Y-80428571D01*
X125823419Y-80428571D02*
X125899609Y-80352381D01*
X125899609Y-80352381D02*
X125937704Y-80238095D01*
X125937704Y-80238095D02*
X125937704Y-80161904D01*
X125937704Y-80161904D02*
X125899609Y-80047619D01*
X125899609Y-80047619D02*
X125861514Y-80009523D01*
X122463895Y-81476189D02*
X122425800Y-81514285D01*
X122425800Y-81514285D02*
X122387704Y-81628570D01*
X122387704Y-81628570D02*
X122387704Y-81704761D01*
X122387704Y-81704761D02*
X122425800Y-81819047D01*
X122425800Y-81819047D02*
X122501990Y-81895237D01*
X122501990Y-81895237D02*
X122578180Y-81933332D01*
X122578180Y-81933332D02*
X122730561Y-81971428D01*
X122730561Y-81971428D02*
X122844847Y-81971428D01*
X122844847Y-81971428D02*
X122997228Y-81933332D01*
X122997228Y-81933332D02*
X123073419Y-81895237D01*
X123073419Y-81895237D02*
X123149609Y-81819047D01*
X123149609Y-81819047D02*
X123187704Y-81704761D01*
X123187704Y-81704761D02*
X123187704Y-81628570D01*
X123187704Y-81628570D02*
X123149609Y-81514285D01*
X123149609Y-81514285D02*
X123111514Y-81476189D01*
X122387704Y-80752380D02*
X122387704Y-81133332D01*
X122387704Y-81133332D02*
X123187704Y-81133332D01*
X122387704Y-80485713D02*
X123187704Y-80485713D01*
X122387704Y-80028570D02*
X122844847Y-80371428D01*
X123187704Y-80028570D02*
X122730561Y-80485713D01*
X120687704Y-82066666D02*
X119887704Y-81799999D01*
X119887704Y-81799999D02*
X120687704Y-81533333D01*
X119887704Y-81266666D02*
X120687704Y-81266666D01*
X120687704Y-81266666D02*
X120687704Y-81076190D01*
X120687704Y-81076190D02*
X120649609Y-80961904D01*
X120649609Y-80961904D02*
X120573419Y-80885714D01*
X120573419Y-80885714D02*
X120497228Y-80847619D01*
X120497228Y-80847619D02*
X120344847Y-80809523D01*
X120344847Y-80809523D02*
X120230561Y-80809523D01*
X120230561Y-80809523D02*
X120078180Y-80847619D01*
X120078180Y-80847619D02*
X120001990Y-80885714D01*
X120001990Y-80885714D02*
X119925800Y-80961904D01*
X119925800Y-80961904D02*
X119887704Y-81076190D01*
X119887704Y-81076190D02*
X119887704Y-81266666D01*
X119887704Y-80466666D02*
X120687704Y-80466666D01*
X120687704Y-80466666D02*
X120687704Y-80276190D01*
X120687704Y-80276190D02*
X120649609Y-80161904D01*
X120649609Y-80161904D02*
X120573419Y-80085714D01*
X120573419Y-80085714D02*
X120497228Y-80047619D01*
X120497228Y-80047619D02*
X120344847Y-80009523D01*
X120344847Y-80009523D02*
X120230561Y-80009523D01*
X120230561Y-80009523D02*
X120078180Y-80047619D01*
X120078180Y-80047619D02*
X120001990Y-80085714D01*
X120001990Y-80085714D02*
X119925800Y-80161904D01*
X119925800Y-80161904D02*
X119887704Y-80276190D01*
X119887704Y-80276190D02*
X119887704Y-80466666D01*
X110437704Y-82235713D02*
X109637704Y-81969046D01*
X109637704Y-81969046D02*
X110437704Y-81702380D01*
X109713895Y-80978570D02*
X109675800Y-81016666D01*
X109675800Y-81016666D02*
X109637704Y-81130951D01*
X109637704Y-81130951D02*
X109637704Y-81207142D01*
X109637704Y-81207142D02*
X109675800Y-81321428D01*
X109675800Y-81321428D02*
X109751990Y-81397618D01*
X109751990Y-81397618D02*
X109828180Y-81435713D01*
X109828180Y-81435713D02*
X109980561Y-81473809D01*
X109980561Y-81473809D02*
X110094847Y-81473809D01*
X110094847Y-81473809D02*
X110247228Y-81435713D01*
X110247228Y-81435713D02*
X110323419Y-81397618D01*
X110323419Y-81397618D02*
X110399609Y-81321428D01*
X110399609Y-81321428D02*
X110437704Y-81207142D01*
X110437704Y-81207142D02*
X110437704Y-81130951D01*
X110437704Y-81130951D02*
X110399609Y-81016666D01*
X110399609Y-81016666D02*
X110361514Y-80978570D01*
X109713895Y-80178570D02*
X109675800Y-80216666D01*
X109675800Y-80216666D02*
X109637704Y-80330951D01*
X109637704Y-80330951D02*
X109637704Y-80407142D01*
X109637704Y-80407142D02*
X109675800Y-80521428D01*
X109675800Y-80521428D02*
X109751990Y-80597618D01*
X109751990Y-80597618D02*
X109828180Y-80635713D01*
X109828180Y-80635713D02*
X109980561Y-80673809D01*
X109980561Y-80673809D02*
X110094847Y-80673809D01*
X110094847Y-80673809D02*
X110247228Y-80635713D01*
X110247228Y-80635713D02*
X110323419Y-80597618D01*
X110323419Y-80597618D02*
X110399609Y-80521428D01*
X110399609Y-80521428D02*
X110437704Y-80407142D01*
X110437704Y-80407142D02*
X110437704Y-80330951D01*
X110437704Y-80330951D02*
X110399609Y-80216666D01*
X110399609Y-80216666D02*
X110361514Y-80178570D01*
X109561514Y-79302380D02*
X109599609Y-79378570D01*
X109599609Y-79378570D02*
X109675800Y-79454761D01*
X109675800Y-79454761D02*
X109790085Y-79569047D01*
X109790085Y-79569047D02*
X109828180Y-79645237D01*
X109828180Y-79645237D02*
X109828180Y-79721428D01*
X109637704Y-79683332D02*
X109675800Y-79759523D01*
X109675800Y-79759523D02*
X109751990Y-79835713D01*
X109751990Y-79835713D02*
X109904371Y-79873809D01*
X109904371Y-79873809D02*
X110171038Y-79873809D01*
X110171038Y-79873809D02*
X110323419Y-79835713D01*
X110323419Y-79835713D02*
X110399609Y-79759523D01*
X110399609Y-79759523D02*
X110437704Y-79683332D01*
X110437704Y-79683332D02*
X110437704Y-79530951D01*
X110437704Y-79530951D02*
X110399609Y-79454761D01*
X110399609Y-79454761D02*
X110323419Y-79378570D01*
X110323419Y-79378570D02*
X110171038Y-79340475D01*
X110171038Y-79340475D02*
X109904371Y-79340475D01*
X109904371Y-79340475D02*
X109751990Y-79378570D01*
X109751990Y-79378570D02*
X109675800Y-79454761D01*
X109675800Y-79454761D02*
X109637704Y-79530951D01*
X109637704Y-79530951D02*
X109637704Y-79683332D01*
X112387704Y-81438094D02*
X112768657Y-81704761D01*
X112387704Y-81895237D02*
X113187704Y-81895237D01*
X113187704Y-81895237D02*
X113187704Y-81590475D01*
X113187704Y-81590475D02*
X113149609Y-81514285D01*
X113149609Y-81514285D02*
X113111514Y-81476190D01*
X113111514Y-81476190D02*
X113035323Y-81438094D01*
X113035323Y-81438094D02*
X112921038Y-81438094D01*
X112921038Y-81438094D02*
X112844847Y-81476190D01*
X112844847Y-81476190D02*
X112806752Y-81514285D01*
X112806752Y-81514285D02*
X112768657Y-81590475D01*
X112768657Y-81590475D02*
X112768657Y-81895237D01*
X112425800Y-81133333D02*
X112387704Y-81019047D01*
X112387704Y-81019047D02*
X112387704Y-80828571D01*
X112387704Y-80828571D02*
X112425800Y-80752380D01*
X112425800Y-80752380D02*
X112463895Y-80714285D01*
X112463895Y-80714285D02*
X112540085Y-80676190D01*
X112540085Y-80676190D02*
X112616276Y-80676190D01*
X112616276Y-80676190D02*
X112692466Y-80714285D01*
X112692466Y-80714285D02*
X112730561Y-80752380D01*
X112730561Y-80752380D02*
X112768657Y-80828571D01*
X112768657Y-80828571D02*
X112806752Y-80980952D01*
X112806752Y-80980952D02*
X112844847Y-81057142D01*
X112844847Y-81057142D02*
X112882942Y-81095237D01*
X112882942Y-81095237D02*
X112959133Y-81133333D01*
X112959133Y-81133333D02*
X113035323Y-81133333D01*
X113035323Y-81133333D02*
X113111514Y-81095237D01*
X113111514Y-81095237D02*
X113149609Y-81057142D01*
X113149609Y-81057142D02*
X113187704Y-80980952D01*
X113187704Y-80980952D02*
X113187704Y-80790475D01*
X113187704Y-80790475D02*
X113149609Y-80676190D01*
X113187704Y-80447618D02*
X113187704Y-79990475D01*
X112387704Y-80219047D02*
X113187704Y-80219047D01*
X130137704Y-81340475D02*
X130937704Y-81340475D01*
X130937704Y-81340475D02*
X130937704Y-81149999D01*
X130937704Y-81149999D02*
X130899609Y-81035713D01*
X130899609Y-81035713D02*
X130823419Y-80959523D01*
X130823419Y-80959523D02*
X130747228Y-80921428D01*
X130747228Y-80921428D02*
X130594847Y-80883332D01*
X130594847Y-80883332D02*
X130480561Y-80883332D01*
X130480561Y-80883332D02*
X130328180Y-80921428D01*
X130328180Y-80921428D02*
X130251990Y-80959523D01*
X130251990Y-80959523D02*
X130175800Y-81035713D01*
X130175800Y-81035713D02*
X130137704Y-81149999D01*
X130137704Y-81149999D02*
X130137704Y-81340475D01*
X130937704Y-80616666D02*
X130937704Y-80121428D01*
X130937704Y-80121428D02*
X130632942Y-80388094D01*
X130632942Y-80388094D02*
X130632942Y-80273809D01*
X130632942Y-80273809D02*
X130594847Y-80197618D01*
X130594847Y-80197618D02*
X130556752Y-80159523D01*
X130556752Y-80159523D02*
X130480561Y-80121428D01*
X130480561Y-80121428D02*
X130290085Y-80121428D01*
X130290085Y-80121428D02*
X130213895Y-80159523D01*
X130213895Y-80159523D02*
X130175800Y-80197618D01*
X130175800Y-80197618D02*
X130137704Y-80273809D01*
X130137704Y-80273809D02*
X130137704Y-80502380D01*
X130137704Y-80502380D02*
X130175800Y-80578571D01*
X130175800Y-80578571D02*
X130213895Y-80616666D01*
X132637704Y-81340475D02*
X133437704Y-81340475D01*
X133437704Y-81340475D02*
X133437704Y-81149999D01*
X133437704Y-81149999D02*
X133399609Y-81035713D01*
X133399609Y-81035713D02*
X133323419Y-80959523D01*
X133323419Y-80959523D02*
X133247228Y-80921428D01*
X133247228Y-80921428D02*
X133094847Y-80883332D01*
X133094847Y-80883332D02*
X132980561Y-80883332D01*
X132980561Y-80883332D02*
X132828180Y-80921428D01*
X132828180Y-80921428D02*
X132751990Y-80959523D01*
X132751990Y-80959523D02*
X132675800Y-81035713D01*
X132675800Y-81035713D02*
X132637704Y-81149999D01*
X132637704Y-81149999D02*
X132637704Y-81340475D01*
X133361514Y-80578571D02*
X133399609Y-80540475D01*
X133399609Y-80540475D02*
X133437704Y-80464285D01*
X133437704Y-80464285D02*
X133437704Y-80273809D01*
X133437704Y-80273809D02*
X133399609Y-80197618D01*
X133399609Y-80197618D02*
X133361514Y-80159523D01*
X133361514Y-80159523D02*
X133285323Y-80121428D01*
X133285323Y-80121428D02*
X133209133Y-80121428D01*
X133209133Y-80121428D02*
X133094847Y-80159523D01*
X133094847Y-80159523D02*
X132637704Y-80616666D01*
X132637704Y-80616666D02*
X132637704Y-80121428D01*
X107937704Y-82235713D02*
X107137704Y-81969046D01*
X107137704Y-81969046D02*
X107937704Y-81702380D01*
X107137704Y-81435713D02*
X107937704Y-81435713D01*
X107937704Y-81435713D02*
X107937704Y-81245237D01*
X107937704Y-81245237D02*
X107899609Y-81130951D01*
X107899609Y-81130951D02*
X107823419Y-81054761D01*
X107823419Y-81054761D02*
X107747228Y-81016666D01*
X107747228Y-81016666D02*
X107594847Y-80978570D01*
X107594847Y-80978570D02*
X107480561Y-80978570D01*
X107480561Y-80978570D02*
X107328180Y-81016666D01*
X107328180Y-81016666D02*
X107251990Y-81054761D01*
X107251990Y-81054761D02*
X107175800Y-81130951D01*
X107175800Y-81130951D02*
X107137704Y-81245237D01*
X107137704Y-81245237D02*
X107137704Y-81435713D01*
X107137704Y-80635713D02*
X107937704Y-80635713D01*
X107937704Y-80635713D02*
X107937704Y-80445237D01*
X107937704Y-80445237D02*
X107899609Y-80330951D01*
X107899609Y-80330951D02*
X107823419Y-80254761D01*
X107823419Y-80254761D02*
X107747228Y-80216666D01*
X107747228Y-80216666D02*
X107594847Y-80178570D01*
X107594847Y-80178570D02*
X107480561Y-80178570D01*
X107480561Y-80178570D02*
X107328180Y-80216666D01*
X107328180Y-80216666D02*
X107251990Y-80254761D01*
X107251990Y-80254761D02*
X107175800Y-80330951D01*
X107175800Y-80330951D02*
X107137704Y-80445237D01*
X107137704Y-80445237D02*
X107137704Y-80635713D01*
X107061514Y-79302380D02*
X107099609Y-79378570D01*
X107099609Y-79378570D02*
X107175800Y-79454761D01*
X107175800Y-79454761D02*
X107290085Y-79569047D01*
X107290085Y-79569047D02*
X107328180Y-79645237D01*
X107328180Y-79645237D02*
X107328180Y-79721428D01*
X107137704Y-79683332D02*
X107175800Y-79759523D01*
X107175800Y-79759523D02*
X107251990Y-79835713D01*
X107251990Y-79835713D02*
X107404371Y-79873809D01*
X107404371Y-79873809D02*
X107671038Y-79873809D01*
X107671038Y-79873809D02*
X107823419Y-79835713D01*
X107823419Y-79835713D02*
X107899609Y-79759523D01*
X107899609Y-79759523D02*
X107937704Y-79683332D01*
X107937704Y-79683332D02*
X107937704Y-79530951D01*
X107937704Y-79530951D02*
X107899609Y-79454761D01*
X107899609Y-79454761D02*
X107823419Y-79378570D01*
X107823419Y-79378570D02*
X107671038Y-79340475D01*
X107671038Y-79340475D02*
X107404371Y-79340475D01*
X107404371Y-79340475D02*
X107251990Y-79378570D01*
X107251990Y-79378570D02*
X107175800Y-79454761D01*
X107175800Y-79454761D02*
X107137704Y-79530951D01*
X107137704Y-79530951D02*
X107137704Y-79683332D01*
X114887704Y-81340475D02*
X115687704Y-81340475D01*
X115687704Y-81340475D02*
X115687704Y-81149999D01*
X115687704Y-81149999D02*
X115649609Y-81035713D01*
X115649609Y-81035713D02*
X115573419Y-80959523D01*
X115573419Y-80959523D02*
X115497228Y-80921428D01*
X115497228Y-80921428D02*
X115344847Y-80883332D01*
X115344847Y-80883332D02*
X115230561Y-80883332D01*
X115230561Y-80883332D02*
X115078180Y-80921428D01*
X115078180Y-80921428D02*
X115001990Y-80959523D01*
X115001990Y-80959523D02*
X114925800Y-81035713D01*
X114925800Y-81035713D02*
X114887704Y-81149999D01*
X114887704Y-81149999D02*
X114887704Y-81340475D01*
X114887704Y-80121428D02*
X114887704Y-80578571D01*
X114887704Y-80349999D02*
X115687704Y-80349999D01*
X115687704Y-80349999D02*
X115573419Y-80426190D01*
X115573419Y-80426190D02*
X115497228Y-80502380D01*
X115497228Y-80502380D02*
X115459133Y-80578571D01*
X127713895Y-81609523D02*
X127675800Y-81647619D01*
X127675800Y-81647619D02*
X127637704Y-81761904D01*
X127637704Y-81761904D02*
X127637704Y-81838095D01*
X127637704Y-81838095D02*
X127675800Y-81952381D01*
X127675800Y-81952381D02*
X127751990Y-82028571D01*
X127751990Y-82028571D02*
X127828180Y-82066666D01*
X127828180Y-82066666D02*
X127980561Y-82104762D01*
X127980561Y-82104762D02*
X128094847Y-82104762D01*
X128094847Y-82104762D02*
X128247228Y-82066666D01*
X128247228Y-82066666D02*
X128323419Y-82028571D01*
X128323419Y-82028571D02*
X128399609Y-81952381D01*
X128399609Y-81952381D02*
X128437704Y-81838095D01*
X128437704Y-81838095D02*
X128437704Y-81761904D01*
X128437704Y-81761904D02*
X128399609Y-81647619D01*
X128399609Y-81647619D02*
X128361514Y-81609523D01*
X127637704Y-81266666D02*
X128437704Y-81266666D01*
X128437704Y-81266666D02*
X127866276Y-81000000D01*
X127866276Y-81000000D02*
X128437704Y-80733333D01*
X128437704Y-80733333D02*
X127637704Y-80733333D01*
X127637704Y-80352380D02*
X128437704Y-80352380D01*
X128437704Y-80352380D02*
X128437704Y-80161904D01*
X128437704Y-80161904D02*
X128399609Y-80047618D01*
X128399609Y-80047618D02*
X128323419Y-79971428D01*
X128323419Y-79971428D02*
X128247228Y-79933333D01*
X128247228Y-79933333D02*
X128094847Y-79895237D01*
X128094847Y-79895237D02*
X127980561Y-79895237D01*
X127980561Y-79895237D02*
X127828180Y-79933333D01*
X127828180Y-79933333D02*
X127751990Y-79971428D01*
X127751990Y-79971428D02*
X127675800Y-80047618D01*
X127675800Y-80047618D02*
X127637704Y-80161904D01*
X127637704Y-80161904D02*
X127637704Y-80352380D01*
X134759819Y-77416666D02*
X135474104Y-77416666D01*
X135474104Y-77416666D02*
X135616961Y-77369047D01*
X135616961Y-77369047D02*
X135712200Y-77273809D01*
X135712200Y-77273809D02*
X135759819Y-77130952D01*
X135759819Y-77130952D02*
X135759819Y-77035714D01*
X134855057Y-77845238D02*
X134807438Y-77892857D01*
X134807438Y-77892857D02*
X134759819Y-77988095D01*
X134759819Y-77988095D02*
X134759819Y-78226190D01*
X134759819Y-78226190D02*
X134807438Y-78321428D01*
X134807438Y-78321428D02*
X134855057Y-78369047D01*
X134855057Y-78369047D02*
X134950295Y-78416666D01*
X134950295Y-78416666D02*
X135045533Y-78416666D01*
X135045533Y-78416666D02*
X135188390Y-78369047D01*
X135188390Y-78369047D02*
X135759819Y-77797619D01*
X135759819Y-77797619D02*
X135759819Y-78416666D01*
X127139580Y-73958333D02*
X127187200Y-73910714D01*
X127187200Y-73910714D02*
X127234819Y-73767857D01*
X127234819Y-73767857D02*
X127234819Y-73672619D01*
X127234819Y-73672619D02*
X127187200Y-73529762D01*
X127187200Y-73529762D02*
X127091961Y-73434524D01*
X127091961Y-73434524D02*
X126996723Y-73386905D01*
X126996723Y-73386905D02*
X126806247Y-73339286D01*
X126806247Y-73339286D02*
X126663390Y-73339286D01*
X126663390Y-73339286D02*
X126472914Y-73386905D01*
X126472914Y-73386905D02*
X126377676Y-73434524D01*
X126377676Y-73434524D02*
X126282438Y-73529762D01*
X126282438Y-73529762D02*
X126234819Y-73672619D01*
X126234819Y-73672619D02*
X126234819Y-73767857D01*
X126234819Y-73767857D02*
X126282438Y-73910714D01*
X126282438Y-73910714D02*
X126330057Y-73958333D01*
X127234819Y-74910714D02*
X127234819Y-74339286D01*
X127234819Y-74625000D02*
X126234819Y-74625000D01*
X126234819Y-74625000D02*
X126377676Y-74529762D01*
X126377676Y-74529762D02*
X126472914Y-74434524D01*
X126472914Y-74434524D02*
X126520533Y-74339286D01*
X113641666Y-73324819D02*
X113974999Y-72848628D01*
X114213094Y-73324819D02*
X114213094Y-72324819D01*
X114213094Y-72324819D02*
X113832142Y-72324819D01*
X113832142Y-72324819D02*
X113736904Y-72372438D01*
X113736904Y-72372438D02*
X113689285Y-72420057D01*
X113689285Y-72420057D02*
X113641666Y-72515295D01*
X113641666Y-72515295D02*
X113641666Y-72658152D01*
X113641666Y-72658152D02*
X113689285Y-72753390D01*
X113689285Y-72753390D02*
X113736904Y-72801009D01*
X113736904Y-72801009D02*
X113832142Y-72848628D01*
X113832142Y-72848628D02*
X114213094Y-72848628D01*
X112689285Y-73324819D02*
X113260713Y-73324819D01*
X112974999Y-73324819D02*
X112974999Y-72324819D01*
X112974999Y-72324819D02*
X113070237Y-72467676D01*
X113070237Y-72467676D02*
X113165475Y-72562914D01*
X113165475Y-72562914D02*
X113260713Y-72610533D01*
X115586666Y-72149580D02*
X115634285Y-72197200D01*
X115634285Y-72197200D02*
X115777142Y-72244819D01*
X115777142Y-72244819D02*
X115872380Y-72244819D01*
X115872380Y-72244819D02*
X116015237Y-72197200D01*
X116015237Y-72197200D02*
X116110475Y-72101961D01*
X116110475Y-72101961D02*
X116158094Y-72006723D01*
X116158094Y-72006723D02*
X116205713Y-71816247D01*
X116205713Y-71816247D02*
X116205713Y-71673390D01*
X116205713Y-71673390D02*
X116158094Y-71482914D01*
X116158094Y-71482914D02*
X116110475Y-71387676D01*
X116110475Y-71387676D02*
X116015237Y-71292438D01*
X116015237Y-71292438D02*
X115872380Y-71244819D01*
X115872380Y-71244819D02*
X115777142Y-71244819D01*
X115777142Y-71244819D02*
X115634285Y-71292438D01*
X115634285Y-71292438D02*
X115586666Y-71340057D01*
X115205713Y-71340057D02*
X115158094Y-71292438D01*
X115158094Y-71292438D02*
X115062856Y-71244819D01*
X115062856Y-71244819D02*
X114824761Y-71244819D01*
X114824761Y-71244819D02*
X114729523Y-71292438D01*
X114729523Y-71292438D02*
X114681904Y-71340057D01*
X114681904Y-71340057D02*
X114634285Y-71435295D01*
X114634285Y-71435295D02*
X114634285Y-71530533D01*
X114634285Y-71530533D02*
X114681904Y-71673390D01*
X114681904Y-71673390D02*
X115253332Y-72244819D01*
X115253332Y-72244819D02*
X114634285Y-72244819D01*
X132564094Y-71160819D02*
X132564094Y-70160819D01*
X132564094Y-70160819D02*
X132325999Y-70160819D01*
X132325999Y-70160819D02*
X132183142Y-70208438D01*
X132183142Y-70208438D02*
X132087904Y-70303676D01*
X132087904Y-70303676D02*
X132040285Y-70398914D01*
X132040285Y-70398914D02*
X131992666Y-70589390D01*
X131992666Y-70589390D02*
X131992666Y-70732247D01*
X131992666Y-70732247D02*
X132040285Y-70922723D01*
X132040285Y-70922723D02*
X132087904Y-71017961D01*
X132087904Y-71017961D02*
X132183142Y-71113200D01*
X132183142Y-71113200D02*
X132325999Y-71160819D01*
X132325999Y-71160819D02*
X132564094Y-71160819D01*
X131040285Y-71160819D02*
X131611713Y-71160819D01*
X131325999Y-71160819D02*
X131325999Y-70160819D01*
X131325999Y-70160819D02*
X131421237Y-70303676D01*
X131421237Y-70303676D02*
X131516475Y-70398914D01*
X131516475Y-70398914D02*
X131611713Y-70446533D01*
X105369580Y-70133333D02*
X105417200Y-70085714D01*
X105417200Y-70085714D02*
X105464819Y-69942857D01*
X105464819Y-69942857D02*
X105464819Y-69847619D01*
X105464819Y-69847619D02*
X105417200Y-69704762D01*
X105417200Y-69704762D02*
X105321961Y-69609524D01*
X105321961Y-69609524D02*
X105226723Y-69561905D01*
X105226723Y-69561905D02*
X105036247Y-69514286D01*
X105036247Y-69514286D02*
X104893390Y-69514286D01*
X104893390Y-69514286D02*
X104702914Y-69561905D01*
X104702914Y-69561905D02*
X104607676Y-69609524D01*
X104607676Y-69609524D02*
X104512438Y-69704762D01*
X104512438Y-69704762D02*
X104464819Y-69847619D01*
X104464819Y-69847619D02*
X104464819Y-69942857D01*
X104464819Y-69942857D02*
X104512438Y-70085714D01*
X104512438Y-70085714D02*
X104560057Y-70133333D01*
X104464819Y-70466667D02*
X104464819Y-71085714D01*
X104464819Y-71085714D02*
X104845771Y-70752381D01*
X104845771Y-70752381D02*
X104845771Y-70895238D01*
X104845771Y-70895238D02*
X104893390Y-70990476D01*
X104893390Y-70990476D02*
X104941009Y-71038095D01*
X104941009Y-71038095D02*
X105036247Y-71085714D01*
X105036247Y-71085714D02*
X105274342Y-71085714D01*
X105274342Y-71085714D02*
X105369580Y-71038095D01*
X105369580Y-71038095D02*
X105417200Y-70990476D01*
X105417200Y-70990476D02*
X105464819Y-70895238D01*
X105464819Y-70895238D02*
X105464819Y-70609524D01*
X105464819Y-70609524D02*
X105417200Y-70514286D01*
X105417200Y-70514286D02*
X105369580Y-70466667D01*
X106839580Y-73408333D02*
X106887200Y-73360714D01*
X106887200Y-73360714D02*
X106934819Y-73217857D01*
X106934819Y-73217857D02*
X106934819Y-73122619D01*
X106934819Y-73122619D02*
X106887200Y-72979762D01*
X106887200Y-72979762D02*
X106791961Y-72884524D01*
X106791961Y-72884524D02*
X106696723Y-72836905D01*
X106696723Y-72836905D02*
X106506247Y-72789286D01*
X106506247Y-72789286D02*
X106363390Y-72789286D01*
X106363390Y-72789286D02*
X106172914Y-72836905D01*
X106172914Y-72836905D02*
X106077676Y-72884524D01*
X106077676Y-72884524D02*
X105982438Y-72979762D01*
X105982438Y-72979762D02*
X105934819Y-73122619D01*
X105934819Y-73122619D02*
X105934819Y-73217857D01*
X105934819Y-73217857D02*
X105982438Y-73360714D01*
X105982438Y-73360714D02*
X106030057Y-73408333D01*
X106268152Y-74265476D02*
X106934819Y-74265476D01*
X105887200Y-74027381D02*
X106601485Y-73789286D01*
X106601485Y-73789286D02*
X106601485Y-74408333D01*
X110899404Y-68354819D02*
X110899404Y-69164342D01*
X110899404Y-69164342D02*
X110851785Y-69259580D01*
X110851785Y-69259580D02*
X110804166Y-69307200D01*
X110804166Y-69307200D02*
X110708928Y-69354819D01*
X110708928Y-69354819D02*
X110518452Y-69354819D01*
X110518452Y-69354819D02*
X110423214Y-69307200D01*
X110423214Y-69307200D02*
X110375595Y-69259580D01*
X110375595Y-69259580D02*
X110327976Y-69164342D01*
X110327976Y-69164342D02*
X110327976Y-68354819D01*
X109327976Y-69354819D02*
X109899404Y-69354819D01*
X109613690Y-69354819D02*
X109613690Y-68354819D01*
X109613690Y-68354819D02*
X109708928Y-68497676D01*
X109708928Y-68497676D02*
X109804166Y-68592914D01*
X109804166Y-68592914D02*
X109899404Y-68640533D01*
D11*
%TO.C,J2*%
X103705000Y-79080000D02*
X103705000Y-76420000D01*
X131705000Y-79080000D02*
X103705000Y-79080000D01*
X131705000Y-79080000D02*
X131705000Y-76420000D01*
X132975000Y-79080000D02*
X134305000Y-79080000D01*
X134305000Y-79080000D02*
X134305000Y-77750000D01*
X131705000Y-76420000D02*
X103705000Y-76420000D01*
%TO.C,C1*%
X124840000Y-74265580D02*
X124840000Y-73984420D01*
X125860000Y-74265580D02*
X125860000Y-73984420D01*
%TO.C,R1*%
X113712258Y-74822500D02*
X113237742Y-74822500D01*
X113712258Y-73777500D02*
X113237742Y-73777500D01*
%TO.C,C2*%
X114859420Y-69840000D02*
X115140580Y-69840000D01*
X114859420Y-70860000D02*
X115140580Y-70860000D01*
%TO.C,D1*%
X133311000Y-72871000D02*
X131026000Y-72871000D01*
X133311000Y-71401000D02*
X133311000Y-72871000D01*
X131026000Y-71401000D02*
X133311000Y-71401000D01*
%TO.C,C3*%
X105990000Y-70565580D02*
X105990000Y-70284420D01*
X107010000Y-70565580D02*
X107010000Y-70284420D01*
%TO.C,C4*%
X104540000Y-73715580D02*
X104540000Y-73434420D01*
X105560000Y-73715580D02*
X105560000Y-73434420D01*
%TO.C,U1*%
X110137500Y-72860000D02*
X110937500Y-72860000D01*
X110137500Y-72860000D02*
X109337500Y-72860000D01*
X110137500Y-69740000D02*
X111937500Y-69740000D01*
X110137500Y-69740000D02*
X109337500Y-69740000D01*
%TD*%
%LPC*%
D12*
%TO.C,FID1*%
X134700000Y-81000000D03*
%TD*%
%TO.C,FID2*%
X103800000Y-81200000D03*
%TD*%
%TO.C,FID3*%
X122600000Y-62450000D03*
%TD*%
D13*
%TO.C,J1*%
X122100000Y-53550000D03*
X121000000Y-53550000D03*
X119900000Y-53550000D03*
D14*
X118800000Y-53400000D03*
D13*
X117700000Y-53550000D03*
D14*
X116600000Y-53400000D03*
D13*
X115500000Y-53550000D03*
X114400000Y-53550000D03*
%TD*%
D15*
%TO.C,J2*%
X132975000Y-77750000D03*
D16*
X130435000Y-77750000D03*
X127895000Y-77750000D03*
X125355000Y-77750000D03*
X122815000Y-77750000D03*
X120275000Y-77750000D03*
X117735000Y-77750000D03*
X115195000Y-77750000D03*
X112655000Y-77750000D03*
X110115000Y-77750000D03*
X107575000Y-77750000D03*
X105035000Y-77750000D03*
%TD*%
D17*
%TO.C,C1*%
X125350000Y-74900000D03*
X125350000Y-73350000D03*
%TD*%
D18*
%TO.C,R1*%
X114300000Y-74300000D03*
X112650000Y-74300000D03*
%TD*%
D19*
%TO.C,C2*%
X114225000Y-70350000D03*
X115775000Y-70350000D03*
%TD*%
D20*
%TO.C,D1*%
X132613500Y-72136000D03*
X131038500Y-72136000D03*
%TD*%
D17*
%TO.C,C3*%
X106500000Y-71200000D03*
X106500000Y-69650000D03*
%TD*%
%TO.C,C4*%
X105050000Y-74350000D03*
X105050000Y-72800000D03*
%TD*%
D21*
%TO.C,U1*%
X111275000Y-70350000D03*
X111275000Y-71300000D03*
X111275000Y-72250000D03*
X109000000Y-72250000D03*
X109000000Y-70350000D03*
%TD*%
%LPD*%
M02*
