%TF.GenerationSoftware,KiCad,Pcbnew,7.0.7*%
%TF.CreationDate,2023-10-03T14:25:23+02:00*%
%TF.ProjectId,emmc-adapter,656d6d63-2d61-4646-9170-7465722e6b69,rev?*%
%TF.SameCoordinates,Original*%
%TF.FileFunction,Copper,L1,Top*%
%TF.FilePolarity,Positive*%
%FSLAX46Y46*%
G04 Gerber Fmt 4.6, Leading zero omitted, Abs format (unit mm)*
G04 Created by KiCad (PCBNEW 7.0.7) date 2023-10-03 14:25:23*
%MOMM*%
%LPD*%
G01*
G04 APERTURE LIST*
%TA.AperFunction,ComponentPad*%
%ADD10R,1.700000X1.700000*%
%TD*%
%TA.AperFunction,ComponentPad*%
%ADD11O,1.700000X1.700000*%
%TD*%
%TA.AperFunction,ViaPad*%
%ADD12C,0.700000*%
%TD*%
%TA.AperFunction,Conductor*%
%ADD13C,0.500000*%
%TD*%
G04 APERTURE END LIST*
D10*
%TO.P,J2,1,Pin_1*%
%TO.N,/DAT2*%
X132975000Y-77750000D03*
D11*
%TO.P,J2,2,Pin_2*%
%TO.N,/DAT3*%
X130435000Y-77750000D03*
%TO.P,J2,3,Pin_3*%
%TO.N,/CMD*%
X127895000Y-77750000D03*
%TO.P,J2,4,Pin_4*%
%TO.N,Net-(J2-Pin_4)*%
X125355000Y-77750000D03*
%TO.P,J2,5,Pin_5*%
%TO.N,/CLK*%
X122815000Y-77750000D03*
%TO.P,J2,6,Pin_6*%
%TO.N,GND*%
X120275000Y-77750000D03*
%TO.P,J2,7,Pin_7*%
%TO.N,/DAT0*%
X117735000Y-77750000D03*
%TO.P,J2,8,Pin_8*%
%TO.N,/DAT1*%
X115195000Y-77750000D03*
%TO.P,J2,9,Pin_9*%
%TO.N,/!RST*%
X112655000Y-77750000D03*
%TO.P,J2,10,Pin_10*%
%TO.N,/VCCQ*%
X110115000Y-77750000D03*
%TO.P,J2,11,Pin_11*%
%TO.N,GND*%
X107575000Y-77750000D03*
%TO.P,J2,12,Pin_12*%
%TO.N,/VDDI*%
X105035000Y-77750000D03*
%TD*%
D12*
%TO.N,GND*%
X120280000Y-75300000D03*
%TO.N,/VCC*%
X118825000Y-58150000D03*
X123952000Y-74422000D03*
X114225000Y-68425000D03*
X127762000Y-70612000D03*
%TD*%
D13*
%TO.N,/VCC*%
X123952000Y-74422000D02*
X127762000Y-70612000D01*
X118825000Y-63825000D02*
X118825000Y-58150000D01*
X114225000Y-68425000D02*
X118825000Y-63825000D01*
%TD*%
%TA.AperFunction,Conductor*%
%TO.N,GND*%
G36*
X122412806Y-51003033D02*
G01*
X122435668Y-51007727D01*
X122539620Y-51030535D01*
X122559951Y-51036868D01*
X122610667Y-51057597D01*
X122685218Y-51091585D01*
X122701050Y-51100247D01*
X122751027Y-51132528D01*
X122754350Y-51134835D01*
X122818810Y-51182802D01*
X122824424Y-51187524D01*
X122871991Y-51232642D01*
X122875968Y-51236782D01*
X122928146Y-51296384D01*
X122931729Y-51300882D01*
X122970135Y-51353964D01*
X122974102Y-51360198D01*
X123013113Y-51430421D01*
X123014988Y-51434076D01*
X123040344Y-51487820D01*
X123046839Y-51504665D01*
X123070671Y-51583064D01*
X123084498Y-51636033D01*
X123088091Y-51657059D01*
X123097094Y-51765129D01*
X123099308Y-51796766D01*
X123099445Y-51802464D01*
X123098573Y-51841982D01*
X123099500Y-51851063D01*
X123099500Y-55897191D01*
X123099399Y-55900028D01*
X123099533Y-55900388D01*
X123101507Y-55902503D01*
X124369205Y-57365230D01*
X124398236Y-57428783D01*
X124399500Y-57446441D01*
X124399500Y-58775500D01*
X124379815Y-58842539D01*
X124327011Y-58888294D01*
X124275500Y-58899500D01*
X123990953Y-58899500D01*
X123955233Y-58889011D01*
X123914487Y-58897117D01*
X123890295Y-58899500D01*
X123862262Y-58899500D01*
X123851653Y-58896385D01*
X123841136Y-58903413D01*
X123810568Y-58918240D01*
X123807845Y-58919124D01*
X123807837Y-58919128D01*
X123756458Y-58956457D01*
X123756457Y-58956458D01*
X123719128Y-59007837D01*
X123719124Y-59007845D01*
X123718240Y-59010568D01*
X123703413Y-59041136D01*
X123696811Y-59051016D01*
X123699500Y-59062262D01*
X123699500Y-59090297D01*
X123697118Y-59114487D01*
X123689938Y-59150583D01*
X123695591Y-59160072D01*
X123699499Y-59190956D01*
X123699500Y-60097341D01*
X123699411Y-60100056D01*
X123699535Y-60100386D01*
X123701502Y-60102475D01*
X124368819Y-60865123D01*
X124398151Y-60928538D01*
X124399500Y-60946778D01*
X124399500Y-65003649D01*
X124398712Y-65008500D01*
X124399420Y-65022453D01*
X124399464Y-65024193D01*
X124399520Y-65024318D01*
X124399690Y-65024480D01*
X124401584Y-65025201D01*
X124416105Y-65031251D01*
X124421295Y-65032095D01*
X136917009Y-69471048D01*
X136973591Y-69512037D01*
X136999030Y-69577111D01*
X136999500Y-69587893D01*
X136999500Y-80645609D01*
X136998890Y-80654290D01*
X136987775Y-80732985D01*
X136961102Y-80914032D01*
X136959497Y-80921612D01*
X136927672Y-81036071D01*
X136885437Y-81178086D01*
X136883063Y-81184681D01*
X136833774Y-81300582D01*
X136774449Y-81429303D01*
X136771539Y-81434859D01*
X136705980Y-81545984D01*
X136630195Y-81663016D01*
X136626983Y-81667523D01*
X136547499Y-81769116D01*
X136545383Y-81771675D01*
X136455315Y-81874897D01*
X136452023Y-81878386D01*
X136359589Y-81969096D01*
X136356601Y-81971842D01*
X136253032Y-82060960D01*
X136249871Y-82063505D01*
X136146376Y-82141383D01*
X136142435Y-82144116D01*
X136026935Y-82217780D01*
X136024089Y-82219489D01*
X135911796Y-82282921D01*
X135906861Y-82285424D01*
X135779814Y-82342917D01*
X135660156Y-82391167D01*
X135654227Y-82393216D01*
X135518109Y-82432672D01*
X135396147Y-82464125D01*
X135389270Y-82465489D01*
X135242527Y-82486070D01*
X135173717Y-82494471D01*
X135132176Y-82499543D01*
X135124662Y-82500000D01*
X134903121Y-82500000D01*
X134902833Y-82499997D01*
X134859516Y-82499588D01*
X134858467Y-82499499D01*
X134852323Y-82499499D01*
X134847722Y-82499328D01*
X134822540Y-82497454D01*
X134820513Y-82498363D01*
X134803764Y-82499499D01*
X103254388Y-82499499D01*
X103245712Y-82498889D01*
X103181092Y-82489762D01*
X103166870Y-82487754D01*
X102985972Y-82461104D01*
X102978392Y-82459499D01*
X102863868Y-82427656D01*
X102721931Y-82385445D01*
X102715335Y-82383070D01*
X102599367Y-82333752D01*
X102470708Y-82274457D01*
X102465152Y-82271547D01*
X102353996Y-82205969D01*
X102236981Y-82130195D01*
X102232475Y-82126982D01*
X102130861Y-82047481D01*
X102128315Y-82045378D01*
X102025118Y-81955330D01*
X102021630Y-81952039D01*
X101930887Y-81859573D01*
X101928151Y-81856598D01*
X101839033Y-81753028D01*
X101836503Y-81749885D01*
X101758611Y-81646371D01*
X101755879Y-81642432D01*
X101682223Y-81526945D01*
X101680528Y-81524124D01*
X101617051Y-81411750D01*
X101614574Y-81406868D01*
X101557096Y-81279847D01*
X101545804Y-81251844D01*
X101508821Y-81160127D01*
X101506784Y-81154233D01*
X101467343Y-81018169D01*
X101435864Y-80896106D01*
X101434511Y-80889283D01*
X101413939Y-80742613D01*
X101399530Y-80624591D01*
X101399076Y-80616906D01*
X101399709Y-80433927D01*
X101400330Y-80367864D01*
X101400500Y-80366761D01*
X101400500Y-80352323D01*
X101400671Y-80347722D01*
X101402544Y-80322540D01*
X101401636Y-80320513D01*
X101400500Y-80303764D01*
X101400500Y-77750000D01*
X103879570Y-77750000D01*
X103899244Y-77962310D01*
X103957596Y-78167392D01*
X103957596Y-78167394D01*
X104052632Y-78358253D01*
X104181127Y-78528406D01*
X104181128Y-78528407D01*
X104338698Y-78672052D01*
X104519981Y-78784298D01*
X104718802Y-78861321D01*
X104928390Y-78900500D01*
X104928392Y-78900500D01*
X105141608Y-78900500D01*
X105141610Y-78900500D01*
X105351198Y-78861321D01*
X105550019Y-78784298D01*
X105731302Y-78672052D01*
X105888872Y-78528407D01*
X106017366Y-78358255D01*
X106084325Y-78223781D01*
X106131825Y-78172548D01*
X106199488Y-78155126D01*
X106265828Y-78177051D01*
X106307705Y-78226651D01*
X106401399Y-78427578D01*
X106536894Y-78621082D01*
X106703917Y-78788105D01*
X106897421Y-78923600D01*
X107111507Y-79023429D01*
X107111516Y-79023433D01*
X107325000Y-79080634D01*
X107325000Y-78362301D01*
X107344685Y-78295262D01*
X107397489Y-78249507D01*
X107466647Y-78239563D01*
X107539237Y-78250000D01*
X107539238Y-78250000D01*
X107610762Y-78250000D01*
X107610763Y-78250000D01*
X107683352Y-78239563D01*
X107752510Y-78249507D01*
X107805314Y-78295261D01*
X107824999Y-78362301D01*
X107824999Y-79080634D01*
X108038483Y-79023433D01*
X108038492Y-79023429D01*
X108252578Y-78923600D01*
X108446082Y-78788105D01*
X108613105Y-78621082D01*
X108748600Y-78427578D01*
X108842294Y-78226651D01*
X108888466Y-78174212D01*
X108955660Y-78155060D01*
X109022541Y-78175276D01*
X109065676Y-78223785D01*
X109132632Y-78358253D01*
X109261127Y-78528406D01*
X109261128Y-78528407D01*
X109418698Y-78672052D01*
X109599981Y-78784298D01*
X109798802Y-78861321D01*
X110008390Y-78900500D01*
X110008392Y-78900500D01*
X110221608Y-78900500D01*
X110221610Y-78900500D01*
X110431198Y-78861321D01*
X110630019Y-78784298D01*
X110811302Y-78672052D01*
X110968872Y-78528407D01*
X111097366Y-78358255D01*
X111097367Y-78358253D01*
X111192403Y-78167394D01*
X111192403Y-78167393D01*
X111192405Y-78167389D01*
X111250756Y-77962310D01*
X111261529Y-77846047D01*
X111287315Y-77781111D01*
X111329622Y-77750804D01*
X111438130Y-77750804D01*
X111474503Y-77771668D01*
X111506693Y-77833681D01*
X111508471Y-77846048D01*
X111519244Y-77962310D01*
X111577596Y-78167392D01*
X111577596Y-78167394D01*
X111672632Y-78358253D01*
X111801127Y-78528406D01*
X111801128Y-78528407D01*
X111958698Y-78672052D01*
X112139981Y-78784298D01*
X112338802Y-78861321D01*
X112548390Y-78900500D01*
X112548392Y-78900500D01*
X112761608Y-78900500D01*
X112761610Y-78900500D01*
X112971198Y-78861321D01*
X113170019Y-78784298D01*
X113351302Y-78672052D01*
X113508872Y-78528407D01*
X113637366Y-78358255D01*
X113637367Y-78358253D01*
X113732403Y-78167394D01*
X113732403Y-78167393D01*
X113732405Y-78167389D01*
X113790756Y-77962310D01*
X113801529Y-77846047D01*
X113827315Y-77781111D01*
X113869624Y-77750803D01*
X113978129Y-77750803D01*
X114014503Y-77771668D01*
X114046693Y-77833681D01*
X114048471Y-77846048D01*
X114059244Y-77962310D01*
X114117596Y-78167392D01*
X114117596Y-78167394D01*
X114212632Y-78358253D01*
X114341127Y-78528406D01*
X114341128Y-78528407D01*
X114498698Y-78672052D01*
X114679981Y-78784298D01*
X114878802Y-78861321D01*
X115088390Y-78900500D01*
X115088392Y-78900500D01*
X115301608Y-78900500D01*
X115301610Y-78900500D01*
X115511198Y-78861321D01*
X115710019Y-78784298D01*
X115891302Y-78672052D01*
X116048872Y-78528407D01*
X116177366Y-78358255D01*
X116177367Y-78358253D01*
X116272403Y-78167394D01*
X116272403Y-78167393D01*
X116272405Y-78167389D01*
X116330756Y-77962310D01*
X116341529Y-77846047D01*
X116367315Y-77781111D01*
X116409622Y-77750804D01*
X116518130Y-77750804D01*
X116554503Y-77771668D01*
X116586693Y-77833681D01*
X116588471Y-77846048D01*
X116599244Y-77962310D01*
X116657596Y-78167392D01*
X116657596Y-78167394D01*
X116752632Y-78358253D01*
X116881127Y-78528406D01*
X116881128Y-78528407D01*
X117038698Y-78672052D01*
X117219981Y-78784298D01*
X117418802Y-78861321D01*
X117628390Y-78900500D01*
X117628392Y-78900500D01*
X117841608Y-78900500D01*
X117841610Y-78900500D01*
X118051198Y-78861321D01*
X118250019Y-78784298D01*
X118431302Y-78672052D01*
X118588872Y-78528407D01*
X118717366Y-78358255D01*
X118784325Y-78223781D01*
X118831825Y-78172548D01*
X118899488Y-78155126D01*
X118965828Y-78177051D01*
X119007705Y-78226651D01*
X119101399Y-78427578D01*
X119236894Y-78621082D01*
X119403917Y-78788105D01*
X119597421Y-78923600D01*
X119811507Y-79023429D01*
X119811516Y-79023433D01*
X120024999Y-79080633D01*
X120024999Y-78362301D01*
X120044683Y-78295262D01*
X120097487Y-78249507D01*
X120166646Y-78239563D01*
X120173380Y-78240531D01*
X120239237Y-78250000D01*
X120239238Y-78250000D01*
X120310762Y-78250000D01*
X120310763Y-78250000D01*
X120383353Y-78239563D01*
X120452512Y-78249507D01*
X120505315Y-78295262D01*
X120525000Y-78362301D01*
X120525000Y-79080633D01*
X120738483Y-79023433D01*
X120738492Y-79023429D01*
X120952578Y-78923600D01*
X121146082Y-78788105D01*
X121313105Y-78621082D01*
X121448600Y-78427578D01*
X121542294Y-78226651D01*
X121588466Y-78174212D01*
X121655660Y-78155060D01*
X121722541Y-78175276D01*
X121765676Y-78223785D01*
X121832632Y-78358253D01*
X121961127Y-78528406D01*
X121961128Y-78528407D01*
X122118698Y-78672052D01*
X122299981Y-78784298D01*
X122498802Y-78861321D01*
X122708390Y-78900500D01*
X122708392Y-78900500D01*
X122921608Y-78900500D01*
X122921610Y-78900500D01*
X123131198Y-78861321D01*
X123330019Y-78784298D01*
X123511302Y-78672052D01*
X123668872Y-78528407D01*
X123797366Y-78358255D01*
X123797367Y-78358253D01*
X123892403Y-78167394D01*
X123892403Y-78167393D01*
X123892405Y-78167389D01*
X123950756Y-77962310D01*
X123961529Y-77846045D01*
X123987313Y-77781112D01*
X124029621Y-77750804D01*
X124138128Y-77750804D01*
X124174501Y-77771667D01*
X124206692Y-77833680D01*
X124208470Y-77846047D01*
X124219244Y-77962310D01*
X124277596Y-78167392D01*
X124277596Y-78167394D01*
X124372632Y-78358253D01*
X124501127Y-78528406D01*
X124501128Y-78528407D01*
X124658698Y-78672052D01*
X124839981Y-78784298D01*
X125038802Y-78861321D01*
X125248390Y-78900500D01*
X125248392Y-78900500D01*
X125461608Y-78900500D01*
X125461610Y-78900500D01*
X125671198Y-78861321D01*
X125870019Y-78784298D01*
X126051302Y-78672052D01*
X126208872Y-78528407D01*
X126337366Y-78358255D01*
X126337367Y-78358253D01*
X126432403Y-78167394D01*
X126432403Y-78167393D01*
X126432405Y-78167389D01*
X126490756Y-77962310D01*
X126501529Y-77846047D01*
X126527315Y-77781111D01*
X126569622Y-77750804D01*
X126678130Y-77750804D01*
X126714503Y-77771668D01*
X126746693Y-77833681D01*
X126748471Y-77846048D01*
X126759244Y-77962310D01*
X126817596Y-78167392D01*
X126817596Y-78167394D01*
X126912632Y-78358253D01*
X127041127Y-78528406D01*
X127041128Y-78528407D01*
X127198698Y-78672052D01*
X127379981Y-78784298D01*
X127578802Y-78861321D01*
X127788390Y-78900500D01*
X127788392Y-78900500D01*
X128001608Y-78900500D01*
X128001610Y-78900500D01*
X128211198Y-78861321D01*
X128410019Y-78784298D01*
X128591302Y-78672052D01*
X128748872Y-78528407D01*
X128877366Y-78358255D01*
X128877367Y-78358253D01*
X128972403Y-78167394D01*
X128972403Y-78167393D01*
X128972405Y-78167389D01*
X129030756Y-77962310D01*
X129041529Y-77846047D01*
X129067315Y-77781111D01*
X129109622Y-77750804D01*
X129218130Y-77750804D01*
X129254503Y-77771668D01*
X129286693Y-77833681D01*
X129288471Y-77846048D01*
X129299244Y-77962310D01*
X129357596Y-78167392D01*
X129357596Y-78167394D01*
X129452632Y-78358253D01*
X129581127Y-78528406D01*
X129581128Y-78528407D01*
X129738698Y-78672052D01*
X129919981Y-78784298D01*
X130118802Y-78861321D01*
X130328390Y-78900500D01*
X130328392Y-78900500D01*
X130541608Y-78900500D01*
X130541610Y-78900500D01*
X130751198Y-78861321D01*
X130950019Y-78784298D01*
X131131302Y-78672052D01*
X131288872Y-78528407D01*
X131417366Y-78358255D01*
X131417367Y-78358253D01*
X131512403Y-78167394D01*
X131512403Y-78167393D01*
X131512405Y-78167389D01*
X131570756Y-77962310D01*
X131577029Y-77894605D01*
X131602814Y-77829669D01*
X131659614Y-77788981D01*
X131729395Y-77785461D01*
X131790002Y-77820225D01*
X131822193Y-77882238D01*
X131824500Y-77906047D01*
X131824500Y-78644856D01*
X131824502Y-78644882D01*
X131827413Y-78669987D01*
X131827415Y-78669991D01*
X131872793Y-78772764D01*
X131872794Y-78772765D01*
X131952235Y-78852206D01*
X132055009Y-78897585D01*
X132080135Y-78900500D01*
X133869864Y-78900499D01*
X133869879Y-78900497D01*
X133869882Y-78900497D01*
X133894987Y-78897586D01*
X133894988Y-78897585D01*
X133894991Y-78897585D01*
X133997765Y-78852206D01*
X134077206Y-78772765D01*
X134122585Y-78669991D01*
X134125500Y-78644865D01*
X134125499Y-76855136D01*
X134125497Y-76855117D01*
X134122586Y-76830012D01*
X134122585Y-76830010D01*
X134122585Y-76830009D01*
X134077206Y-76727235D01*
X133997765Y-76647794D01*
X133977124Y-76638680D01*
X133894992Y-76602415D01*
X133869865Y-76599500D01*
X132080143Y-76599500D01*
X132080117Y-76599502D01*
X132055012Y-76602413D01*
X132055008Y-76602415D01*
X131952235Y-76647793D01*
X131872794Y-76727234D01*
X131827415Y-76830006D01*
X131827415Y-76830008D01*
X131824500Y-76855131D01*
X131824499Y-76855137D01*
X131824500Y-77593951D01*
X131804815Y-77660990D01*
X131752011Y-77706745D01*
X131682853Y-77716689D01*
X131619297Y-77687664D01*
X131581523Y-77628886D01*
X131577029Y-77605391D01*
X131570756Y-77537689D01*
X131556273Y-77486789D01*
X131512405Y-77332611D01*
X131512403Y-77332606D01*
X131512403Y-77332605D01*
X131417367Y-77141746D01*
X131288872Y-76971593D01*
X131131302Y-76827948D01*
X130950019Y-76715702D01*
X130950017Y-76715701D01*
X130850608Y-76677190D01*
X130751198Y-76638679D01*
X130541610Y-76599500D01*
X130328390Y-76599500D01*
X130118802Y-76638679D01*
X130118799Y-76638679D01*
X130118799Y-76638680D01*
X129919982Y-76715701D01*
X129919980Y-76715702D01*
X129738699Y-76827947D01*
X129581127Y-76971593D01*
X129452632Y-77141746D01*
X129357596Y-77332605D01*
X129357596Y-77332607D01*
X129299244Y-77537689D01*
X129288471Y-77653951D01*
X129262685Y-77718888D01*
X129218130Y-77750804D01*
X129109622Y-77750804D01*
X129111869Y-77749194D01*
X129075497Y-77728331D01*
X129043307Y-77666318D01*
X129041529Y-77653951D01*
X129035969Y-77593951D01*
X129030756Y-77537690D01*
X128972405Y-77332611D01*
X128972403Y-77332606D01*
X128972403Y-77332605D01*
X128877367Y-77141746D01*
X128748872Y-76971593D01*
X128591302Y-76827948D01*
X128410019Y-76715702D01*
X128410017Y-76715701D01*
X128310608Y-76677190D01*
X128211198Y-76638679D01*
X128001610Y-76599500D01*
X127788390Y-76599500D01*
X127578802Y-76638679D01*
X127578799Y-76638679D01*
X127578799Y-76638680D01*
X127379982Y-76715701D01*
X127379980Y-76715702D01*
X127198699Y-76827947D01*
X127041127Y-76971593D01*
X126912632Y-77141746D01*
X126817596Y-77332605D01*
X126817596Y-77332607D01*
X126759244Y-77537689D01*
X126748471Y-77653951D01*
X126722685Y-77718888D01*
X126678130Y-77750804D01*
X126569622Y-77750804D01*
X126571869Y-77749194D01*
X126535497Y-77728331D01*
X126503307Y-77666318D01*
X126501529Y-77653951D01*
X126495969Y-77593951D01*
X126490756Y-77537690D01*
X126432405Y-77332611D01*
X126432403Y-77332606D01*
X126432403Y-77332605D01*
X126337367Y-77141746D01*
X126208872Y-76971593D01*
X126051302Y-76827948D01*
X125870019Y-76715702D01*
X125870017Y-76715701D01*
X125770608Y-76677190D01*
X125671198Y-76638679D01*
X125461610Y-76599500D01*
X125248390Y-76599500D01*
X125038802Y-76638679D01*
X125038799Y-76638679D01*
X125038799Y-76638680D01*
X124839982Y-76715701D01*
X124839980Y-76715702D01*
X124658699Y-76827947D01*
X124501127Y-76971593D01*
X124372632Y-77141746D01*
X124277596Y-77332605D01*
X124277596Y-77332607D01*
X124219244Y-77537689D01*
X124208470Y-77653952D01*
X124182683Y-77718889D01*
X124138128Y-77750804D01*
X124029621Y-77750804D01*
X124031868Y-77749194D01*
X123995495Y-77728330D01*
X123963306Y-77666317D01*
X123961530Y-77653966D01*
X123950756Y-77537690D01*
X123892405Y-77332611D01*
X123892403Y-77332606D01*
X123892403Y-77332605D01*
X123797367Y-77141746D01*
X123668872Y-76971593D01*
X123511302Y-76827948D01*
X123330019Y-76715702D01*
X123330017Y-76715701D01*
X123230608Y-76677190D01*
X123131198Y-76638679D01*
X122921610Y-76599500D01*
X122708390Y-76599500D01*
X122498802Y-76638679D01*
X122498799Y-76638679D01*
X122498799Y-76638680D01*
X122299982Y-76715701D01*
X122299980Y-76715702D01*
X122118699Y-76827947D01*
X121961127Y-76971593D01*
X121832634Y-77141744D01*
X121765676Y-77276215D01*
X121718173Y-77327452D01*
X121650510Y-77344873D01*
X121584170Y-77322947D01*
X121542294Y-77273348D01*
X121448600Y-77072422D01*
X121448599Y-77072420D01*
X121313113Y-76878926D01*
X121313108Y-76878920D01*
X121146082Y-76711894D01*
X120952578Y-76576399D01*
X120738492Y-76476570D01*
X120738486Y-76476567D01*
X120525000Y-76419364D01*
X120525000Y-77137698D01*
X120505315Y-77204737D01*
X120452511Y-77250492D01*
X120383355Y-77260436D01*
X120310766Y-77250000D01*
X120310763Y-77250000D01*
X120239237Y-77250000D01*
X120239233Y-77250000D01*
X120166644Y-77260436D01*
X120097486Y-77250492D01*
X120044683Y-77204736D01*
X120024999Y-77137698D01*
X120024999Y-76419364D01*
X119811513Y-76476567D01*
X119811507Y-76476570D01*
X119597422Y-76576399D01*
X119597420Y-76576400D01*
X119403926Y-76711886D01*
X119403920Y-76711891D01*
X119236891Y-76878920D01*
X119236886Y-76878926D01*
X119101400Y-77072420D01*
X119101399Y-77072422D01*
X119007705Y-77273348D01*
X118961532Y-77325787D01*
X118894339Y-77344939D01*
X118827457Y-77324723D01*
X118784323Y-77276215D01*
X118717366Y-77141745D01*
X118588872Y-76971593D01*
X118431302Y-76827948D01*
X118250019Y-76715702D01*
X118250017Y-76715701D01*
X118150608Y-76677190D01*
X118051198Y-76638679D01*
X117841610Y-76599500D01*
X117628390Y-76599500D01*
X117418802Y-76638679D01*
X117418799Y-76638679D01*
X117418799Y-76638680D01*
X117219982Y-76715701D01*
X117219980Y-76715702D01*
X117038699Y-76827947D01*
X116881127Y-76971593D01*
X116752632Y-77141746D01*
X116657596Y-77332605D01*
X116657596Y-77332607D01*
X116599244Y-77537689D01*
X116588471Y-77653951D01*
X116562685Y-77718888D01*
X116518130Y-77750804D01*
X116409622Y-77750804D01*
X116411869Y-77749194D01*
X116375497Y-77728331D01*
X116343307Y-77666318D01*
X116341529Y-77653951D01*
X116335969Y-77593951D01*
X116330756Y-77537690D01*
X116272405Y-77332611D01*
X116272403Y-77332606D01*
X116272403Y-77332605D01*
X116177367Y-77141746D01*
X116048872Y-76971593D01*
X115891302Y-76827948D01*
X115710019Y-76715702D01*
X115710017Y-76715701D01*
X115610608Y-76677190D01*
X115511198Y-76638679D01*
X115301610Y-76599500D01*
X115088390Y-76599500D01*
X114878802Y-76638679D01*
X114878799Y-76638679D01*
X114878799Y-76638680D01*
X114679982Y-76715701D01*
X114679980Y-76715702D01*
X114498699Y-76827947D01*
X114341127Y-76971593D01*
X114212632Y-77141746D01*
X114117596Y-77332605D01*
X114117596Y-77332607D01*
X114059244Y-77537689D01*
X114048470Y-77653952D01*
X114022683Y-77718889D01*
X113978129Y-77750803D01*
X113869624Y-77750803D01*
X113871869Y-77749195D01*
X113835495Y-77728330D01*
X113803306Y-77666317D01*
X113801530Y-77653966D01*
X113790756Y-77537690D01*
X113732405Y-77332611D01*
X113732403Y-77332606D01*
X113732403Y-77332605D01*
X113637367Y-77141746D01*
X113508872Y-76971593D01*
X113351302Y-76827948D01*
X113170019Y-76715702D01*
X113170017Y-76715701D01*
X113070608Y-76677190D01*
X112971198Y-76638679D01*
X112761610Y-76599500D01*
X112548390Y-76599500D01*
X112338802Y-76638679D01*
X112338799Y-76638679D01*
X112338799Y-76638680D01*
X112139982Y-76715701D01*
X112139980Y-76715702D01*
X111958699Y-76827947D01*
X111801127Y-76971593D01*
X111672632Y-77141746D01*
X111577596Y-77332605D01*
X111577596Y-77332607D01*
X111519244Y-77537689D01*
X111508471Y-77653951D01*
X111482685Y-77718888D01*
X111438130Y-77750804D01*
X111329622Y-77750804D01*
X111331869Y-77749194D01*
X111295497Y-77728331D01*
X111263307Y-77666318D01*
X111261529Y-77653951D01*
X111255969Y-77593951D01*
X111250756Y-77537690D01*
X111192405Y-77332611D01*
X111192403Y-77332606D01*
X111192403Y-77332605D01*
X111097367Y-77141746D01*
X110968872Y-76971593D01*
X110811302Y-76827948D01*
X110630019Y-76715702D01*
X110630017Y-76715701D01*
X110530608Y-76677190D01*
X110431198Y-76638679D01*
X110221610Y-76599500D01*
X110008390Y-76599500D01*
X109798802Y-76638679D01*
X109798799Y-76638679D01*
X109798799Y-76638680D01*
X109599982Y-76715701D01*
X109599980Y-76715702D01*
X109418699Y-76827947D01*
X109261127Y-76971593D01*
X109132634Y-77141744D01*
X109065676Y-77276215D01*
X109018173Y-77327452D01*
X108950510Y-77344873D01*
X108884170Y-77322947D01*
X108842294Y-77273348D01*
X108748600Y-77072422D01*
X108748599Y-77072420D01*
X108613113Y-76878926D01*
X108613108Y-76878920D01*
X108446082Y-76711894D01*
X108252578Y-76576399D01*
X108038492Y-76476570D01*
X108038486Y-76476567D01*
X107825000Y-76419364D01*
X107824999Y-76419364D01*
X107824999Y-77137698D01*
X107805314Y-77204738D01*
X107752510Y-77250492D01*
X107683353Y-77260436D01*
X107610764Y-77250000D01*
X107610763Y-77250000D01*
X107539237Y-77250000D01*
X107539233Y-77250000D01*
X107466645Y-77260436D01*
X107397487Y-77250492D01*
X107344684Y-77204736D01*
X107325000Y-77137698D01*
X107325000Y-76419364D01*
X107324999Y-76419364D01*
X107111513Y-76476567D01*
X107111507Y-76476570D01*
X106897422Y-76576399D01*
X106897420Y-76576400D01*
X106703926Y-76711886D01*
X106703920Y-76711891D01*
X106536891Y-76878920D01*
X106536886Y-76878926D01*
X106401400Y-77072420D01*
X106401399Y-77072422D01*
X106307705Y-77273348D01*
X106261532Y-77325787D01*
X106194339Y-77344939D01*
X106127457Y-77324723D01*
X106084323Y-77276215D01*
X106017366Y-77141745D01*
X105888872Y-76971593D01*
X105731302Y-76827948D01*
X105550019Y-76715702D01*
X105550017Y-76715701D01*
X105450608Y-76677190D01*
X105351198Y-76638679D01*
X105141610Y-76599500D01*
X104928390Y-76599500D01*
X104718802Y-76638679D01*
X104718799Y-76638679D01*
X104718799Y-76638680D01*
X104519982Y-76715701D01*
X104519980Y-76715702D01*
X104338699Y-76827947D01*
X104181127Y-76971593D01*
X104052632Y-77141746D01*
X103957596Y-77332605D01*
X103957596Y-77332607D01*
X103899244Y-77537689D01*
X103879570Y-77749999D01*
X103879570Y-77750000D01*
X101400500Y-77750000D01*
X101400500Y-74422000D01*
X123296721Y-74422000D01*
X123315762Y-74578818D01*
X123371780Y-74726523D01*
X123461517Y-74856530D01*
X123579760Y-74961283D01*
X123579762Y-74961284D01*
X123719634Y-75034696D01*
X123873014Y-75072500D01*
X123873015Y-75072500D01*
X124030985Y-75072500D01*
X124184365Y-75034696D01*
X124184364Y-75034696D01*
X124324240Y-74961283D01*
X124442483Y-74856530D01*
X124532220Y-74726523D01*
X124587677Y-74580294D01*
X124615935Y-74536588D01*
X127881623Y-71270900D01*
X127939628Y-71238186D01*
X127970959Y-71230464D01*
X127994362Y-71224697D01*
X127994363Y-71224696D01*
X127994365Y-71224696D01*
X128134240Y-71151283D01*
X128252483Y-71046530D01*
X128342220Y-70916523D01*
X128398237Y-70768818D01*
X128417278Y-70612000D01*
X128398237Y-70455182D01*
X128342220Y-70307477D01*
X128252483Y-70177470D01*
X128134240Y-70072717D01*
X128134238Y-70072716D01*
X128134237Y-70072715D01*
X127994365Y-69999303D01*
X127840986Y-69961500D01*
X127840985Y-69961500D01*
X127683015Y-69961500D01*
X127683014Y-69961500D01*
X127529634Y-69999303D01*
X127389762Y-70072715D01*
X127271516Y-70177471D01*
X127181781Y-70307475D01*
X127181780Y-70307476D01*
X127126325Y-70453699D01*
X127098064Y-70497409D01*
X123832377Y-73763096D01*
X123774372Y-73795811D01*
X123719638Y-73809302D01*
X123719634Y-73809303D01*
X123579762Y-73882715D01*
X123461516Y-73987471D01*
X123371781Y-74117475D01*
X123371780Y-74117476D01*
X123315762Y-74265181D01*
X123296721Y-74421999D01*
X123296721Y-74422000D01*
X101400500Y-74422000D01*
X101400500Y-69587612D01*
X101420185Y-69520573D01*
X101472989Y-69474818D01*
X101482633Y-69470893D01*
X104398830Y-68425000D01*
X113569722Y-68425000D01*
X113588762Y-68581818D01*
X113644779Y-68729522D01*
X113644780Y-68729523D01*
X113734517Y-68859530D01*
X113852760Y-68964283D01*
X113852762Y-68964284D01*
X113992634Y-69037696D01*
X114146014Y-69075500D01*
X114146015Y-69075500D01*
X114303985Y-69075500D01*
X114457365Y-69037696D01*
X114457364Y-69037696D01*
X114597240Y-68964283D01*
X114715483Y-68859530D01*
X114805220Y-68729523D01*
X114860677Y-68583294D01*
X114888935Y-68539588D01*
X119207603Y-64220920D01*
X119256044Y-64175680D01*
X119279041Y-64137861D01*
X119282613Y-64132611D01*
X119309361Y-64097342D01*
X119315945Y-64080643D01*
X119325344Y-64061719D01*
X119334672Y-64046382D01*
X119346611Y-64003765D01*
X119348631Y-63997755D01*
X119364876Y-63956565D01*
X119366710Y-63938715D01*
X119370659Y-63917941D01*
X119375500Y-63900666D01*
X119375500Y-63856398D01*
X119375825Y-63850054D01*
X119380351Y-63806029D01*
X119377303Y-63788348D01*
X119375500Y-63767281D01*
X119375500Y-58536219D01*
X119395185Y-58469180D01*
X119397434Y-58465802D01*
X119405220Y-58454523D01*
X119461237Y-58306818D01*
X119480278Y-58150000D01*
X119461237Y-57993182D01*
X119405220Y-57845477D01*
X119315483Y-57715470D01*
X119197240Y-57610717D01*
X119197238Y-57610716D01*
X119197237Y-57610715D01*
X119057365Y-57537303D01*
X118903986Y-57499500D01*
X118903985Y-57499500D01*
X118746015Y-57499500D01*
X118746014Y-57499500D01*
X118592634Y-57537303D01*
X118452762Y-57610715D01*
X118334516Y-57715471D01*
X118244781Y-57845475D01*
X118244780Y-57845476D01*
X118188762Y-57993181D01*
X118169721Y-58149999D01*
X118169721Y-58150000D01*
X118188762Y-58306818D01*
X118244780Y-58454523D01*
X118252550Y-58465780D01*
X118274432Y-58532135D01*
X118274499Y-58536219D01*
X118274500Y-63545612D01*
X118254815Y-63612651D01*
X118238181Y-63633293D01*
X114105377Y-67766096D01*
X114047372Y-67798811D01*
X113992638Y-67812302D01*
X113992634Y-67812303D01*
X113852762Y-67885715D01*
X113734516Y-67990471D01*
X113644781Y-68120475D01*
X113644780Y-68120476D01*
X113588762Y-68268181D01*
X113569722Y-68424999D01*
X113569722Y-68425000D01*
X104398830Y-68425000D01*
X113230124Y-65257659D01*
X113235049Y-65256784D01*
X113248164Y-65251308D01*
X113249982Y-65250626D01*
X113250232Y-65250457D01*
X113251087Y-65249924D01*
X113253074Y-65247914D01*
X113263657Y-65238427D01*
X113266697Y-65234009D01*
X113393744Y-65106962D01*
X113400379Y-65100384D01*
X113400383Y-65100383D01*
X113400385Y-65100379D01*
X113400425Y-65100283D01*
X113409993Y-65077253D01*
X113411689Y-65077957D01*
X113420308Y-65048776D01*
X113473184Y-65003104D01*
X113480478Y-65000149D01*
X113480583Y-65000000D01*
X113480584Y-65000000D01*
X113480584Y-51489378D01*
X113494561Y-51432186D01*
X113501560Y-51418725D01*
X113503676Y-51414985D01*
X113549883Y-51339676D01*
X113554418Y-51333243D01*
X113598720Y-51278221D01*
X113602778Y-51273664D01*
X113663837Y-51211584D01*
X113668316Y-51207461D01*
X113722599Y-51162249D01*
X113728953Y-51157609D01*
X113803457Y-51110178D01*
X113807220Y-51107965D01*
X113863491Y-51077511D01*
X113881103Y-51069686D01*
X113966395Y-51039500D01*
X114022334Y-51022341D01*
X114044639Y-51017691D01*
X114165064Y-51003977D01*
X114196939Y-51000804D01*
X114203077Y-51000500D01*
X122387870Y-51000500D01*
X122412806Y-51003033D01*
G37*
%TD.AperFunction*%
%TD*%
M02*
