%TF.GenerationSoftware,KiCad,Pcbnew,7.0.7*%
%TF.CreationDate,2023-10-03T14:25:23+02:00*%
%TF.ProjectId,emmc-adapter,656d6d63-2d61-4646-9170-7465722e6b69,rev?*%
%TF.SameCoordinates,Original*%
%TF.FileFunction,Soldermask,Top*%
%TF.FilePolarity,Negative*%
%FSLAX46Y46*%
G04 Gerber Fmt 4.6, Leading zero omitted, Abs format (unit mm)*
G04 Created by KiCad (PCBNEW 7.0.7) date 2023-10-03 14:25:23*
%MOMM*%
%LPD*%
G01*
G04 APERTURE LIST*
%ADD10C,0.300000*%
%ADD11R,1.700000X1.700000*%
%ADD12O,1.700000X1.700000*%
G04 APERTURE END LIST*
D10*
X114257143Y-70906900D02*
X114105357Y-70978328D01*
X114105357Y-70978328D02*
X113819643Y-70978328D01*
X113819643Y-70978328D02*
X113685714Y-70906900D01*
X113685714Y-70906900D02*
X113632143Y-70764042D01*
X113632143Y-70764042D02*
X113703572Y-70192614D01*
X113703572Y-70192614D02*
X113792857Y-70049757D01*
X113792857Y-70049757D02*
X113944643Y-69978328D01*
X113944643Y-69978328D02*
X114230357Y-69978328D01*
X114230357Y-69978328D02*
X114364286Y-70049757D01*
X114364286Y-70049757D02*
X114417857Y-70192614D01*
X114417857Y-70192614D02*
X114400000Y-70335471D01*
X114400000Y-70335471D02*
X113667857Y-70478328D01*
X114962500Y-70978328D02*
X115150000Y-69478328D01*
X115150000Y-69478328D02*
X115516071Y-70549757D01*
X115516071Y-70549757D02*
X116150000Y-69478328D01*
X116150000Y-69478328D02*
X115962500Y-70978328D01*
X116676786Y-70978328D02*
X116864286Y-69478328D01*
X116864286Y-69478328D02*
X117230357Y-70549757D01*
X117230357Y-70549757D02*
X117864286Y-69478328D01*
X117864286Y-69478328D02*
X117676786Y-70978328D01*
X119266072Y-70835471D02*
X119185715Y-70906900D01*
X119185715Y-70906900D02*
X118962500Y-70978328D01*
X118962500Y-70978328D02*
X118819643Y-70978328D01*
X118819643Y-70978328D02*
X118614286Y-70906900D01*
X118614286Y-70906900D02*
X118489286Y-70764042D01*
X118489286Y-70764042D02*
X118435715Y-70621185D01*
X118435715Y-70621185D02*
X118400000Y-70335471D01*
X118400000Y-70335471D02*
X118426786Y-70121185D01*
X118426786Y-70121185D02*
X118533929Y-69835471D01*
X118533929Y-69835471D02*
X118623215Y-69692614D01*
X118623215Y-69692614D02*
X118783929Y-69549757D01*
X118783929Y-69549757D02*
X119007143Y-69478328D01*
X119007143Y-69478328D02*
X119150000Y-69478328D01*
X119150000Y-69478328D02*
X119355358Y-69549757D01*
X119355358Y-69549757D02*
X119417858Y-69621185D01*
X121801786Y-69978328D02*
X121676786Y-70978328D01*
X121158929Y-69978328D02*
X121060715Y-70764042D01*
X121060715Y-70764042D02*
X121114286Y-70906900D01*
X121114286Y-70906900D02*
X121248215Y-70978328D01*
X121248215Y-70978328D02*
X121462500Y-70978328D01*
X121462500Y-70978328D02*
X121614286Y-70906900D01*
X121614286Y-70906900D02*
X121694643Y-70835471D01*
X122328572Y-70906900D02*
X122533929Y-70978328D01*
X122533929Y-70978328D02*
X122891072Y-70978328D01*
X122891072Y-70978328D02*
X123042858Y-70906900D01*
X123042858Y-70906900D02*
X123123215Y-70835471D01*
X123123215Y-70835471D02*
X123212500Y-70692614D01*
X123212500Y-70692614D02*
X123230358Y-70549757D01*
X123230358Y-70549757D02*
X123176786Y-70406900D01*
X123176786Y-70406900D02*
X123114286Y-70335471D01*
X123114286Y-70335471D02*
X122980358Y-70264042D01*
X122980358Y-70264042D02*
X122703572Y-70192614D01*
X122703572Y-70192614D02*
X122569643Y-70121185D01*
X122569643Y-70121185D02*
X122507143Y-70049757D01*
X122507143Y-70049757D02*
X122453572Y-69906900D01*
X122453572Y-69906900D02*
X122471429Y-69764042D01*
X122471429Y-69764042D02*
X122560715Y-69621185D01*
X122560715Y-69621185D02*
X122641072Y-69549757D01*
X122641072Y-69549757D02*
X122792858Y-69478328D01*
X122792858Y-69478328D02*
X123150000Y-69478328D01*
X123150000Y-69478328D02*
X123355358Y-69549757D01*
X123819643Y-70978328D02*
X124007143Y-69478328D01*
X124007143Y-69478328D02*
X124364286Y-69478328D01*
X124364286Y-69478328D02*
X124569643Y-69549757D01*
X124569643Y-69549757D02*
X124694643Y-69692614D01*
X124694643Y-69692614D02*
X124748214Y-69835471D01*
X124748214Y-69835471D02*
X124783929Y-70121185D01*
X124783929Y-70121185D02*
X124757143Y-70335471D01*
X124757143Y-70335471D02*
X124650000Y-70621185D01*
X124650000Y-70621185D02*
X124560714Y-70764042D01*
X124560714Y-70764042D02*
X124400000Y-70906900D01*
X124400000Y-70906900D02*
X124176786Y-70978328D01*
X124176786Y-70978328D02*
X123819643Y-70978328D01*
X115416072Y-72749757D02*
X116130357Y-72749757D01*
X115219643Y-73178328D02*
X115907143Y-71678328D01*
X115907143Y-71678328D02*
X116219643Y-73178328D01*
X117362500Y-73178328D02*
X117550000Y-71678328D01*
X117371429Y-73106900D02*
X117219643Y-73178328D01*
X117219643Y-73178328D02*
X116933929Y-73178328D01*
X116933929Y-73178328D02*
X116800000Y-73106900D01*
X116800000Y-73106900D02*
X116737500Y-73035471D01*
X116737500Y-73035471D02*
X116683929Y-72892614D01*
X116683929Y-72892614D02*
X116737500Y-72464042D01*
X116737500Y-72464042D02*
X116826786Y-72321185D01*
X116826786Y-72321185D02*
X116907143Y-72249757D01*
X116907143Y-72249757D02*
X117058929Y-72178328D01*
X117058929Y-72178328D02*
X117344643Y-72178328D01*
X117344643Y-72178328D02*
X117478571Y-72249757D01*
X118719643Y-73178328D02*
X118817857Y-72392614D01*
X118817857Y-72392614D02*
X118764286Y-72249757D01*
X118764286Y-72249757D02*
X118630357Y-72178328D01*
X118630357Y-72178328D02*
X118344643Y-72178328D01*
X118344643Y-72178328D02*
X118192857Y-72249757D01*
X118728572Y-73106900D02*
X118576786Y-73178328D01*
X118576786Y-73178328D02*
X118219643Y-73178328D01*
X118219643Y-73178328D02*
X118085714Y-73106900D01*
X118085714Y-73106900D02*
X118032143Y-72964042D01*
X118032143Y-72964042D02*
X118050000Y-72821185D01*
X118050000Y-72821185D02*
X118139286Y-72678328D01*
X118139286Y-72678328D02*
X118291072Y-72606900D01*
X118291072Y-72606900D02*
X118648214Y-72606900D01*
X118648214Y-72606900D02*
X118800000Y-72535471D01*
X119558929Y-72178328D02*
X119371429Y-73678328D01*
X119550000Y-72249757D02*
X119701786Y-72178328D01*
X119701786Y-72178328D02*
X119987500Y-72178328D01*
X119987500Y-72178328D02*
X120121429Y-72249757D01*
X120121429Y-72249757D02*
X120183929Y-72321185D01*
X120183929Y-72321185D02*
X120237500Y-72464042D01*
X120237500Y-72464042D02*
X120183929Y-72892614D01*
X120183929Y-72892614D02*
X120094643Y-73035471D01*
X120094643Y-73035471D02*
X120014286Y-73106900D01*
X120014286Y-73106900D02*
X119862500Y-73178328D01*
X119862500Y-73178328D02*
X119576786Y-73178328D01*
X119576786Y-73178328D02*
X119442857Y-73106900D01*
X120701786Y-72178328D02*
X121273215Y-72178328D01*
X120978572Y-71678328D02*
X120817858Y-72964042D01*
X120817858Y-72964042D02*
X120871429Y-73106900D01*
X120871429Y-73106900D02*
X121005358Y-73178328D01*
X121005358Y-73178328D02*
X121148215Y-73178328D01*
X122228572Y-73106900D02*
X122076786Y-73178328D01*
X122076786Y-73178328D02*
X121791072Y-73178328D01*
X121791072Y-73178328D02*
X121657143Y-73106900D01*
X121657143Y-73106900D02*
X121603572Y-72964042D01*
X121603572Y-72964042D02*
X121675001Y-72392614D01*
X121675001Y-72392614D02*
X121764286Y-72249757D01*
X121764286Y-72249757D02*
X121916072Y-72178328D01*
X121916072Y-72178328D02*
X122201786Y-72178328D01*
X122201786Y-72178328D02*
X122335715Y-72249757D01*
X122335715Y-72249757D02*
X122389286Y-72392614D01*
X122389286Y-72392614D02*
X122371429Y-72535471D01*
X122371429Y-72535471D02*
X121639286Y-72678328D01*
X122933929Y-73178328D02*
X123058929Y-72178328D01*
X123023215Y-72464042D02*
X123112500Y-72321185D01*
X123112500Y-72321185D02*
X123192857Y-72249757D01*
X123192857Y-72249757D02*
X123344643Y-72178328D01*
X123344643Y-72178328D02*
X123487500Y-72178328D01*
D11*
%TO.C,J2*%
X132975000Y-77750000D03*
D12*
X130435000Y-77750000D03*
X127895000Y-77750000D03*
X125355000Y-77750000D03*
X122815000Y-77750000D03*
X120275000Y-77750000D03*
X117735000Y-77750000D03*
X115195000Y-77750000D03*
X112655000Y-77750000D03*
X110115000Y-77750000D03*
X107575000Y-77750000D03*
X105035000Y-77750000D03*
%TD*%
M02*
